<svg xmlns="http://www.w3.org/2000/svg" xmlns:xlink="http://www.w3.org/1999/xlink" width="610" height="542" viewBox="0 0 610 542"><g opacity=".102"><defs><path id="a" d="M24.744 484.07H432v41.458H24.744z"/></defs><clipPath><use xlink:href="#a" overflow="visible"/></clipPath></g><path d="M151.047 496.142c-10.673 2.927-17.938 4.98-21.798 6.158-6.272 1.99-9.408 3.74-9.408 5.244 0 .975.24 1.685.723 2.134.725.69 2.292 1.3 4.704 1.83h15.015c10.467-.753 22.286-1.544 35.456-2.38 10.004-1.363 19.26-3.008 27.77-4.937 8.52-1.896 11.477-4.172 8.862-6.83-2.63-2.606-4.71-5.756-6.24-9.45-1.452-3.656-4.68-9.935-9.678-18.837-2.885-5.138-5.207-8.735-6.965-10.792 17.225-5.125 28.2-9.353 32.922-12.68 4.786-3.327 1.41-5.704-10.13-7.134-11.49-1.433-20.717.135-27.677 4.694-6.958 4.598-11.42 8.173-13.387 10.732-.984 4.61 4.262 12.21 15.738 22.8 4.13 4.967 8.382 9.865 12.753 14.694-6.522-.14-13.608.146-21.257.853-13.688 1.26-22.824 2.56-27.406 3.902M314.25 491.387c4.6-4.837 9.045-9.734 13.33-14.692 11.975-10.608 17.46-18.19 16.45-22.74-1.364-3.093-4.767-8.112-10.21-15.06-5.445-6.904-15.53-9.69-30.256-8.352-14.664 1.328-19.043 4.314-13.14 8.96 5.957 4.652 17.428 10.908 34.414 18.78-1.764 2.07-4.16 5.668-7.184 10.79-5.232 8.9-8.637 15.2-10.213 18.9-1.513 3.657-3.654 6.807-6.427 9.45-2.71 2.6.378 4.876 9.264 6.826 8.89 1.87 18.563 3.494 29.025 4.877 13.742.854 26.063 1.646 36.97 2.378h15.79c2.52-.53 4.158-1.14 4.914-1.83.504-.446.758-1.157.758-2.133 0-1.504-3.278-3.252-9.834-5.243-4.033-1.18-11.628-3.232-22.785-6.16-4.79-1.34-14.34-2.64-28.646-3.9-8.007-.69-15.413-.976-22.22-.853M485.053 358.844c13.146-2.63 16.826-4.846 11.036-6.645l-.123-.307c-.734.085-.938-.077-.61-.487.335-.38.884-.947 1.647-1.707.803-.756-4.56.037-16.096 2.377-11.54 2.382-19.688 4.048-24.447 5h-9.145c-5.162-5.406-11.807-11.808-19.936-19.206-1.058-.81-4.33-4.733-9.817-11.765-3.617-4.594-5.426-5.223-5.426-1.89 0 .642.162 1.395.488 2.255-.815-.153-1.648 2.996-2.5 9.45-.857 6.5 4.344 12.82 15.607 18.96 11.297 6.135 17.8 9.53 19.51 10.182 1.756.7 5.557.496 11.4-.61 5.838-1.066 15.31-2.935 28.41-5.608"/><path fill="#fff" d="M523.828 317.143c-.61-1.787-1.93-4.064-3.963-6.83-4.715-4.876-8.434-6.562-11.156-5.06-.977.57-1.567 1.567-1.77 2.99-.08.77-.142 1.868-.183 3.29-.04.69-.264 1.77-.672 3.23-.486 1.79-.77 2.847-.852 3.17-.164.733-1.16 1.77-2.988 3.11-2.194 1.506-3.74 2.602-4.633 3.292-3.252 2.562-6.666 5.55-10.242 8.963-2.846 2.764-4.31 4.145-4.39 4.145-.733 0-1.384-.223-1.952-.67-.568-.446-1.443-.67-2.62-.67-1.668 0-2.806.996-3.416 2.987-.345 1.032-.526 2.17-.548 3.414-.137.175-.26.378-.367.61-.162.447-.242.853-.242 1.22l1.096 4.083c1.017 3.213 2.236 6.158 3.66 8.84 4.593 8.618 10.425 12.926 17.498 12.926.812 0 1.85-.428 3.108-1.28 1.383-.933 4.41-1.503 9.085-1.707l12.194-.915c.77-.12 3.556-1.015 8.353-2.68 5.406-1.587 10.283-2.38 14.633-2.38.203 0 1.93.184 5.182.55 3.9.325 7.52.487 10.852.487 5.986 0 11.25-.284 15.79-.854.09.048.173.09.243.12.977.41 2.38.61 4.21.61 4.997 0 8.694-1.726 11.093-5.182 1.463-2.11 2.196-4.083 2.196-5.912 0-1.91-.103-3.15-.305-3.72-.203-.688-1.076-2.193-2.62-4.51-.31-.446-.655-.875-1.037-1.28.73-2.852 1.097-4.315 1.097-4.392 0-2.193-.264-3.637-.792-4.327-1.173-1.553-3.692-2.365-7.56-2.44.162-.603.244-1.193.244-1.77 0-4.67-1.627-7.843-4.878-9.51-5.284-2.764-14.59-1.42-27.923 4.024-6.786 1.992-12.903 3.983-18.35 5.975-3.114 1.133-5.776 2.21-7.987 3.23.557-2.38 1.125-5.37 1.706-8.962 0-2.598-.263-4.67-.792-6.215"/><path d="M534.863 344.7c-.533-2.72-2.525-6.054-5.975-10-3.413-3.9-5.648-5.934-6.706-6.095-4.343-1.322-9.22-.936-14.632 1.158 1.48-.096 3.184-.015 5.12.242 7.556 1.105 12.536 3.748 14.938 7.926 2.4 4.224 4.35 7.84 5.853 10.855 1.47.037 1.937-1.324 1.403-4.085M536.205 345.188c0 .65.08 1.058.244 1.22.08.122.263.284.546.486l-.06.184c.08.082.446.122 1.097.122.203 0 5.12-1.26 14.756-3.78 10.973-2.56 19.954-3.84 26.944-3.84 5.934 0 9.592 2.315 10.975 6.95.324 1.22.568 2.946.73 5.183.02.414.04.78.062 1.097-.377.244-.662.568-.854.975-.488 1.14-1.098 1.95-1.83 2.44-3.29 2.235-12.6 3.616-27.922 4.145l-17.682.243c-3.453-.404-6.117-.548-7.986-.426-1.95.164-3.353.61-4.207 1.34.815.286 2.665.774 5.55 1.465 3.17.73 5.385 1.158 6.645 1.28l23.168.06c10.193-.457 17.125-1.372 20.79-2.742 3.673-1.374 5.927-3.185 6.77-5.427.08-1.987.163-3.166.24-3.535.083-.407.123-1.504.123-3.294 0-3.738-.63-6.38-1.888-7.926-2.52-3.13-7.95-4.958-16.28-5.486-10.444 1.14-19.65 2.622-27.616 4.45-8.21 1.868-12.317 3.474-12.317 4.816M531.327 340.493c0 1.016.163 1.24.487.67 8.252-3.048 13.88-4.998 16.89-5.852 9.997-2.804 19.528-4.206 28.593-4.206 6.34 0 10.04 1.058 11.096 3.17.244.487.426 1.402.55 2.743.08 1.098.344 1.87.79 2.317.61-.243 1.16-.813 1.647-1.708.406-.77.61-1.443.61-2.01 0-2.236-1.118-4.352-3.353-6.342-3.78-3.29-9.776-4.004-17.986-2.134-11.257 2.113-19.59 3.942-24.995 5.487-9.55 2.685-14.328 5.305-14.328 7.866M536.937 324.887c-.045.02-.085.04-.123.06-1.815.362-4.173 1.012-7.07 1.95-1.554.54-3.647 1.82-6.28 3.842.397.04.783.06 1.157.06 3.375 0 6.973-.77 10.793-2.316 1.428-.564 5.004-1.824 10.73-3.78 2.12-.554 4.357-1.186 6.707-1.89 7.315-2.234 12.924-3.353 16.826-3.353 4.714 0 7.945 1.36 9.693 4.085.486.732 1.077 1.85 1.768 3.354.69 1.22 1.462 2.094 2.315 2.62l.793-.304.426-.854c-.04-.082-.588-1.565-1.645-4.45-.854-2.4-2.013-4.248-3.476-5.55-4.55-4.023-13.004-3.94-25.36.244-8.86 2.967-14.612 5.06-17.253 6.28M515.293 303.974c-3.172-1.423-5.854-1.89-8.05-1.402-2.437.57-3.657 2.276-3.657 5.12 0 1.445.102 3.01.305 4.696-.132.79-.295 1.746-.485 2.865-.812 3.374-2.986 5.69-6.524 6.95-2.64.936-5.588 3.17-8.84 6.707-3.252 3.454-4.877 6.096-4.877 7.926 0 1.016.164 1.24.49.67 1.34-.73 3.37-2.622 6.096-5.67 2.315-2.52 5.505-4.512 9.57-5.975 2.603-.934 4.653-2.66 6.157-5.18 1.02-1.756 1.63-3.544 1.83-5.367.26-.874.422-1.83.488-2.865-.042-2.764-.02-4.673.06-5.73h3.23c6.14 2.276 9.857 5.588 11.157 9.938.326 1.097.63 2.967.915 5.608.23 1.894.128 4.21-.306 6.95-.046.276-.106.542-.18.792 2.36-3.293 3.663-5.568 3.9-6.827.243-1.424.366-2.928.366-4.513 0-2.966-1.22-5.853-3.658-8.657-2.153-2.562-4.814-4.572-7.985-6.036M480.604 344.456c0 .04.1 1.057.305 3.05.528 1.887 1.645 2.883 3.353 2.986v1.28c0 .04.18.955.55 2.743.647 2.154 1.644 4.125 2.984 5.915 4.228 5.648 11.118 8.474 20.67 8.474 11.583 0 19.61-.813 24.08-2.44 1.545-.567 2.968-1.685 4.27-3.352-.042-.162-.184-.306-.428-.427l-.306-.244c-.936-.202-2.113-.304-3.536-.304-8.21 1.26-16.156 1.89-23.838 1.89-8.657 0-14.775-2.236-18.352-6.706-1.952-2.44-2.926-5.102-2.926-7.986 0-.487.364-1.626 1.098-3.414.77-2.033 1.178-3.11 1.22-3.232-2.288.675-3.853 1.854-4.696 3.537-.16-.36-.344-.766-.548-1.22-.487-1.098-.73-2.255-.73-3.475 0-.285.507-1.73 1.522-4.33 1.016-2.56 1.525-4.083 1.525-4.57-2.602 1.137-4.37 2.926-5.305 5.364-.61 1.585-.914 3.738-.914 6.462"/><path d="M479.2 336.836c.366.244.955.73 1.77 1.463.81.65 1.624.975 2.437.975.65 0 1.056-.265 1.22-.792.12-.57.203-.915.243-1.037-5.812-5.162-9.794-5.67-11.948-1.524-1.098 2.113-1.647 5.364-1.647 9.755 0 .04.43 1.463 1.28 4.268 1.18 3.333 2.54 6.4 4.085 9.206 4.958 8.902 10.892 13.353 17.802 13.353 2.48 0 4.533-.51 6.158-1.524 1.383-.895 2.072-1.912 2.072-3.05 0-.61-.04-.914-.12-.914-.163-.082-.265-.163-.306-.244.285-.242-.082-.365-1.098-.365-.566.002-1.055.51-1.463 1.524-.373 1.05-2.65 1.477-6.828 1.28-4.18-.194-7.775-3.162-10.79-8.9-2.97-5.692-4.982-10.082-6.038-13.17-.813-2.396-1.22-3.8-1.22-4.206 0-1.423.04-2.418.122-2.987.244-1.505.813-2.52 1.707-3.048l2.56-.064z"/><path fill="#EEEDED" d="M303.676 465.963c-2.405.455-4.702.88-6.89 1.28 3.71-.34 7.795-.77 12.255-1.28h-5.364m-169.122-19.57c.1.245.18.49.244.732.082.85.122 1.6.122 2.256v5.245c.26.66.584 1.248.976 1.767-.158-.513-.26-.94-.305-1.28-.04-.527-.04-1.44 0-2.743.04-1.182 0-2.096-.12-2.745-.197-1.174-.502-2.25-.916-3.23m134.798-267.282c-.057-.035-.137-.076-.244-.122-.006.012-.025.012-.06 0-.04-.007-.082-.028-.123-.06-.66-.173-1.37-.335-2.134-.487-.04-.014-.083-.033-.12-.062-.03.007-.07.007-.123 0-.252-.05-.536-.11-.854-.182-.032.008-.073.008-.122 0l-.67-.122c-.112-.017-.234-.038-.365-.06-4.41-.65-9.552-.71-15.425-.184-10.77.488-18.025 1.138-21.765 1.95-6.747 1.464-11.685 2.4-14.815 2.805-4.104.528-14.104 1.482-29.996 2.865-15.282 1.342-22.964 2.012-23.046 2.012-9.925 1.56-25.35 3.41-46.273 5.547-.322.05-.646.09-.976.123-3.415.366-5.507.854-6.28 1.464-.112.09-.213.192-.306.305-.488.7-.732 1.92-.732 3.658 0 .08 1.302 4.164 3.902 12.254.077.262.158.526.244.792.858 2.08 1.732 3.91 2.62 5.487.434.772.86 1.483 1.28 2.134.145.177.266.34.367.488.424 1.65.933 3.58 1.524 5.792.025.097.046.198.06.305.967 3.495 2.005 7.315 3.11 11.462 1.097 5.446 2.276 10.222 3.536 14.328.564 1.804 1.113 3.347 1.646 4.632V256.906c.062.393.164 1.144.305 2.255.23.745.575 1.314 1.037 1.71.522.446 1.192.67 2.012.67.06 0 .12-.02.183-.062-.034-.057-.053-.117-.062-.184 0-.407 9.53-5.792 28.594-16.156 2.107-1.134 4.32-2.334 6.645-3.597.253-.115.497-.237.732-.365.398-.206.785-.408 1.157-.61.15-.07.29-.15.427-.243 7.91-4.27 16.995-9.187 27.252-14.754.37-.16.715-.344 1.037-.55.066-.008.126-.03.183-.06 22.698-12.447 45.742-25.8 69.137-40.056.336-.176.662-.358.975-.548.955-.595 1.91-1.184 2.866-1.77 2.598-1.577 5.058-2.166 7.377-1.768-.436-.32-.944-.625-1.523-.914-.177-.064-.36-.146-.55-.244-.5-.187-1.046-.37-1.645-.545m145.042 94.377c-.286-2.7-.61-5.2-.978-7.5-.778-4.892-1.61-7.513-2.5-7.863-.27-.08-.553.02-.853.305l-.853 1.524c-.008.112-.027.213-.062.305-1.107-.81-2.715-1.3-4.814-1.462-.14.012-.3.012-.488 0h-.854c-3.623.487-5.92.732-6.89.732-1.18.04-5.06-1.058-11.645-3.294l-29.873-.305-1.22-.304h-19.51c-11.298.407-18.614.08-21.948-.975-3.372-1.097-10.892-1.442-22.558-1.036-41.823 2.886-66.88 4.512-75.172 4.877l-32.13.306c-3.17.61-11.177 1.423-24.02 2.438-12.6 1.016-20.994 1.524-25.18 1.524-.856-.085-1.628-.166-2.317-.244h-.062c-1.297-.09-2.293-.152-2.988-.184-.334.02-.598.043-.792.062-.624.045-1.072.39-1.342 1.036-.203.524-.305 1.215-.305 2.073 0 1.835-.06 4.843-.182 9.023-.184 5.59-.49 13.23-.915 22.925.204 1.824.305 3.41.305 4.756 0 .892-.326 4.406-.975 10.547-.01.735-.028 1.468-.062 2.195 0 3.78.47 11.727 1.404 23.84.488 6.217 1.036 12.902 1.646 20.056.366 4.513.996 13.576 1.89 27.194.044.418.083.826.122 1.22.128-.12.27-.244.426-.368.324-.186.71-.31 1.158-.365 1.016-.156 2.744-.137 5.183.062.445.037.892.076 1.34.122.16.015.302.015.427 0 .12.034.222.055.305.062 3.01.336 6.81.863 11.4 1.585 6.015.733 13.88 1.81 23.594 3.23 8.374 1.22 13.922 2.075 16.645 2.563 4.432.732 11.362 1.706 20.79 2.926 11.137 1.423 18.433 2.378 21.888 2.865.976.122 9.876 1.158 26.704 3.108 7.397.854 11.095 1.748 11.095 2.684 0 .244-.14.55-.426.914-.323.407-.69.65-1.097.733-4.434-.498-9.638-1.107-15.607-1.83.042.096.06.178.06.244 0 .447-.203.833-.608 1.158-.406.365-.813.51-1.22.428h-7.376c.106.307.188.652.244 1.036.204 1.38.162 3.33-.122 5.852.122 1.057.326 2.62.61 4.695.203 1.788.304 3.23.304 4.327 0 .854-.143 1.342-.427 1.464-.527.326-2.133.487-4.816.487-2.073 0-4.41-.182-7.01-.55-2.276-.325-3.495-.508-3.66-.547h-8.534c-3.618.57-6.645.71-9.084.427-1.99-.286-3.128-.71-3.414-1.28-.162-.406-.244-1.078-.244-2.013-.163-2.032-.244-3.496-.244-4.39 0-.936-.14-2.44-.427-4.51-.323-2.074-.487-3.395-.487-3.964 0-.244.164-.692.487-1.34.366-.693.67-1.038.915-1.038.286 0 .65.102 1.098.305.487.203.854.305 1.097.305 1.4 0 2.68-.04 3.84-.123-1.736-.152-3.95-.336-6.645-.547-6.542-.53-10-.77-10.365-.73l-12.193.182c-1.707 0-6.645-.448-14.814-1.343-7.274-.772-11.725-1.28-13.352-1.525h-14.815c1.463.164 2.784.246 3.963.246l11.584.183c4.96.732 9.368 1.302 13.23 1.707 1.382.245 2.072.914 2.072 2.012 0 2.398-.102 6.057-.305 10.975v2.987c-.163 1.83-.69 2.743-1.586 2.743-9.51-1.097-16.56-1.746-21.154-1.95-1.504 0-4.228-.122-8.17-.365-.537-.03-1.043-.07-1.524-.123-.177.01-.36.01-.55 0-3.247-.203-5.076-.406-5.486-.61l-.12-.06c-.128-.06-.25-.123-.367-.185v-.06c-.207-.108-.39-.25-.55-.43.12 2.804.404 6.136.854 10 .35 3.01.635 5.528.854 7.56.1.553.182 1.08.244 1.587.22 1.512.404 2.893.55 4.145.013.08.013.14 0 .182l.548-.306c.97-.375 2.534-.517 4.693-.426.21.01.432.01.67 0 .094.023.176.023.245 0 3.557.2 11.32.69 23.29 1.463 4.35-.446 7.052-.283 8.107.488.813.61 1.22 2.38 1.22 5.305 0 1.42.143 3.37.427 5.853.05.22.093.443.122.672.366 2.803.55 4.896.55 6.28 0 .53-.123.936-.367 1.218 4.564.785 8.426 1.313 11.584 1.585 3.643.282 5.695.223 6.16-.182-.152-.112-.397-.174-.733-.183h.853c5.42-.03 8.975-.314 10.67-.854.217-.07.42-.15.61-.242l5.425.12c-.007-.083-.026-.186-.06-.304l-.063-.244-.06-2.683c.272-3.077.455-5.25.548-6.522.04-.6.06-.984.06-1.16 0-.406-.243-1.463-.73-3.17-.488-1.624-.732-2.46-.732-2.498 0-1.14.386-1.748 1.158-1.83.53-.04 1.707.022 3.536.184.162 0 .936-.082 2.317-.243 1.502-.204 2.784-.327 3.84-.366v-.182h12.803l.61.183 8.23.124c3.13-.61 5.06.548 5.792 3.475.366 1.543.508 3.738.427 6.584.152.885.335 1.86.55 2.926.4 2.063.908 4.46 1.523 7.193 0 .61-.08 1.037-.244 1.28-.06.078-.142.14-.243.185 2.15.344 4.224.73 6.218 1.157l23.167.61c1.727 0 3.84-.082 6.34-.244-.567-.284-.872-.73-.914-1.34.326-1.384.467-2.237.427-2.563l-.305-4.39c0-1.545.06-3.25.183-5.12.082-1.87.122-4.45.122-7.743 0-.854.53-1.4 1.585-1.646 1.383-.325 4.695-.53 9.938-.61h11.89c4.35-.81 7.722-1.157 10.12-1.035 2.6.12 4.268.812 4.998 2.073v16.278c.122.202.184.487.184.853 0 .035-.284.52-.854 1.464.944-.122 1.9-.244 2.865-.365 13.833-1.716 24.847-2.793 33.046-3.23.004-.01.004-.03 0-.062.035-.213.055-.437.06-.67.036-.095.056-.196.062-.306.008-.07.008-.154 0-.244.17-1.605.108-3.332-.184-5.182.008-.04.008-.08 0-.122-.162-.974-.162-2.498 0-4.572.204-1.95.305-3.068.305-3.354 0-.242-.102-.73-.306-1.462-.202-.73-.305-1.22-.305-1.464 0-.69.346-1.158 1.036-1.4.976-.408 3.272-.815 6.89-1.22l7.62-.123.61-.183 10.67-.122c2.15-1.464 3.72-1.118 4.693 1.037.69 1.503.975 3.353.853 5.546.045 1.007.125 2.307.242 3.905.098 1.347.22 2.89.367 4.632v.245c-.002.092-.002.173 0 .243-.004.07-.004.13 0 .183-.043.505-.123.932-.244 1.28l-.365.67c-.124.224-.287.386-.488.488 9.57-1.072 15.605-1.863 18.106-2.378 3.027-.64 5.486-1.312 7.38-2.012.628.57 1.42.853 2.376.853 1.87 0 3.19-1.442 3.963-4.327.406-1.585.608-3.373.608-5.364 0-4.274.062-9.17.184-14.695-.048 1-.11 1.854-.184 2.56-.082.733-.588 1.505-1.523 2.317-1.3 1.14-2.927 1.728-4.878 1.77-.308.007-.633.007-.976 0-3.174.16-7.017.65-11.522 1.463-4.835.853-7.376 1.28-7.62 1.28-3.657 0-5.69-.528-6.097-1.585.123-2.155.185-4.31.185-6.464 0-.935-.184-2.864-.55-5.792-.364-2.967-.548-4.837-.548-5.608 0-.935.508-1.503 1.523-1.707 1.342-.326 4.716-.488 10.123-.488 4.196 0 9.357-.874 15.483-2.62.1-.014.204-.033.305-.063 1.994-.57 3.397-.814 4.208-.732 1.058.12 1.788.793 2.194 2.013v8.658c.204-7.56.305-13.637.305-18.23 0-2.23-.14-6.337-.426-12.315-.077.138-.16.26-.243.366l-.182.183c-.053.055-.134.094-.245.12l-4.694 1.343c-1.938.352-4.438.72-7.5 1.098-5.525.73-9.916 1.197-13.166 1.402-2.973.244-5.86.467-8.66.67.256.168.458.35.61.55.08.16.124 1.137.124 2.926-.084 1.342-.02 3.435.182 6.278.244 3.294.365 5.448.365 6.464 0 .853-.08 1.38-.24 1.585-.41.608-1.445.913-3.112.913-2.64 0-5.77.527-9.387 1.585-3.657 1.058-7.175 1.586-10.548 1.586-3.7 0-6.178-.265-7.438-.793-1.422-.568-1.912-1.706-1.465-3.414.08-.528.08-1.26 0-2.193-.08-1.22-.122-2.012-.122-2.38 0-1.99-.14-3.82-.427-5.486-.323-1.624-.486-2.803-.486-3.535 0-.658.163-1.146.487-1.464l-6.826.55c-12.82 1.02-22.615 1.732-29.387 2.134.35.29.633.637.854 1.037.325.567.488 1.928.488 4.083 0 .488-.202 2.013-.61 4.572 0 .448.204 1.605.61 3.475.366 1.87.548 2.988.548 3.354 0 .65-.202 1.098-.61 1.34-.567.367-1.645.51-3.23.43-.69.324-1.503.63-2.438.913-1.95.61-3.86.915-5.73.915-10.486-.042-18.168-.183-23.046-.428-.813 0-1.503-.427-2.072-1.28-.448-.772-.71-1.77-.792-2.987l-.305-5.67c.04-1.746.12-3.435.243-5.06.204-3.13.57-4.694 1.097-4.694.244 0 .57.305.976.914h4.084c1.057-.162 3.028-.265 5.913-.305 2.688-.08 5.776-.426 9.267-1.037-2.316-.455-3.475-.9-3.475-1.34 0-.65.203-.996.608-1.037.287-.04.935-.02 1.95.06 1.14 0 7.36-.974 18.657-2.925 11.137-1.91 18.8-3.313 22.984-4.208 16.624-3.535 28.553-6.238 35.787-8.107 4.1-1.085 15.34-3.686 33.715-7.804.237-.035.462-.076.672-.122 2.657-.608 4.444-.67 5.364-.183-.365-7.817-.55-13.385-.55-16.707 0-15.363-.71-29.507-2.134-42.432-.236-2.16-.46-4.293-.67-6.4-.873-.02-1.89-.713-3.05-2.074-5.715 1.983-10.653 2.92-14.81 2.805-4.76-.567-8.74-.853-11.952-.853-2.52 0-6.89.162-13.108.487-4.39.204-7.743.386-10.06.55-2.234.243-5.812.832-10.73 1.768-3.008.528-4.512.61-4.512.244v-.06c-2.355-.206-6.137-.938-11.34-2.197-6.38-1.585-10.16-2.825-11.34-3.72-1.18-.895-1.97-2.297-2.377-4.207-.284-2.275-.51-3.923-.67-4.937-.325-2.52-.61-6.118-.854-10.792-.16-3.496-.243-5.995-.243-7.5 0-2.275.854-4.653 2.562-7.132 1.99-2.887 3.84-2.235 5.546 1.95.61-.244 3.07-.59 7.377-1.036 4.106-.406 6.768-.61 7.986-.61 3.212 0 7.093.366 11.645 1.098 4.51.69 8.778 1.037 12.803 1.037 10.975 0 20.87-.447 29.69-1.342 8.313-.885 13.435-1.352 15.363-1.4.027.284.05.57.063.854-.08-1.21-.183-2.39-.3-3.542M156.99 284.526c13.818.61 24.51.915 32.068.915 8.332 0 30.992-.712 67.978-2.134 5.853-2.684 9.614-1.017 11.28 5 .812 3.048 1.057 6.562.73 10.547 0 3.453-.203 7.416-.61 11.89-.527 5.404-5.648 8.392-15.363 8.96-3.048.163-6.89.102-11.522-.183-5.324-.365-8.127-.548-8.412-.548-21.46.405-35.24.914-41.336 1.524h-42.067c-7.07-.57-12.254-4.655-15.546-12.255-2.154-4.958-3.232-10.222-3.232-15.79 0-2.356.204-4.023.61-5 1.057-2.56 3.353-3.84 6.89-3.84.08 0 6.258.307 18.532.916m16.765 138.76c1.14 0 3.76.103 7.865.305l10.18.306c1.83.326 5.022.407 9.573.245 2.235-.04 4.146.895 5.73 2.804v11.707c.367 1.626.55 2.967.55 4.024 0 1.016-.062 1.646-.184 1.89-.53 1.016-1.83 1.525-3.902 1.525-1.382 0-4.775-.367-10.182-1.1-4.838-.69-7.743-.936-8.72-.73h-9.753c-1.543-1.057-2.4-2.622-2.56-4.695.08-2.315.102-3.942.06-4.877-.082-1.91-.305-3.8-.67-5.67-.366-1.747-.55-3.027-.55-3.84.002-1.22.855-1.852 2.562-1.892m75.66.855l10.975-.12c.813-.084 4.573.426 11.28 1.523l8.534.122c1.22.162 2.013.63 2.378 1.4.122.286.183.772.183 1.465 0 .488-.223 3.557-.67 9.206v4.512c-.163 1.87-.793 3.312-1.89 4.328l-15.243.182c-.406.08-.853.123-1.34.123l-1.404-.122-8.474-.06c-4.268.487-6.91.122-7.925-1.098-.61-.73-.834-2.743-.672-6.036.04-1.097-.02-2.704-.183-4.816-.162-1.99-.244-3.11-.244-3.354 0-.365-.222-1.157-.67-2.376-.487-1.26-.73-1.913-.73-1.952 0-.77.344-1.362 1.035-1.768.936-.527 2.622-.914 5.06-1.157m104.803-2.438c.325.162.69.77 1.097 1.83v4.326c0 .284.163 1.627.488 4.024.285 2.357.427 3.82.427 4.39 0 .283.02 1.117.062 2.5-.04 1.423-.203 2.5-.488 3.23-.12.448-4.612 1.18-13.474 2.195-8.372.977-13.33 1.464-14.876 1.464-3.536 0-5.608-.73-6.22-2.194-.243-.528-.384-3.15-.425-7.865.04-.446-.103-2.152-.43-5.12-.282-3.008-.426-4.675-.426-5 0-.895.57-1.44 1.707-1.645 1.748-.284 6.464-.428 14.146-.428 5.935 0 11.3-.527 16.097-1.584 1.218-.243 1.99-.285 2.315-.12m37.19-215.46c-.394-.217-.84-.46-1.342-.73l-15.974-4.695c-.175-.022-.358-.062-.548-.122-.39-.062-.795-.143-1.22-.244-.05.015-.11.015-.183 0-.067-.006-.15-.025-.243-.06-.048.013-.108.013-.182 0-9.105-1.627-15.893-2.846-20.365-3.66-7.883-1.463-13.695-2.783-17.436-3.962-3.738-.61-9.593-1.95-17.56-4.024-11.623-3.048-18.33-4.796-20.118-5.243-7.128-1.694-12.636-2.63-16.522-2.804-2.23-.068-3.917.114-5.06.547h-.062c.133.035.255.076.365.122l.305.12c1.667.733 3.76 1.952 6.28 3.66 2.353 1.142 5.197 2.748 8.535 4.815 3.39 2.058 6.843 3.562 10.364 4.512.13.05.252.09.367.122.05.013.09.034.12.06.076.016.137.036.184.062.163.05.325.09.49.12l9.022 4.757c1.243.785 2.523 1.66 3.84 2.62 5.818 4.182 12.992 8.613 21.52 13.29.194.115 3.344 1.54 9.45 4.27l1.1.487c5.525 2.48 9.023 4.288 10.484 5.426.293.23.578.45.854.67-.263-.223-.547-.446-.854-.67 2.15.648 4.852 1.868 8.11 3.658 5.366 2.927 10.485 6.24 15.362 9.94.447.325 5.69 3.353 15.73 9.083 5.98 3.51 10.146 6.11 12.498 7.804-.03-2.815-.577-6.675-1.645-11.584-1.058-4.918-2.134-8.516-3.23-10.792-2.806-5-4.88-8.82-6.22-11.46-2.398-4.756-3.373-8.72-2.927-11.89.217-1.438-.88-2.84-3.285-4.206"/><path fill="#E12426" d="M284.594 445.54c-1.058.244-1.586.792-1.586 1.645 0 3.293-.04 5.874-.122 7.744-.12 1.867-.183 3.574-.183 5.12l.305 4.388c.04.325-.1 1.18-.427 2.562.042.61.346 1.057.916 1.342.57.324 1.403.487 2.5.487 1.625 0 4.877-.45 9.755-1.343.353-.07.698-.15 1.038-.243 2.188-.4 4.483-.826 6.888-1.28h8.537c3.942.69 6.706.427 8.292-.793l.365-.608c.568-.942.853-1.43.853-1.464 0-.365-.06-.65-.184-.853v-16.278c-.73-1.262-2.398-1.952-5-2.073-2.397-.122-5.77.224-10.12 1.036h-11.888c-5.244.08-8.557.284-9.938.61m-52.86-.488l-.61-.183h-12.802v.182c-1.058.04-2.337.162-3.84.366-1.383.16-2.156.244-2.318.244-1.83-.162-3.008-.223-3.536-.183-.77.08-1.158.69-1.158 1.828 0 .04.244.874.73 2.498.49 1.707.733 2.764.733 3.17 0 .176-.02.562-.06 1.16-.095 1.272-.276 3.445-.55 6.522 0 .04.02.937.062 2.683l.06.245c.034.118.055.22.062.305.546 1.382 1.684 2.072 3.415 2.072 2.154 0 3.922-.02 5.304-.06.813 0 2.295.06 4.45.183.122 0 3.82.284 11.096.854 4.593.364 8.78.547 12.56.547 1.156 0 1.97-.223 2.437-.67.1-.045.182-.105.243-.183.162-.244.244-.672.244-1.28-.616-2.734-1.124-5.13-1.524-7.194-.213-1.064-.396-2.04-.548-2.926.082-2.846-.06-5.04-.427-6.585-.732-2.928-2.662-4.086-5.792-3.476l-8.23-.122m-92.06-2.683c-2.16-.092-3.725.05-4.695.425-.04.485-.06.973-.06 1.465 0 .243.488 3.494 1.463 9.755.333 2.08.62 3.91.854 5.487.03.244.05.467.06.67v.06c.357.004 2.105.044 5.244.123.8.02 1.673.038 2.623.062 2.926.162 11.99 1.442 27.19 3.84.734 0 1.263-.203 1.586-.61.242-.28.364-.686.364-1.218 0-1.384-.183-3.478-.55-6.28-.028-.23-.07-.452-.12-.672-.285-2.482-.427-4.433-.427-5.853 0-2.925-.406-4.694-1.22-5.305-1.057-.77-3.758-.935-8.107-.487-11.97-.772-19.733-1.262-23.29-1.463-.07.023-.15.023-.244 0-.24.01-.463.01-.67 0m49.077-48.225c-2.723-.487-8.27-1.342-16.644-2.562-9.716-1.422-17.58-2.498-23.596-3.23-4.59-.722-8.392-1.25-11.4-1.585-.083-.007-.185-.027-.305-.062-.126.015-.268.015-.428 0-.448-.046-.895-.085-1.34-.122-2.44-.198-4.168-.218-5.184-.06-.448.056-.833.18-1.158.364.284 2.334.75 6.54 1.402 12.62.08.178.142.34.183.488l.122.244c.08.168.16.332.244.487.008.035.008.055 0 .062.052.085.092.145.123.183-.168.05-.33.09-.488.12.424 3.855.912 8.365 1.463 13.535.248 1.9.49 3.71.73 5.427v.06c.118.063.24.125.367.185l.122.06c.41.205 2.238.408 5.486.61.19.01.372.01.55 0 .478.053.986.093 1.523.123 3.943.243 6.667.364 8.17.364 4.593.205 11.645.854 21.156 1.95.894 0 1.423-.913 1.585-2.742v-2.987c.203-4.918.305-8.576.305-10.975 0-1.098-.69-1.767-2.072-2.012-3.862-.404-8.27-.974-13.23-1.706l-11.583-.182c-1.18 0-2.5-.082-3.963-.246h14.815c1.624.246 6.075.753 13.35 1.524 8.17.895 13.11 1.343 14.816 1.343l12.193-.183c.364-.04 3.82.202 10.363.73 2.693.212 4.908.396 6.645.548-1.16.082-2.44.123-3.84.123-.245 0-.61-.1-1.098-.304-.448-.203-.813-.305-1.098-.305-.244 0-.55.346-.914 1.038-.326.648-.488 1.097-.488 1.34 0 .57.162 1.89.488 3.964.284 2.07.427 3.575.427 4.51 0 .895.082 2.358.244 4.39 0 .936.08 1.607.243 2.013.284.57 1.423.995 3.414 1.28 2.44.284 5.466.144 9.084-.426h8.537c.162.038 1.38.222 3.658.547 2.6.367 4.938.55 7.01.55 2.683 0 4.29-.162 4.817-.488.284-.123.427-.61.427-1.465 0-1.097-.103-2.54-.306-4.327-.284-2.074-.487-3.64-.61-4.695.285-2.52.327-4.472.123-5.853-.056-.384-.138-.73-.244-1.036h7.377c.406.08.813-.062 1.22-.428.405-.325.61-.71.61-1.158 0-.066-.022-.148-.063-.243 5.97.722 11.173 1.33 15.608 1.83.406-.083.77-.327 1.097-.733.284-.365.427-.67.427-.914 0-.936-3.7-1.83-11.097-2.684-16.827-1.95-25.73-2.986-26.704-3.108-3.456-.487-10.752-1.442-21.888-2.866-9.428-1.22-16.36-2.193-20.79-2.925m200.278 56.822c-.118-1.6-.198-2.898-.244-3.904.122-2.193-.16-4.043-.853-5.546-.977-2.155-2.54-2.5-4.695-1.037l-10.67.122-.61.183-7.62.122c-3.616.405-5.913.812-6.89 1.22-.69.243-1.035.71-1.035 1.4 0 .245.103.733.305 1.465.204.73.306 1.22.306 1.462 0 .285-.102 1.403-.306 3.354-.163 2.074-.163 3.6 0 4.572.006.043.006.082 0 .123.29 1.85.353 3.576.183 5.182.01.09.01.173 0 .244-.005.108-.024.21-.06.304-.006.234-.025.458-.06.67.002.03.002.053 0 .062.224.813 1.687 1.22 4.388 1.22 7.764 0 13.596-.406 17.498-1.22 1.585-.325 2.905-.793 3.963-1.402.487-.243 2.052-.427 4.693-.548.637-.02 1.123-.283 1.463-.793l.366-.67c.12-.35.2-.775.244-1.28-.006-.053-.006-.112 0-.184-.003-.07-.003-.152 0-.244-.002-.035-.002-.096 0-.184v-.062c-.146-1.743-.268-3.287-.366-4.633m9.816-32.436c-5.405 0-8.78.163-10.12.488-1.016.204-1.524.772-1.524 1.707 0 .77.184 2.642.55 5.608.364 2.928.548 4.857.548 5.792 0 2.155-.06 4.31-.184 6.464.408 1.056 2.44 1.584 6.098 1.584.243 0 2.784-.428 7.62-1.28 4.505-.812 8.347-1.302 11.522-1.464.344.008.67.008.977 0 1.95-.04 3.576-.63 4.877-1.77.936-.81 1.443-1.583 1.523-2.315.074-.707.136-1.56.184-2.56.067-1.38.107-3.047.122-5V417.13c-.407-1.22-1.14-1.893-2.196-2.014-.812-.082-2.216.162-4.206.73-.102.03-.203.05-.305.063-6.128 1.747-11.29 2.62-15.487 2.62m22.74-25.666c-.08-1.464-.12-2.48-.12-3.048-.204-2.766-.306-4.817-.306-6.16-.203-1.34-.305-2.314-.305-2.925-.066-.478-.328-.843-.793-1.096-.92-.488-2.707-.426-5.365.183-.21.046-.434.087-.67.122-18.38 4.117-29.615 6.718-33.715 7.803-7.234 1.87-19.165 4.572-35.788 8.107-4.187.895-11.85 2.297-22.985 4.208-11.3 1.95-17.52 2.926-18.655 2.926-1.016-.082-1.668-.102-1.952-.06-.406.04-.61.385-.61 1.035 0 .438 1.158.885 3.476 1.34-3.493.61-6.58.957-9.268 1.037-2.887.04-4.857.143-5.914.305h-4.085c-.406-.61-.732-.914-.976-.914-.528 0-.894 1.564-1.097 4.695-.122 1.624-.204 3.312-.244 5.06l.305 5.67c.083 1.218.346 2.214.793 2.987.57.853 1.26 1.28 2.073 1.28 4.877.244 12.56.385 23.045.427 1.87 0 3.78-.305 5.732-.915.935-.284 1.747-.59 2.438-.914 1.585.082 2.662-.062 3.23-.428.408-.243.61-.69.61-1.34 0-.366-.183-1.484-.55-3.355-.406-1.87-.61-3.026-.61-3.475.407-2.56.61-4.084.61-4.572 0-2.155-.16-3.516-.486-4.084-.22-.4-.506-.746-.854-1.037 6.77-.4 16.566-1.112 29.386-2.135 2.138-.172 4.415-.354 6.828-.55-.325.318-.487.807-.487 1.465 0 .732.162 1.91.487 3.535.284 1.667.427 3.496.427 5.487 0 .366.042 1.16.124 2.378.08.935.08 1.665 0 2.193-.45 1.71.04 2.847 1.463 3.416 1.26.528 3.738.793 7.438.793 3.374 0 6.89-.53 10.547-1.587 3.617-1.058 6.748-1.585 9.39-1.585 1.666 0 2.702-.305 3.108-.914.162-.204.244-.732.244-1.585 0-1.017-.12-3.17-.365-6.465-.204-2.844-.267-4.937-.185-6.278 0-1.79-.04-2.765-.12-2.926-.154-.2-.356-.38-.61-.55 2.8-.202 5.686-.425 8.656-.67 3.252-.204 7.644-.67 13.17-1.4 3.06-.38 5.562-.747 7.5-1.1l4.694-1.34c.11-.028.19-.067.243-.122l.183-.184c.084-.106.166-.23.244-.366.387-.59.61-1.383.672-2.374M359.4 402.68h-.12c5.103-.416 10.73-.883 16.886-1.4-5.756 1.177-11.344 1.645-16.766 1.4m-4.084 20.85c-.406-1.057-.773-1.666-1.1-1.828-.324-.164-1.096-.122-2.315.122-4.795 1.057-10.16 1.584-16.094 1.584-7.683 0-12.397.144-14.145.428-1.138.203-1.706.75-1.706 1.646 0 .324.143 1.99.426 5 .326 2.967.47 4.673.428 5.12.04 4.716.182 7.337.426 7.865.61 1.463 2.684 2.195 6.22 2.195 1.544 0 6.503-.487 14.875-1.464 8.86-1.017 13.352-1.747 13.473-2.194.285-.732.447-1.81.488-3.23-.04-1.384-.06-2.217-.06-2.5 0-.57-.143-2.033-.428-4.39-.325-2.398-.486-3.74-.486-4.025v-4.33m-94.926.49l-10.974.12c-2.44.244-4.125.63-5.06 1.16-.692.404-1.037.995-1.037 1.767 0 .04.243.692.73 1.952.447 1.218.67 2.01.67 2.375 0 .244.082 1.363.244 3.354.162 2.112.223 3.72.183 4.815-.162 3.293.06 5.305.67 6.036 1.017 1.22 3.66 1.586 7.926 1.1l8.475.06 1.402.122c.488 0 .935-.042 1.34-.123l15.243-.183c1.097-1.016 1.728-2.46 1.89-4.328v-4.513c.447-5.65.67-8.718.67-9.206 0-.69-.06-1.178-.183-1.463-.365-.77-1.158-1.24-2.377-1.4l-8.535-.123c-6.706-1.1-10.465-1.608-11.278-1.525m-78.77-.43c-4.105-.2-6.727-.304-7.864-.304-1.707.04-2.56.67-2.56 1.89 0 .814.183 2.095.548 3.843.366 1.867.59 3.757.67 5.668.04.935.022 2.562-.06 4.877.162 2.073 1.015 3.64 2.56 4.695h9.754c.976-.205 3.882.04 8.72.73 5.404.732 8.8 1.1 10.18 1.1 2.074 0 3.375-.51 3.903-1.525.123-.245.184-.875.184-1.89 0-1.06-.183-2.4-.55-4.024v-11.706c-1.584-1.91-3.495-2.843-5.73-2.803-4.55.163-7.742.082-9.57-.244l-10.183-.305z"/><path fill="#BE2026" d="M137.297 460.232v-.062.062m-2.804-13.96c.017.038.038.08.06.12.416.982.72 2.06.916 3.23.12.65.16 1.566.12 2.745-.04 1.3-.04 2.214 0 2.743.047.34.148.768.306 1.28.128.438.29.927.488 1.464.162.568.386 1.037.67 1.4.072.096.133.176.184.246-.236-1.576-.52-3.406-.854-5.487-.975-6.26-1.463-9.512-1.463-9.755 0-.49.022-.98.063-1.465-.195.11-.377.21-.55.305-.365.3-.547.662-.547 1.1-.003.53.2 1.22.607 2.073m-15.12-7.985c-.446-1.14-1.3-1.93-2.56-2.38-5.244-1.015-8.25-1.543-9.023-1.583-1.79-.122-2.682.386-2.682 1.523 0 1.098.162 2.865.487 5.304.13.942.23 1.795.305 2.56l.427 6.706c.028.157.05.3.06.428.135.49.277.938.428 1.342.162.407 1.14.792 2.926 1.157 2.114.367 3.294.61 3.537.73.326.164 1.078.63 2.256 1.403 1.138.65 2.073.977 2.805.977.606 0 1.113-.245 1.524-.732.328-.363.593-.89.792-1.583.284-.977.427-2.074.427-3.293 0-.53-.082-1.463-.243-2.805-.064-.796-.165-1.75-.305-2.865-.326-2.724-.528-4.187-.61-4.39-.123-1.016-.305-1.85-.55-2.5m10.914-37.19c-.528.25-.792.698-.792 1.34 0 1.992.51 6.037 1.524 12.134.122.65.122 1.685 0 3.108.053.806.358 1.456.914 1.95.16.178.343.32.55.428-.24-1.716-.485-3.526-.732-5.427-.552-5.17-1.04-9.682-1.464-13.535m-52.98 29.264c0 .444.163 2.05.487 4.814.177 1.29.38 2.814.61 4.572.082.528.02 1.342-.183 2.438.284.936 1.688 1.586 4.207 1.952.608.072 1.603.334 2.987.792 1.805.636 4.243 1.592 7.316 2.865.527 0 .935-.225 1.22-.67.07-.13.133-.27.182-.426.082-.227.122-.473.122-.732 0-.854-.265-2.887-.793-6.098-.03-.187-.07-.37-.12-.55-.383-2.315-.688-4.002-.915-5.06-.204-1.18-.65-2.112-1.34-2.803-1.18-1.18-3.15-1.872-5.915-2.074-4.064-1.018-6.482-1.422-7.255-1.22-.406.126-.61.86-.61 2.2M27.312 417.8c0 .608.164 1.808.488 3.598.07.33.13.634.183.914.236 1.315.337 2.35.305 3.108 0 1.586.528 2.945 1.585 4.086.917.96 2.198 1.67 3.84 2.133l-.06-.062c.372.12.738.222 1.097.305l3.78.366c.078-.002.14-.002.183 0h.366c.77 0 1.258-.407 1.462-1.22.042-.204.062-.753.062-1.647v-.305l-.062-1.158c-.05-.378-.112-.805-.183-1.28-.074-.594-.177-1.245-.306-1.95-.244-1.258-.448-2.275-.61-3.05.162-.227.244-.552.244-.975 0-2.804-.63-4.207-1.89-4.207-.372.012-.697.114-.976.305-.955-.62-2.194-1.13-3.72-1.524-.055.014-.115.014-.182 0-3.738-.853-5.608-.002-5.608 2.56m36.947 5.913c-.45-.568-1.912-1.016-4.39-1.342-2.846-.73-4.838-1.016-5.976-.852-1.016.122-1.524.63-1.524 1.524 0 .324.264 1.665.792 4.023-.032.722.01 1.737.122 3.05.04.29.06.576.06.853.037.074.057.136.062.184 0 .283-.082 1.035-.244 2.255-.122 1.26-.1 2.194.06 2.805.205.69 1.73 1.504 4.574 2.438 2.468.81 4.602 1.256 6.4 1.342l.855.06c.977 0 1.465-.712 1.465-2.134 0-.407-.184-1.462-.55-3.17l-.243-1.157c-.05-.314-.112-.6-.183-.853h.06c-.1-.447-.162-.713-.183-.793-.69-3.21-1.036-5.283-1.036-6.22 0-1.218-.04-1.888-.12-2.01m-6.586-45.726c-3.698-1.016-6.585-1.75-8.657-2.195-3.414-.69-8.25-1.32-14.51-1.89-1.076-.285-2.07-.53-2.988-.73-3.66-.814-6.057-.977-7.195-.49h-.062c-.07.05-.15.112-.243.185-.448.414-.67 1.268-.67 2.56 0 1.3.163 2.724.487 4.268.374 1.74.903 2.92 1.585 3.536-.33.17-.595.395-.792.672-.244.325-.366 1.117-.366 2.377 0 .49.102 2.906.305 7.257l-.062 3.658c.045.584.31 1.092.792 1.523h.06c1.22-.025 2.847.24 4.88.792.27.076.536.158.79.245.222-.082.405-.123.55-.123h.853c1.017.07 1.75.232 2.194.487.57.284 1.078.427 1.524.427.855 0 1.363-.61 1.525-1.83v-2.377c-.24-2.66-.405-4.875-.488-6.645l-.06-2.134v-.245c.037-1.08-.532-1.937-1.708-2.56 2.557.373 5.443.82 8.656 1.34 4.186.69 9.532 1.564 16.035 2.622 1.977.282 8.297 1.38 18.96 3.293 4.72.837 10.267 1.832 16.645 2.987.507.09.996.172 1.463.243l9.633 1.708c-2.442-.076-4.252.312-5.426 1.158.015.06.015.123 0 .182.23.867.412 1.78.55 2.744l.304 2.195c.167 1.625.267 3.37.305 5.243 0 2.438.406 4.105 1.22 5 1.138 1.26 4.734 2.538 10.79 3.84.733 0 1.22-.264 1.464-.792.037-.085.058-.187.06-.305.076-.245.116-.57.123-.977v-.12c0-.814-.284-2.604-.854-5.366-.528-2.6-.73-4.39-.61-5.365.204-1.422.082-3.252-.365-5.487-.178-.298-.544-.562-1.097-.792 7.62 1.3 11.847 1.95 12.682 1.95h.122c.578-.015 1.026-.136 1.34-.365.214-.1.376-.242.49-.426.163-.326.243-.793.243-1.402 0-1.708-.183-3.617-.55-5.73.224.655.608 1.02 1.16 1.098.137 1.776.524 3.664 1.158 5.67.126.403.246.77.366 1.097-.042-.147-.103-.312-.183-.488-.65-6.08-1.117-10.287-1.4-12.62-.16.124-.3.245-.428.366-.506.58-.77 1.435-.792 2.56v1.524c-.33-2.08-.513-3.16-.55-3.23-.61-1.79-1.747-2.357-3.413-1.71l-10.364-.18c-13.9-1.952-24.57-3.477-32.008-4.573-13.573-1.953-21.398-3.172-23.47-3.66m69.32 41.763c-1.138-.812-2.967-1.463-5.488-1.95-2.226-.445-3.647-.283-4.268.487-.204.282-.306.648-.306 1.098 0 .324.143.934.427 1.83.245.893.367 1.523.367 1.89 0 1.99.244 4.937.73 8.84.245 2.276.672 3.8 1.28 4.572.39.495 1.465 1.044 3.232 1.646 1.57.526 3.683 1.095 6.34 1.706 1.016 0 1.524-.772 1.524-2.316 0-.284-.204-2.013-.61-5.183-.406-3.292-.71-5.528-.914-6.705-.285-1.83-.448-2.866-.488-3.11-.365-1.18-.975-2.116-1.828-2.805m-24.51-5.182c-.487-.732-1.483-1.2-2.987-1.4-2.804-.327-4.247-.51-4.328-.55-3.132-.61-4.695-.184-4.695 1.28 0 .568.203 1.93.61 4.084.406 2.195.608 3.842.608 4.94 0 1.95.183 3.84.55 5.668.163.732.324 1.22.487 1.464.406.568 1.118.955 2.134 1.157l9.145 1.952c1.015 0 1.523-.65 1.523-1.95 0-.447-.244-2.135-.73-5.06-.45-2.806-.813-4.838-1.1-6.098-.12-1.26-.222-2.194-.304-2.805-.163-1.137-.467-2.03-.915-2.682m-37.92 6.22c0 .648.06 1.097.182 1.34.406.69 1.32 1.382 2.743 2.072.122.04 1.098.488 2.927 1.343 1.95.812 3.313 1.22 4.085 1.22 1.016 0 1.524-.59 1.524-1.77 0-.203-.143-.61-.427-1.22-.245-.65-.387-1.117-.428-1.402-.365-1.46-.548-2.437-.548-2.925 0-1.95-.143-3.9-.427-5.853-.488-3.822-1.3-5.73-2.44-5.73-.243 0-.466.1-.67.305-.203.203-.447.305-.73.305-1.667-.77-3.01-1.342-4.024-1.706-1.91-.652-2.865.14-2.865 2.377-.002.082.364 3.962 1.096 11.644m-23.046-2.437c1.463.486 4.35.995 8.657 1.523.894 0 1.423-.752 1.585-2.256v-2.805c0-4.39-.406-7.378-1.22-8.962-1.544-3.09-4.855-4.45-9.937-4.085-.813-.692-1.382-.835-1.708-.428-.162.245-.243.61-.243 1.098 0 1.34.345 4.37 1.037 9.084 0 1.706.06 3.23.182 4.572.244 1.26.793 2.012 1.646 2.258m20.424-25.425c.122-1.058.1-1.85-.062-2.378-.284-.975-1.26-1.605-2.926-1.89-4.348-.813-7.01-1.26-7.986-1.342-1.22-.122-1.83.345-1.83 1.402 0 .52.103 1.556.306 3.11l.183 1.28c.284 2.316.427 3.88.427 4.694 0 1.343.204 2.867.61 4.573.285 1.3 1.93 2.316 4.938 3.05 2.155.526 4.146.79 5.975.79.813 0 1.32-.528 1.524-1.584.043-.285.063-1.038.063-2.257 0-.69-.204-2.378-.61-5.06l-.61-4.388m12.863-1.22c-.77.487-1.16.995-1.16 1.525 0 .306.042 1.73.123 4.268.07 1.5.153 3.39.243 5.67 0 .57-.04 1.42-.122 2.56-.04 1.017 0 1.83.123 2.44.204.853 1.99 1.422 5.365 1.705 1.79.245 3.17.428 4.146.55.204.04 1.443.468 3.72 1.28h1.83c.568-.203.913-.468 1.035-.793.04-.123.06-.508.06-1.158 0-.896-.223-2.52-.67-4.878-.23-1.207-.416-2.184-.55-2.927-.18-.953-.28-1.523-.304-1.706.04-1.096.06-1.93.06-2.498 0-.937-.283-1.708-.853-2.317-1.504-1.708-5.853-2.947-13.047-3.72"/><path fill="#CCCBCB" d="M86.756 393.9c-.99-.203-3.552-.834-7.683-1.89-10.663-1.913-16.983-3.01-18.96-3.293-6.503-1.058-11.847-1.93-16.033-2.622-3.214-.518-6.1-.965-8.658-1.34 1.175.623 1.745 1.477 1.707 2.56v.245l.06 2.134c.084 1.77.247 3.985.49 6.646v2.377c-.164 1.22-.672 1.83-1.524 1.83-.447 0-.956-.142-1.524-.428-.448-.256-1.18-.418-2.197-.49H31.583c-.146 0-.328.044-.55.124-.255-.085-.518-.167-.792-.244-2.03-.553-3.657-.817-4.876-.793v3.415c0 6.992.61 12.784 1.83 17.375.27 1.023.536 1.958.79 2.805-.05-.28-.112-.584-.182-.914-.325-1.787-.486-2.988-.486-3.598 0-2.56 1.87-3.414 5.607-2.56.067.014.128.014.185 0 1.524.395 2.764.902 3.717 1.523.278-.19.604-.293.976-.305 1.26 0 1.89 1.403 1.89 4.206 0 .424-.08.748-.243.977.164.773.366 1.79.61 3.05.13.707.23 1.356.304 1.95.072.476.135.903.185 1.28l.06 1.158v.305c0 .896-.02 1.443-.06 1.646-.202.813-.69 1.22-1.463 1.22h-.55l-3.78-.366c-.36-.083-.725-.184-1.097-.305l.062.06c2.486 1.744 5.8 3.023 9.937 3.84 2.49.51 7.246 1.59 14.267 3.232-.023-.02-.064-.04-.12-.062-2.846-.935-4.37-1.747-4.572-2.438-.164-.61-.185-1.545-.063-2.804.164-1.22.244-1.972.244-2.257-.005-.046-.027-.106-.062-.18 0-.278-.022-.563-.062-.856-.113-1.31-.155-2.325-.122-3.048-.527-2.356-.792-3.697-.792-4.022 0-.895.51-1.402 1.524-1.524 1.138-.163 3.13.122 5.975.853 2.48.326 3.945.774 4.39 1.34.083.124.123.795.123 2.014 0 .936.347 3.008 1.038 6.22.02.08.08.347.182.792h-.06c.07.253.132.538.183.853l.242 1.158c.367 1.71.55 2.765.55 3.17 0 1.424-.487 2.135-1.464 2.135l-.852-.06c-.268.01-.552-.01-.854-.062 1.62.39 3.328.798 5.123 1.22 6.374 1.494 12.023 2.754 16.947 3.78-1.382-.458-2.38-.722-2.988-.794-2.52-.366-3.923-1.017-4.206-1.952.202-1.098.263-1.91.182-2.438-.228-1.758-.432-3.282-.61-4.572-.324-2.765-.486-4.37-.486-4.815 0-1.342.203-2.074.61-2.196.77-.203 3.19.204 7.253 1.22 2.764.203 4.736.896 5.914 2.073.69.69 1.138 1.625 1.342 2.804.226 1.058.53 2.744.913 5.06.05.18.09.364.124.55.528 3.212.792 5.243.792 6.096 0 .264-.042.508-.123.732.393.093.778.173 1.16.244.48.097 4.178 1.398 11.095 3.9-.013-.125-.034-.27-.062-.426l-.427-6.706c-.073-.764-.174-1.617-.305-2.56-.324-2.44-.488-4.207-.488-5.305 0-1.14.895-1.647 2.685-1.524.77.04 3.778.568 9.02 1.583 1.262.447 2.115 1.24 2.563 2.38.242.647.425 1.482.547 2.497.082.205.285 1.667.61 4.39.14 1.117.24 2.072.304 2.866.163 1.342.243 2.275.243 2.804 0 1.22-.142 2.317-.427 3.294-.2.692-.463 1.222-.792 1.584 6.056 2.155 9.612 3.23 10.67 3.23 2.48 0 3.942-1.358 4.39-4.083v-5.485c0-.655-.042-1.407-.123-2.256-.062-.244-.145-.488-.243-.733-.022-.043-.042-.082-.06-.123-.407-.852-.61-1.544-.61-2.07 0-.436.182-.803.548-1.1.013-.04.013-.102 0-.183-.145-1.248-.328-2.63-.55-4.145-.675-4.68-1.69-10.513-3.047-17.498-1.676-8.632-3.016-14.83-4.023-18.595.297-.803.5-1.8.61-2.986-.317.23-.764.35-1.34.365h-.125c-.835 0-5.06-.65-12.68-1.95.55.23.917.495 1.096.793.447 2.235.57 4.063.365 5.487-.12.976.083 2.765.61 5.365.57 2.764.855 4.553.855 5.365v.12c-.006.41-.048.732-.122.977-.004.118-.024.22-.06.305-.246.53-.733.792-1.465.792-6.055-1.3-9.652-2.58-10.79-3.84-.813-.895-1.22-2.562-1.22-5-.037-1.87-.14-3.617-.306-5.242l-.305-2.195c-.138-.963-.32-1.877-.547-2.744.013-.06.013-.12 0-.184 1.173-.846 2.98-1.23 5.424-1.157l-9.633-1.708c-.207-.02-.43-.06-.668-.122-4.58-.408-7.83-.814-9.756-1.223m-13.107-.67c0-.528.384-1.037 1.155-1.524 7.195.773 11.544 2.012 13.048 3.72.57.61.854 1.38.854 2.317 0 .568-.02 1.4-.062 2.498.023.185.125.753.305 1.708.136.743.32 1.72.55 2.927.446 2.358.67 3.983.67 4.878 0 .65-.02 1.035-.06 1.157-.124.326-.47.59-1.04.793h-1.828c-2.275-.813-3.515-1.238-3.72-1.28-.975-.122-2.355-.305-4.145-.55-3.372-.282-5.16-.852-5.365-1.706-.122-.61-.162-1.422-.122-2.44.082-1.136.122-1.99.122-2.56-.09-2.278-.172-4.17-.244-5.67-.08-2.54-.12-3.96-.12-4.268m-11.767-2.683c.163.53.185 1.322.062 2.377l.61 4.39c.405 2.684.61 4.37.61 5.06 0 1.22-.02 1.973-.062 2.258-.202 1.057-.71 1.584-1.524 1.584-1.83 0-3.82-.264-5.975-.793-3.007-.73-4.652-1.746-4.937-3.048-.406-1.706-.61-3.23-.61-4.573 0-.812-.14-2.376-.426-4.693-.064-.46-.127-.887-.183-1.28-.204-1.555-.305-2.59-.305-3.11 0-1.058.61-1.524 1.828-1.402.976.082 3.64.528 7.987 1.34 1.666.283 2.64.912 2.926 1.89M50.177 419.87c-4.31-.527-7.195-1.037-8.658-1.524-.854-.244-1.4-.994-1.646-2.256-.122-1.342-.183-2.865-.183-4.573-.69-4.714-1.038-7.743-1.038-9.084 0-.488.082-.854.246-1.098.325-.406.893-.265 1.706.426 5.08-.364 8.394.997 9.938 4.086.813 1.585 1.22 4.572 1.22 8.963v2.803c-.164 1.503-.693 2.256-1.586 2.256m14.57 2.257c-.12-.247-.183-.692-.183-1.343-.73-7.682-1.097-11.564-1.097-11.645 0-2.235.957-3.028 2.867-2.38 1.016.367 2.357.937 4.022 1.708.285 0 .528-.1.73-.305.205-.203.43-.305.672-.305 1.14 0 1.95 1.91 2.438 5.73.286 1.952.427 3.902.427 5.853 0 .488.183 1.465.55 2.927.04.286.182.753.426 1.403.285.61.426 1.017.426 1.22 0 1.178-.507 1.767-1.524 1.767-.77 0-2.134-.405-4.084-1.22-1.83-.853-2.805-1.3-2.927-1.34-1.422-.69-2.337-1.38-2.744-2.07m34.75-8.964c1.506.203 2.502.67 2.99 1.4.447.653.75 1.547.913 2.685.08.61.182 1.546.304 2.805.285 1.262.65 3.293 1.097 6.096.49 2.93.733 4.617.733 5.063 0 1.302-.508 1.95-1.524 1.95l-9.147-1.95c-1.016-.204-1.728-.59-2.134-1.157-.163-.246-.325-.732-.487-1.465-.367-1.828-.55-3.717-.55-5.67 0-1.095-.203-2.742-.61-4.937-.406-2.153-.61-3.516-.61-4.084 0-1.466 1.567-1.893 4.695-1.282.082.04 1.525.223 4.33.548m22.01 4.633c2.52.487 4.348 1.138 5.487 1.95.853.69 1.462 1.626 1.83 2.805.04.243.202 1.28.485 3.11.204 1.178.51 3.413.915 6.705.406 3.17.61 4.897.61 5.183 0 1.544-.51 2.315-1.525 2.315-2.656-.612-4.77-1.18-6.34-1.706-1.766-.603-2.844-1.15-3.232-1.646-.61-.77-1.037-2.296-1.28-4.572-.488-3.9-.732-6.848-.732-8.84 0-.365-.122-.996-.366-1.89-.284-.894-.426-1.504-.426-1.83 0-.45.102-.813.305-1.097.618-.77 2.04-.933 4.268-.488m-4.573-154.126l-.672.123c-.197.087-.422.148-.67.182-10.34 2.72-21.496 5.017-33.47 6.89-2.846.447-6.87 1.34-12.072 2.682-8.574 2.195-14.814 3.74-18.716 4.634-3.495 1.302-6.87 2.48-10.12 3.536-5.096 1.698-8.956 2.714-11.584 3.05-.643.08-1.212.12-1.706.12-3.008 0-4.98.367-5.915 1.098-.4.293-.705.74-.916 1.342-.162.558-.244 1.248-.244 2.072 0 .895.122 3.008.368 6.34.282 3.7.568 6.69.852 8.963v29.264c.53 5.165.896 15.08 1.098 29.754.192 3.582.478 6.63.853 9.146.095-.072.176-.134.246-.184h.06c1.138-.488 3.536-.324 7.194.488.917.203 1.913.445 2.987.73 6.26.57 11.098 1.2 14.51 1.89 2.074.448 4.96 1.18 8.658 2.195 2.073.486 9.897 1.706 23.472 3.656 7.44 1.1 18.11 2.623 32.008 4.573l10.364.182c1.666-.65 2.804-.08 3.413 1.708.037.073.22 1.15.55 3.23v-1.522c-.094-9.612-.825-20.81-2.195-33.594-1.504-13.656-2.255-27.232-2.255-40.727.1-.954.18-1.87.242-2.744.65-6.14.978-9.654.978-10.547 0-1.346-.103-2.93-.305-4.754-.134-1.444-.337-3.05-.61-4.818-.61-3.9-.915-7.335-.915-10.303.314-3.042.56-5.583.73-7.62.325-3.157.49-5.048.49-5.67 0-2.762-.408-4.49-1.22-5.182-.856-.69-2.685-.75-5.488-.184M60.357 207.22c-.08.708-.12 1.44-.12 2.194l.18 8.657c.488 6.017 1.708 9.024 3.66 9.024 1.748 0 8.107-.996 19.082-2.987 11.095-2.032 17.944-3.476 20.545-4.33 3.21-1.07 5.873-1.963 7.987-2.682-.89-1.576-1.763-3.405-2.622-5.487-.085-.267-.167-.53-.243-.793-2.602-8.09-3.902-12.175-3.902-12.254 0-1.737.244-2.957.733-3.657-.135-.766-.236-1.62-.305-2.56.04-2.332.062-4.405.06-6.22l.122-5.182v-.914c-.984.353-1.552.536-1.706.55-17.072 2.234-31.197 3.922-42.373 5.06-2.318.406-3.64.936-3.963 1.585v3.415c0 5.203.467 9.328 1.4 12.376.225.767.67 2.455 1.343 5.06.04-.264.08-.55.12-.85m146.81-70.418c.208 0 .41-.02.61-.06 1.137-1.246 1.705-2.83 1.705-4.757v-.183c-.014-.237-.054-.542-.122-.914-.084-.36-.207-.787-.364-1.28-12.268.188-21.74.676-28.412 1.463 2.174 3.577 4.634 6.138 7.378 7.683 3.865-.51 8.296-.978 13.29-1.403l5.915-.548m203.75 121.325c-.24-.4-.972-1.05-2.194-1.95-2.35-1.693-6.517-4.294-12.5-7.805-10.037-5.73-15.28-8.76-15.728-9.084-4.877-3.698-9.998-7.01-15.363-9.938-3.258-1.79-5.96-3.008-8.11-3.658.31.224.593.447.855.67-.276-.218-.562-.44-.854-.67-1.46-1.138-4.957-2.947-10.486-5.427l-1.097-.487c-6.107-2.73-9.257-4.152-9.45-4.268-8.53-4.68-15.703-9.108-21.52-13.29-1.318-.962-2.6-1.836-3.842-2.622l-9.023-4.756c-.162-.03-.326-.07-.488-.122-.048-.023-.107-.045-.183-.06-.03-.026-.07-.045-.122-.062-.113-.03-.235-.072-.364-.122-3.522-.948-6.977-2.45-10.364-4.51-3.34-2.07-6.184-3.674-8.535-4.818-2.522-1.707-4.615-2.926-6.282-3.658l-.305-.122c-.11-.046-.233-.087-.366-.122h.062c-.515-.193-1.042-.337-1.586-.427-2.318-.4-4.778.19-7.375 1.767-.96.585-1.913 1.174-2.868 1.768-.313.19-.638.373-.975.548-23.394 14.257-46.438 27.608-69.137 40.056-.057.03-.118.05-.182.06-.323.205-.668.388-1.038.55-10.257 5.566-19.34 10.484-27.252 14.753-.134.093-.277.174-.427.244-.37.2-.757.405-1.156.61-.236.128-.48.25-.733.365-2.323 1.265-4.537 2.463-6.645 3.597-19.062 10.363-28.592 15.75-28.592 16.155.007.065.028.126.06.184.126.215.37.498.73.852.695.032 1.69.092 2.99.184h.06c.688.078 1.46.16 2.316.243 4.186 0 12.58-.508 25.178-1.525 12.844-1.015 20.85-1.83 24.02-2.44l32.132-.304c8.29-.364 33.348-1.99 75.17-4.876 11.666-.405 19.186-.06 22.56 1.037 3.333 1.06 10.65 1.384 21.947.977h19.51l1.22.305 29.873.305c6.584 2.236 10.467 3.334 11.646 3.292.97 0 3.266-.245 6.89-.733h.852c.19.014.35.014.49 0 2.1.166 3.706.653 4.813 1.464.035-.092.056-.19.063-.304l.853-1.524c.297-.284.58-.386.85-.305m-18.838-90.963c-.04-2.235-.102-3.882-.182-4.938-.164-1.91-.61-3.313-1.342-4.207-.977-1.22-3.963-2.44-8.963-3.66-6.054-1.34-10.384-2.395-12.985-3.17-1.828-.567-10.363-2.478-25.605-5.73-14.957-3.21-24.447-5.466-28.473-6.767-7.926-.732-19.528-3.17-34.81-7.316-4.513-1.26-7.602-1.83-9.27-1.707-.17.016-.332.037-.485.06 2.153.586 3.23 2.01 3.23 4.27 0 1.992-.244 5.202-.732 9.633-.528 5-.833 8.13-.914 9.39v19.325c.563 5.284 2.026 7.926 4.39 7.926.75 0 2.01.143 3.78.427 3.887.178 9.394 1.112 16.522 2.806 1.79.447 8.496 2.195 20.12 5.243 7.967 2.072 13.82 3.413 17.56 4.022 3.74 1.18 9.55 2.5 17.437 3.963 4.47.813 11.258 2.033 20.363 3.658.072.015.134.015.182 0 .094.036.175.055.243.06.073.016.134.016.185 0 .423.103.83.185 1.22.245.188.06.372.102.547.122l15.975 4.695c.5.27.947.516 1.34.73.315-1.847.54-4.042.67-6.583v-14.205c.242-8.213.242-14.31-.002-18.293"/><path fill="#F3F3F3" d="M59.564 229.594c-1.544.732-3.048 2.235-4.51 4.512-.652 1.016-2.114 2.845-4.39 5.487-2.196 2.48-3.517 4.146-3.964 5-1.99 3.658-7.032 11.89-15.12 24.692-6.99 11.055-10.486 16.866-10.486 17.435v.61c.21-.6.515-1.047.915-1.342.935-.73 2.905-1.098 5.913-1.098.495 0 1.064-.04 1.707-.12 2.627-.335 6.49-1.352 11.583-3.05 3.252-1.057 6.625-2.236 10.12-3.536 3.902-.894 10.142-2.438 18.717-4.632 5.203-1.342 9.227-2.236 12.07-2.685 11.977-1.872 23.133-4.167 33.472-6.89.25-.036.472-.095.67-.18l.67-.124c2.805-.57 4.634-.508 5.488.183.813.69 1.22 2.418 1.22 5.182 0 .623-.163 2.513-.488 5.67.13.04.253.063.366.063.493 0 .94-.08 1.34-.244.123-4.18.184-7.188.184-9.022 0-.858.1-1.55.305-2.073-.243-.79-.507-1.644-.792-2.56-.462-.394-.81-.963-1.037-1.707-.143-1.11-.244-1.862-.305-2.255-.24-.73-.506-1.503-.793-2.317-3.13-8.86-4.694-13.31-4.694-13.35-.854-5.448-1.83-10.325-2.926-14.633-.055-.253-.116-.497-.183-.732.12-.022.223-.044.305-.06-.015-.107-.035-.21-.06-.306-.593-2.213-1.1-4.144-1.525-5.793-.102-.148-.224-.31-.365-.488-3.294.635-7.52 1.427-12.682 2.377-9.633 1.707-16.583 2.866-20.85 3.476-9.958 1.423-16.583 2.926-19.876 4.51M273.194 134c0-2.26-1.077-3.684-3.232-4.268-1.68-.448-4.02-.387-7.01.183-7.52 2.195-11.97 3.333-13.353 3.415-19.432 1.588-33.374 2.726-41.824 3.414-.198.04-.4.06-.61.062l-5.914.55c-4.995.423-9.424.89-13.29 1.4-2.772.363-5.252.75-7.44 1.16-12.884 2.48-21.724 3.84-26.52 4.085-6.137.364-10.385 1.096-12.742 2.193-2.683 1.26-4.938 2.012-6.767 2.256-1.097.12-3.76.75-7.987 1.89-4.308 1.22-6.788 1.91-7.438 2.072-6.788 1.463-10.832 2.337-12.133 2.622-1.463.366-2.195 1.077-2.195 2.134 0 2.683.142 5.873.427 9.572.243 3.7.365 7.763.365 12.193v2.013l-.122 5.183c0 1.814-.02 3.887-.06 6.22.066.94.17 1.792.304 2.56.09-.112.193-.214.305-.305.77-.61 2.865-1.098 6.278-1.464.33-.035.654-.075.976-.123 20.923-2.137 36.348-3.987 46.274-5.547.08 0 7.764-.67 23.045-2.012 15.892-1.383 25.89-2.337 29.996-2.865 3.128-.406 8.068-1.34 14.814-2.804 3.74-.814 10.995-1.464 21.765-1.952 5.87-.527 11.013-.466 15.424.183.13.024.252.045.366.062l.67.122c.05.008.088.008.122 0 .315.07.6.132.853.183.054.006.094.006.122 0 .038.028.078.048.122.062.764.15 1.475.313 2.133.486.042.032.083.053.122.06.034.012.055.012.06 0 .106.047.188.088.245.123.597.175 1.146.356 1.646.548.188.098.372.18.548.244V153.02c.082-1.26.386-4.39.915-9.39.49-4.43.733-7.64.733-9.632"/><path fill="#fff" d="M292.092 62.667c6.585-1.79 15.04-3.902 25.363-6.34 7.642-2.033 12.965-4.29 15.973-6.768 3.74-3.01 5.61-7.337 5.61-12.987 0-14.266-7.134-20.607-21.4-19.022-10.323 1.1-27.07 7.135-50.237 18.108-11.745 5.447-26.824 13.23-45.236 23.35-25.73 14.146-38.593 23.025-38.593 26.644 0 1.26.225 2.134.672 2.62.284.286.67.632 1.158 1.038-.65.243-1.097.468-1.34.67l-.185.244c-3.292-.772-5.608-.833-6.95-.183-1.057.53-1.585 1.546-1.585 3.05l.915 1.645c.935 1.382 2.155 2.825 3.658 4.33-.487.08-1.32.59-2.5 1.523-1.463 1.18-2.56 2.398-3.29 3.658.163.447.792.996 1.89 1.646 1.016.61 2.01 1.08 2.986 1.403-2.4.243-3.924.954-4.574 2.134-.204.405-.305 1.157-.305 2.254 0 3.78 1.424 8.82 4.27 15.12.702 1.565 1.435 2.987 2.194 4.268 6.673-.787 16.143-1.275 28.41-1.463.16.492.28.92.367 1.28-.272-1.32-.943-3.354-2.01-6.098-1.424-3.698-2.135-6.646-2.135-8.84 0-6.463.752-11.38 2.256-14.754 1.504-3.373 4.23-6.24 8.17-8.597 2.927-1.747 8.374-4.206 16.34-7.375 11.665-4.552 20.525-8.17 26.58-10.853 10.365-4.552 21.543-8.453 33.532-11.705M189.058 285.44c-7.56 0-18.25-.306-32.068-.915-12.274-.61-18.452-.914-18.534-.914-3.536 0-5.832 1.28-6.89 3.842-.406.976-.61 2.643-.61 5 0 5.567 1.08 10.83 3.232 15.79 3.292 7.6 8.475 11.686 15.546 12.254H191.8c6.098-.61 19.877-1.118 41.337-1.524.285 0 3.088.184 8.413.55 4.633.282 8.474.345 11.522.183 9.715-.57 14.836-3.558 15.364-8.963.406-4.472.61-8.435.61-11.89.326-3.982.082-7.497-.732-10.546-1.665-6.016-5.426-7.683-11.28-5-36.984 1.423-59.644 2.133-67.976 2.133m228.87-12.07c-1.257-.108-2.436-.07-3.534.12.116 1.152.22 2.332.305 3.537-.016-.283-.037-.567-.063-.854-1.93.05-7.05.516-15.362 1.4-8.82.896-18.717 1.343-29.69 1.343-4.025 0-8.294-.346-12.804-1.037-4.552-.732-8.433-1.098-11.645-1.098-1.22 0-3.88.203-7.986.61-4.31.445-6.768.79-7.378 1.035-1.707-4.186-3.555-4.836-5.547-1.95-1.707 2.478-2.562 4.856-2.562 7.133 0 1.504.083 4.004.244 7.5.244 4.673.53 8.27.854 10.79.162 1.015.387 2.66.67 4.937.407 1.91 1.2 3.312 2.378 4.207 1.18.895 4.96 2.134 11.34 3.72 5.203 1.258 8.984 1.99 11.34 2.195v.06c0 .365 1.504.284 4.512-.244 4.918-.937 8.496-1.524 10.73-1.77 2.316-.16 5.67-.344 10.06-.548 6.22-.324 10.587-.487 13.108-.487 3.21 0 7.193.286 11.95.855 4.16.115 9.098-.82 14.813-2.805 1.16 1.36 2.177 2.053 3.05 2.072-.016-.365-.057-.73-.122-1.096.458.04.926.06 1.402.06 4.552 0 7.663-4.633 9.328-13.9.57-2.966.935-6.26 1.1-9.876.08-1.585.12-3.314.12-5.183 0-3.21-1.098-5.812-3.293-7.804-1.99-1.745-4.43-2.722-7.317-2.924"/><path d="M272.583 128.145c-3.942-.446-10.852-.1-20.73 1.037-11.582 1.423-19.407 2.358-23.47 2.804-9.634 1.098-24.57 3.07-44.812 5.914-8.494 1.26-22.883 4.023-43.164 8.292-10.272 2.158-22.934 4.88-37.982 8.17.322 2.924 3.696 3.677 10.12 2.255 6.464-1.375 12.58-2.716 18.352-4.024 5.77-1.265 11.075-2.647 15.913-4.146 6.054-1.3 12.01-2.357 17.862-3.17 3.74-.527 10.344-1.402 19.814-2.622 5.04-.69 22.01-2.987 50.908-6.89 24.93-3.714 37.328-6.254 37.19-7.62M272.583 176.353c-3.942-.646-10.852-.65-20.73-.01-11.582.837-19.407 1.376-23.47 1.618-9.634.612-24.57 1.827-44.812 3.65-8.494.83-22.883 2.868-43.164 6.11-10.272 1.64-22.934 3.72-37.982 6.25.322 2.94 3.696 3.864 10.12 2.766 6.464-1.05 12.58-2.082 18.352-3.096 5.77-.975 11.075-2.088 15.913-3.34 6.054-.996 12.01-1.752 17.862-2.27 3.74-.34 10.344-.88 19.814-1.62 5.04-.437 22.01-1.875 50.908-4.316 24.93-2.454 37.328-4.368 37.19-5.74M106.143 156.8h-.854c-3.243-2.516-4.32 1.79-3.232 12.924 1.093 11.135 1.644 17.984 1.646 20.546 0 .082.02.813.06 2.194.286 1.342.977 2.012 2.074 2.012.488 0 .936-.1 1.342-.305.564-.327.83-1.586.792-3.78.01-2.14-.253-9.152-.792-21.032-.544-11.883-.89-16.07-1.037-12.56M275.205 146.435c.18-5.662-.39-11.798-1.707-18.413-2.665-.208-3.845 1.52-3.536 5.183.35 3.657.573 17.396.67 41.214.023.57.023 1.118 0 1.645.598.982 1.35 1.837 2.256 2.56.77-.365 1.36-.995 1.768-1.89.244-.608.366-1.157.366-1.645-.01-2.564-.03-6.567-.062-12.01.018-5.44.1-10.986.245-16.645M391.836 206.487c.812 0 1.44-.122 1.89-.365.284-.122.853-.55 1.706-1.28-1.34-1.626-6.624-3.273-15.852-4.94-10.28-1.585-16.766-2.64-19.447-3.17-5.73-1.056-12.256-2.52-19.572-4.39-6.825-1.87-10.972-2.987-12.435-3.353-5.53-1.18-14.877-3.578-28.045-7.195-8.007-2.194-17.314-3.92-27.922-5.183-.204.61-.305 1.078-.305 1.402l.305 1.83c3.9.812 22.375 5.567 55.42 14.266 33.205 8.252 54.625 12.377 64.258 12.377M391.836 157.714c.812 0 1.44-.122 1.89-.365.284-.123.853-.55 1.706-1.282-1.34-1.625-6.624-3.27-15.852-4.938-10.28-1.586-16.766-2.642-19.447-3.17-5.73-1.057-12.256-2.52-19.572-4.39-6.825-1.87-10.972-2.988-12.435-3.355-5.53-1.177-14.877-3.576-28.045-7.193-8.007-2.195-17.314-3.92-27.922-5.183-.204.61-.305 1.077-.305 1.4l.305 1.83c3.9.813 22.375 5.568 55.42 14.267 33.205 8.252 54.625 12.377 64.258 12.377"/><path d="M393.36 158.812c.16-3.902-.51-4.98-2.013-3.23-1.504 1.787-2.256 3.677-2.256 5.67v10.06c0 .08.203 5.648.61 16.704.732 11.014 1.85 16.522 3.354 16.522.69 0 1.26-.305 1.705-.915.366-.53.55-1.14.55-1.83 0-3.78-.102-6.787-.305-9.022-.285-3.332-.834-6.278-1.646-8.84v-25.118zM106.448 195.087c-1.016.406-1.524 1.342-1.524 2.805 0 .08 2.683 11.035 8.048 32.86 5.73 21.745 9.45 32.618 11.156 32.618.61 0 1.118-.143 1.524-.428.487-.364.73-.874.73-1.524 0-1.748-2.437-11.055-7.314-27.922-5.243-18.29-9.45-31.093-12.62-38.41M274.595 177.86l-.305-1.828c-9.755 4.55-21.847 11.15-36.275 19.804-15.933 9.842-27.578 16.907-34.934 21.194-2.276 1.32-17.416 9.713-45.42 25.183-22.353 12.373-33.53 18.824-33.53 19.354 0 .61.08.975.243 1.095l.184.12c8.982-3.934 29.914-15.097 62.796-33.49 36.253-20.292 65.335-37.436 87.242-51.433M413.174 260.14c.65-.286 1.096-.834 1.342-1.648-18.86-13.29-41.134-26.966-66.82-41.03-17.885-9.754-44.242-23.27-79.074-40.543l-.122 1.158c0 .895 10.872 7.03 32.617 18.41 25.89 13.618 39.953 21.075 42.188 22.376 8.902 5.203 21.643 12.54 38.227 22.01 13.78 7.965 24.325 14.387 31.642 19.265"/><path d="M391.47 203.134c-.08.163-.124.57-.124 1.22 0 1.34 1.404 5.79 4.21 13.35 1.462 3.863 3.067 8.11 4.815 12.743.813 2.56 2.458 7.946 4.94 16.156 2.44 6.908 4.634 10.71 6.583 11.4 1.992.733 2.703.672 2.134-.182-.528-.813-1.017-2.114-1.462-3.902-.408-1.786-1.79-5.872-4.147-12.253-2.153-5.893-3.718-10.445-4.693-13.657-.528-1.787-1.403-4.064-2.622-6.83-1.3-3.087-2.215-5.383-2.744-6.888-.935-3.13-1.646-5.487-2.135-7.072-.813-2.764-2.378-4.166-4.693-4.207l-.063.124zM413.295 260.566l.488-1.768c-19.816-2.214-37.578-3.696-53.285-4.45-15.666-.714-31.438-1.425-47.31-2.135-17.916 1.03-37.71 1.742-59.383 2.134-21.673.432-43.622 1.308-65.844 2.622l-62.37 3.9-3.29 2.5c18.736 0 37.576-.57 56.516-1.708 18.412-1.34 36.946-2.378 55.602-3.11 29.752-1.95 59.605-2.662 89.56-2.133 28.004.528 57.778 1.91 89.317 4.146M416.832 310.497c-.267 0-.53-.02-.793-.06 2.642 35.77 3.962 69.22 3.962 100.35v22.07c0 2.317-.266 6.037-.794 11.157-.567 5.122-.853 8.923-.853 11.4 0 1.017.04 1.727.12 2.134l2.015.672c1.95-1.18 3.21-8.576 3.78-22.192.202-4.878.304-13.33.304-25.362 0-26.906-.854-54.932-2.56-84.073-.343-5.774-.708-11.202-1.1-16.28-1.203.124-2.566.184-4.082.184m.365-35.422c-1.216-7.798-2.56-13.327-4.023-16.583-.203 0-.408.02-.61.062-.407.08-.608.426-.608 1.036 0 1.397.386 6.945 1.156 16.645.674-1.043 1.508-1.857 2.5-2.44.473-.266.9-.406 1.28-.425.115.56.217 1.13.305 1.705"/><path fill="#979797" d="M417.197 275.075c-.088-.575-.19-1.145-.305-1.706-.382.018-.81.158-1.28.425-.993.582-1.827 1.396-2.5 2.44.69 8.096 1.645 19.07 2.866 32.92.03.427.05.854.06 1.28.265.042.527.062.794.062 1.516 0 2.88-.06 4.084-.184l-3.72-35.238z"/><path d="M125.348 261.236c-2.104-4.992-3.282.9-3.536 17.68-.21 16.782-.272 28.752-.183 35.91.123 7.195.55 19.715 1.28 37.556.73 17.925 1.38 29.468 1.95 34.63.935 7.885 2.215 23.247 3.84 46.09 1.79 18.94 4.126 28.41 7.012 28.41.73 0 1.34-.304 1.83-.913.404-.49.443-1.06.12-1.707-.277-.605-1.172-7.555-2.682-20.852-1.51-13.256-3.32-29.21-5.426-47.858-2.112-18.653-3.168-44.605-3.17-77.855-.125-12.176-.187-22.48-.184-30.91.044-8.432-.24-15.157-.852-20.18"/><path d="M417.746 453.282c-1.057-.203-2.072-.163-3.05.123-8.483 3.353-30.39 6.034-65.72 8.047-26.178 2.95-48.165 4.6-65.967 4.938-17.763.33-33.474-.075-47.128-1.22-17.07-1.26-34.223-2.134-51.458-2.62-16.786-.448-33.104-1.973-48.955-4.573l-.43 1.767c2.562 2.643 5.69 3.982 9.39 4.025 18.82 1.785 37.637 3.33 56.455 4.63 17.802.94 35.3 1.63 52.494 2.075 17.193.435 35.26.007 54.198-1.28 18.977-1.245 35.46-2.545 49.443-3.9 41.584-4.684 62.355-8.3 62.31-10.854l-1.584-1.158zM77.184 441.7c-12.723-3.497-22.396-6.14-29.02-7.927-11.87-3.21-19.55-5.122-23.046-5.73 2.317 2.6 9.877 5.75 22.68 9.45 6.95 2.03 16.542 4.755 28.777 8.17 2.356.77 11.562 3.758 27.618 8.962 15.812 4.834 26.216 7.254 31.215 7.254 1.057 0 2.418-.632 4.085-1.892l-.305-.914c-7.968-2.562-18.006-5.467-30.118-8.718-17.153-4.593-27.78-7.48-31.886-8.657M22.62 285.195c0-2.357-.55-3.23-1.647-2.62-1.138.61-1.686 1.85-1.646 3.718.04 1.504.02 3.78-.06 6.828 0 3.05-.102 7.602-.306 13.66 0 16.094.042 25.523.123 28.287.162 4.674.936 16.46 2.316 35.36v26.033c.283 1.748.568 3.84.853 6.28.244 2.316.366 3.88.366 4.693 0 .08.325 3.84.974 11.278.934 7.398 2.134 11.1 3.597 11.1 1.465 0 2.196-1.1 2.196-3.294 0-5.12-1.24-15.484-3.72-31.093V369.33c-.812-8.33-1.443-17.7-1.89-28.104-.243-6.22-.507-15.587-.792-28.106-.04-12.52-.162-21.828-.365-27.925M128.7 261.48c-2.563-.93-11.565.126-27.007 3.17-16.665 3.86-26.258 6.075-28.776 6.646-10.852 2.356-20.506 4.512-28.96 6.462-16.46 3.78-24.69 5.936-24.69 6.463 0 1.464 1.422 2.195 4.267 2.195 28.734-5.525 45.847-9.245 51.335-11.156 5.53-1.917 16.973-4.172 34.323-6.768 15.577-3.713 22.08-6.05 19.508-7.012M54.2 237.947c2.625-3.7 5.633-8.05 9.022-13.046-2.41-.084-5.233 1.888-8.474 5.914-3.205 4.06-7.574 9.81-13.108 17.254-5.53 7.44-10.69 14.838-15.485 22.19-4.146 6.87-6.22 11.91-6.22 15.12 0 .082.59.632 1.77 1.647 1.868-2.843 4.815-7.64 8.84-14.387 3.982-6.625 7.03-11.544 9.144-14.755 4.19-5.57 9.027-12.216 14.51-19.936M82.55 219.78c-6.342 1.38-12.134 2.865-17.377 4.45-5.16 1.545-7.743 2.56-7.743 3.048 0 .65.122 1.058.366 1.22.204.122.57.223 1.098.305 32.312-5.895 49.892-9.45 52.736-10.67-2.316-2.56-12.01-2.012-29.08 1.646M54.992 198.623c.57 4.146.854 7.275.854 9.39 0 3.657.325 7.58.975 11.766.772 4.876 1.668 7.315 2.684 7.315 1.463-.003 2.135-1.305 2.012-3.902-.083-2.59-.428-6.594-1.036-12.01-.567-5.418-.973-10.538-1.22-15.364-.244-4.793-1.14-7.8-2.683-9.024-1.665-1.342-2.5-.448-2.5 2.682 0 1.95.305 5 .915 9.145M76.025 181.064c-9.225 1.22-14.327 1.93-15.302 2.134-3.21.69-4.817 1.81-4.817 3.354 0 .61.06.975.183 1.097.08.12.12.202.12.243l2.074.488c.122-.04 8.454-1.24 24.997-3.597 13.7-1.99 21.726-3.638 24.083-4.938-1.585-2.155-5.405-2.845-11.462-2.073-8.25 1.544-14.875 2.64-19.875 3.292"/><path d="M335.867 52.73c-4.756-.245-12.133.487-22.13 2.194-11.097 1.91-22.52 4.572-34.265 7.987-30.93 8.982-54.362 20.12-70.295 33.41.122.327.204.51.244.55.204.122.63.183 1.28.183 20.4-11.206 34.95-18.32 43.653-21.338 8.7-3.012 16.645-5.47 23.838-7.377 3.293-.853 9.715-2.46 19.266-4.816 3.455-.854 10.812-2.438 22.07-4.755 9.837-2.155 15.385-3.862 16.645-5.122l-.303-.916zM211.8 100.1l-.123-.122c.05-.056.093-.117.122-.183-.178-.134-.36-.256-.55-.365l-.793-.976c-.65-.854-1.423-1.32-2.316-1.402-.04.122-.1.143-.182.06v.855c0 .206.04.45.122.732-.595.033-1.224.154-1.89.364-2.073.65-3.11 1.504-3.11 2.56 0 .652.142 1.1.427 1.343.04 0 .406.122 1.097.365.13-.046.25-.107.366-.183.48.454 1.008.962 1.585 1.523-.323.073-.65.153-.976.244-2.562.73-3.842 1.544-3.842 2.438 0 .61.06.935.183.975h.123l.244.122c.284.04.752.06 1.402.06.103 0 .205-.02.304-.06.83.513 1.805.94 2.926 1.28l-.487.427c-.3.33-.75.676-1.34 1.036-1.14.354-1.708 1.126-1.708 2.316 0 1.423 1.016 5.346 3.048 11.767 2.155 6.747 3.78 10.71 4.877 11.888 1.423-.61 2.134-1.787 2.134-3.536 0-.65-.59-2.824-1.768-6.523-1.423-4.27-2.155-6.504-2.195-6.708-.73-3.333-1.28-5.466-1.645-6.4-.048-.24-.108-.463-.183-.67.626-.317 1.316-.743 2.072-1.282 1.667-1.22 2.5-1.99 2.5-2.317 0-1.15-1.118-2.127-3.354-2.926.352-.136.675-.278.976-.427.66-.007 1.19-.15 1.585-.427.285-.203.61-.57.976-1.097-.118-.09-.24-.19-.365-.305l-.426-.792c-.187.022-.37.043-.55.06-1.08-.792-1.913-1.38-2.5-1.767.365-.104.73-.207 1.1-.304.5-.166.925-.43 1.28-.792.324-.014.527-.075.61-.184.083-.12.163-.344.245-.67M175.036 90.955c-.078-.076-.16-.157-.244-.244 1.4-.29 3.085-.27 5.06.063 2.347.436 4.256-.133 5.73-1.707.276.162.522.243.732.243.69 0 1.118-.142 1.28-.428.082-.12.162-.487.244-1.097-.366-1.38-1.464-3.272-3.293-5.67-2.072-2.723-3.108-2.418-3.108.915 0 .326.588 1.402 1.768 3.23.417.634.803 1.162 1.158 1.586-6.14-.098-9.78-.037-10.913.183-.757.123-1.327.428-1.708.914-.77.062-1.158.937-1.158 2.62 0 .53 1.423 2.034 4.268 4.513 1.572 1.348 2.73 2.32 3.476 2.927-2.402.313-3.967.557-4.694.73-1.546.35-2.36.816-2.44 1.403-.33.16-.634.424-.914.792.204.447 1.138 1.565 2.804 3.353.248.265.47.51.67.73-.8.236-1.552.562-2.255.977-1.424.854-2.135 1.768-2.135 2.743 0 .65.406 1.566 1.22 2.744 1.03 1.53 2.312 2.344 3.84 2.44v.975l2.56 11.705c1.992 7.805 3.68 11.706 5.062 11.706.61 0 1.016-.122 1.22-.366l.304-.427c0-.244.062-.508.184-.792.082-.284.122-.71.122-1.28 0-1.422-.427-3.86-1.28-7.317-.65-2.762-1.34-5.263-2.073-7.498-.325-1.83-1.362-4.35-3.11-7.56-.73-1.34-1.34-2.113-1.828-2.317-.54-.74-.926-1.207-1.16-1.402 1.87-.244 3.232-.75 4.086-1.524.53-.49.793-.997.793-1.525 0-.61-.04-.975-.122-1.097-.12-.122-.182-.223-.182-.305l-.792-.244c-.055-.027-.238-.048-.55-.062-1.347-1.374-2.424-2.43-3.23-3.17h2.744c1.097-.122 2.195-.61 3.292-1.463.77-.61 1.26-1.098 1.463-1.464l-.305-.913c-.348.042-.694.083-1.037.122l.122-.733c-1.747-2.765-3.636-5.102-5.67-7.012M303.555 22.977c6.625-3.017 11.34-4.766 14.145-5.243-2.62-.628-3.78-.874-3.476-.732.5.29-.478.35-2.927.183-2.445-.165-10.716 2.578-24.813 8.23-14.06 5.693-29.18 12.542-45.36 20.547-16.908 8.414-30.768 15.912-41.58 22.497-12.274 7.437-18.41 12.396-18.41 14.875 0 .65.14 1.098.426 1.342.04 0 .406.122 1.097.365 17.843-12.315 38.876-24.265 63.1-35.85 5.57-2.64 12.764-5.87 21.583-9.693 7.8-3.418 13.02-5.776 15.668-7.073 2.697-1.293 9.546-4.443 20.547-9.45M342.88 39.62c0-4.348-1.667-9.693-5-16.033-2.155-3.822-5.102-6.36-8.84-7.62-5-1.993-9.187-2.4-12.56-1.22-2.602.894-3.902 2.012-3.902 3.353 0 1.423.346 4.085 1.035 7.987.814 4.715 1.32 8.006 1.525 9.876.447 3.902 2.193 7.763 5.242 11.584 3.455 4.348 7.154 6.523 11.096 6.523 5.08 0 8.475-2.073 10.182-6.22.815-1.95 1.22-4.693 1.22-8.23m-4.572 0c0 .082-.204 1.708-.61 4.878-.35 1.17-.837 2.126-1.463 2.866-1.008 1.22-2.39 1.83-4.146 1.83-2.112 0-4.634-1.626-7.56-4.88-2.805-3.047-4.512-5.832-5.12-8.352-1.425-6.178-2.136-10.75-2.136-13.717 0-1.625.916-3.15 2.745-4.573 1.662-.147 3.228-.025 4.694.366 3.874 1.106 7.145 4.094 9.814 8.962 2.522 4.553 3.782 8.76 3.782 12.62"/><path fill="#979797" d="M320.016 17.673c-1.83 1.423-2.744 2.947-2.744 4.573 0 2.967.71 7.54 2.135 13.717.61 2.52 2.316 5.305 5.12 8.353 2.927 3.252 5.448 4.878 7.56 4.878 1.756 0 3.14-.61 4.147-1.83-7.173-4.124-12.295-10.303-15.363-18.533-3.064-8.228-1.786-11.825 3.842-10.79-1.47-.393-3.034-.515-4.696-.367"/><path fill="#CCCBCB" d="M337.695 44.5c.406-3.17.61-4.798.61-4.878 0-3.86-1.26-8.068-3.78-12.62-2.67-4.868-5.94-7.856-9.815-8.962-5.628-1.035-6.906 2.562-3.84 10.792 3.067 8.23 8.19 14.41 15.362 18.534.626-.74 1.114-1.697 1.463-2.867"/><path fill="#E12426" d="M196.13 93.76l.122.122c.078-.074.158-.156.244-.244.266-.104.428-.184.488-.243-.05-.015-.112-.034-.183-.062 9.006-8.4 25.426-17.992 49.263-28.776 17.355-7.886 39.77-16.868 67.246-26.947-10.608.77-28.188 6.483-52.737 17.132-28.085 12.152-49.89 24.895-65.417 38.226l.305.244c-.513.04-1.082.142-1.707.305-1.076.262-2.012.668-2.804 1.22-.125-.05-.247-.09-.367-.123l-.122.488c.023.02.043.04.062.06-.125.116-.248.238-.366.367.178 0 .4-.022.67-.063.54.536 1.09 1.33 1.646 2.378.254.527.56.995.915 1.402-.714.134-1.65.317-2.805.55l-1.28 1.34c-.133-.083-.215-.122-.244-.122v.427l-.122.183c.045.002.085.002.122 0 .163 1.588.895 2.544 2.195 2.865-.088.11-.19.21-.305.305-.935.69-1.565 1.362-1.89 2.012.165.012.347-.007.548-.06-.244.307-.366.917-.366 1.828 0 1.504 1.26 6.22 3.78 14.145 1.3 3.984 2.622 8.027 3.962 12.132h.488c.08.406.122.102.122-.914 0-1.83-1.22-6.89-3.658-15.18-2.13-7.3-3.392-11.364-3.78-12.194.413-.15.88-.374 1.402-.67.78-.456 1.286-.883 1.524-1.28.537-.008.618-.088.244-.245l-.06-.123c.04-.026.06-.068.06-.122 0-.65-.02-.955-.06-.914l-.062.245c-.13.04-.274.08-.427.122-.495-.38-1.167-.87-2.012-1.464-.292-.2-.555-.384-.792-.55.62-.04 1.272-.163 1.95-.364.95-.283 1.702-.67 2.257-1.16.276.198.56.38.854.55.692-.123 1.098-.326 1.22-.61-.448-.854-1.362-1.93-2.743-3.23-.68-.638-1.268-1.146-1.77-1.525.638-.144 1.41-.37 2.317-.67.91-.312 1.6-.576 2.076-.795"/><path d="M421.33 395.3c-1.09-.133-2.137-.1-3.14.104-8.74 2.357-31.306 4.34-67.697 5.946-26.962 2.195-49.61 3.468-67.947 3.814-18.295.342-34.476.165-48.542-.533-17.584-.753-35.25-1.244-53.002-1.467-17.29-.198-34.1-1.14-50.426-2.824l-.44 1.216c2.64 1.797 5.862 2.697 9.672 2.702 19.384 1.105 38.768 2.045 58.15 2.817 18.336.528 36.36.89 54.068 1.083 17.713.19 36.32-.22 55.828-1.227 19.547-.976 36.524-1.976 50.93-2.996 42.832-3.48 64.224-6.098 64.18-7.85l-1.635-.784zM155.04 387.193c-12.033-1.788-21.827-2.11-29.387-.975 10.69 1.057 21.766 2.56 33.227 4.512 11.583 1.99 25.098 3.758 40.543 5.304 3.577.365 17.578 2.296 42.006 5.792 22.8 3.252 35.177 4.877 37.128 4.877 3.576 0 4.96-.426 4.146-1.28v-.06c-.975-.105-2.682-.308-5.122-.61-4.565-.574-17.063-2.443-37.495-5.61-20.44-3.168-36.21-5.32-47.31-6.462-2.153-.202-14.733-2.032-37.738-5.487M284.35 406.52c0 .65.122 1.037.365 1.16.122.04.406.1.854.183 11.867-2.52 35.34-6.83 70.416-12.926 21.786-3.78 44.2-9.308 67.246-16.583-9.186 1.016-22.7 3.496-40.543 7.438-17.56 4.146-27.518 6.423-29.874 6.83-19.51 3.088-33.96 5.466-43.348 7.133-16.745 2.966-25.118 5.22-25.118 6.765M283.13 406.033c-.487 1.22-.955 6.32-1.402 15.303-.366 7.6-.55 13.27-.55 17.01 0 3.496-.16 8.963-.486 16.4-.04 6.502.77 11.908 2.438 16.217.406-.163.874-.365 1.402-.61.082-2.438.122-5.954.122-10.546.162-7.52.223-15.142.183-22.863-.08-15.242-.65-25.547-1.707-30.91M319.894 406.947c-.77.568-1.22 2.134-1.34 4.695-.042 1.3 0 2.7.12 4.206l1.22 33.166c0 3.698.042 6.36.122 7.986.122 3.13.427 5.854.914 8.17.408-.163.814-.365 1.22-.61v-9.145c0-10.77-.04-18.9-.122-24.387-.163-9.713-.874-17.74-2.134-24.08M355.072 402.436c-.69.813-1.098 2.845-1.22 6.097-.08 1.667-.08 3.536 0 5.608 0 .855.163 3.7.487 8.536.325 5.162.63 9.37.913 12.62v26.522c.203.244.55.467 1.037.67.53-.203.894-.426 1.098-.67v-27.07c-.162-1.95-.428-7.46-.793-16.52-.243-6.708-.75-11.972-1.523-15.792"/><path d="M421.33 414.2c-1.09-.133-2.137-.1-3.14.103-8.74 2.357-31.306 4.34-67.697 5.947-26.962 2.195-49.61 3.467-67.947 3.813-18.295.342-34.476.165-48.542-.532-17.584-.754-35.25-1.245-53.002-1.468-17.29-.198-34.1-1.14-50.426-2.824l-.44 1.217c2.64 1.797 5.862 2.697 9.672 2.702 19.384 1.106 38.768 2.046 58.15 2.817 18.336.53 36.36.89 54.068 1.084 17.713.19 36.32-.22 55.828-1.227 19.547-.976 36.524-1.976 50.93-2.996 42.832-3.48 64.224-6.1 64.18-7.85l-1.635-.785zM421.33 434.928c-1.09-.132-2.137-.1-3.14.104-8.74 2.358-31.306 4.34-67.697 5.947-26.962 2.194-49.61 3.466-67.947 3.812-18.295.342-34.476.166-48.542-.532-17.584-.755-35.25-1.245-53.002-1.468-17.29-.2-34.1-1.14-50.426-2.823l-.44 1.215c2.64 1.797 5.862 2.696 9.672 2.7 19.384 1.107 38.768 2.047 58.15 2.818 18.336.53 36.36.89 54.068 1.084 17.713.19 36.32-.22 55.828-1.227 19.547-.977 36.524-1.977 50.93-2.997 42.832-3.48 64.224-6.098 64.18-7.85l-1.635-.785zM132.725 289.95h-.366c-.53.57-.935 2.114-1.22 4.635-.204 1.707-.305 3.13-.305 4.268 0 5.283.752 9.716 2.255 13.29 3.09 7.44 8.84 10.404 17.254 8.902h73.16c.367-.12 4.716-.225 13.047-.305 4.147-.04 8.252-.06 12.316-.06 8.17.035 13.737-.898 16.706-2.806 3.01-1.863 4.655-4.322 4.938-7.378.283-3.054.324-6.672.122-10.852-.203-4.183-.304-6.786-.305-7.804.284-1.586.487-3.008.61-4.27.16-2.477-.245-4.246-1.22-5.303-.894.527-1.667 2.154-2.317 4.878-.488 2.073-.73 3.638-.73 4.694v10.728c1.218 6.68.405 10.664-2.44 11.95-2.804 1.328-7.925 2.16-15.363 2.5l-24.752.06-1.16.306-72.61.305c-2.033-.245-4.96-.448-8.78-.61-4.837-2.766-7.56-6.97-8.17-12.62.204-6.583-.02-11.42-.67-14.51M426.708 274.71c.025 1.31.046 2.895.06 4.756.08 9.793.12 15.606.123 17.437.003 3.21-.056 5.262-.182 6.157-.09.938-.396 1.913-.915 2.927-.475 1.058-2.893 1.99-7.255 2.805-4.32.81-9.786 1.5-16.4 2.072-6.58.57-10.645.937-12.192 1.098-4.92.61-14.855 1.18-29.813 1.707l-16.034.304c-5.448.365-9.776-.508-12.987-2.622-3.86-2.56-5.77-6.745-5.73-12.56 0-2.967-.224-5.934-.67-8.9-.45-3.292-1.098-6.036-1.95-8.23-.245.04-.51.142-.794.305-.245.204-.388.305-.43.305l-.12 10.426c0 1.26.223 3.414.67 6.462.205 1.667.528 3.963.977 6.89.447 3.252 1.32 5.548 2.62 6.89 2.48 2.52 7.194 4.085 14.146 4.694h20.73c18.573-1.302 34.405-2.784 47.493-4.45 12.274-1.505 18.898-2.744 19.875-3.72 1.504-1.462 2.357-3.21 2.562-5.243.246-1.993.53-5.284.854-9.876.36-4.55.016-9.103-1.037-13.655-1.055-4.557-2.255-6.548-3.602-5.98"/><path d="M303.86 268.613c-6.212.398-11.19 1.008-14.938 1.83-3.746.82-7.892 2.65-12.438 5.486l2.438 7.07c.17-.076.17-.016 0 .184v.854c5.06-2.188 9.043-3.753 11.95-4.695 2.94-.946 7.188-1.108 12.742-.487 5.547.653 9.447 1.465 11.705 2.44 2.265 1.017 4.563 1.87 6.89 2.56v-10.67c-1.84-.693-3.912-1.445-6.22-2.255l-12.13-2.317zM315.016 303.73c0-5.934-.305-11.035-.914-15.303-1.26-3.618-2.54-6.22-3.84-7.805-2.643-3.29-5.895-4.165-9.755-2.622 3.048 1.384 5.67 3.558 7.865 6.524 1.992 2.723 2.986 5.12 2.986 7.193 0 2.074-.305 7.987-.914 17.742-.04.77.123 2.193.488 4.267-.204 1.87-1.85 3.19-4.938 3.963-4.837 1.098-8.433 2.013-10.792 2.744-4.105 1.34-6.502 2.946-7.194 4.814.284.123.712.326 1.28.61.528.245 1.118.366 1.768.366.854 0 4.167-.568 9.938-1.707 6.096-1.22 9.897-1.89 11.4-2.013 1.628-.162 2.48-1.015 2.562-2.56-.284-1.665-.426-2.723-.426-3.17-.04-1.586.04-4.064.242-7.438.164-3.533.244-5.402.244-5.607"/><path d="M180.828 362.197c-3.74-1.057-6.626-3.414-8.657-7.072-1.828-3.292-3.82-5-5.974-5.12l-.244 1.34c1.302 1.748 2.438 4.532 3.415 8.354 1.707 3.332 5.527 5.69 11.46 7.07h21.95c.405-.12 6.807-.264 19.204-.426 6.22-.082 12.377-.143 18.474-.184.448-.12 10.446-.224 29.996-.305 9.754-.04 19.47-.06 29.142-.06 2.143-.028 3.87-.394 5.182-1.1 3.545-1.858 4.664-3.728 3.354-5.608-.488-1.18-1.646-3.332-3.475-6.462-1.138-1.91-1.707-3.68-1.707-5.305 0-1.056.305-2.845.914-5.364.61-2.277.914-3.436.914-3.477 0-.61-.04-.976-.12-1.097-.123-.123-.185-.205-.185-.244-3.862-.367-5.793 3.086-5.793 10.363l1.28 6.706c.62 2.01 1.394 3.554 2.317 4.632-.544 1.227-1.438 1.918-2.683 2.074l-58.527.06c-.69.204-13.046.407-37.067.61l-1.16.305-22.008.307zM168.634 347.26c-3.21.977-4.816 3.11-4.816 6.402 0 .65.02 1.016.062 1.098 0 .08.06.203.183.365.448-.203 1.503-1.198 3.17-2.987 1.788-1.91 2.682-3.13 2.682-3.657 0-.61-.12-.954-.365-1.036-.366 0-.672-.062-.916-.183M286.3 369.697c-3.007 4.836-4.51 8.514-4.51 11.034 0 .732.02 1.14.06 1.22 0 .04.123.164.367.366 1.503-1.26 3.516-4.187 6.036-8.78 2.276-4.144 4.835-7.11 7.682-8.9l-.305-.914c-2.805-1.546-5.915.448-9.33 5.975M128.396 283.49c-1.788-1.953-5.426-2.316-10.913-1.098-11.462 2.56-20.1 4.145-25.91 4.755-6.79.69-16.502 2.257-29.143 4.695-9.836 1.868-17.11 3.372-21.826 4.51-4.797 1.18-10.67 2.784-17.62 4.817-2.642.688-4.43 1.85-5.365 3.475-.49.894-1.058 2.173-1.708 3.84-.975 1.343-2.866 3.76-5.67 7.256-2.316 3.17-3.475 5.59-3.475 7.255 0 .08.02.854.06 2.317.323 1.427 1.056 3.682 2.196 6.77 1.146 3.118 3.076 2.325 5.792-2.38 2.716-4.665 4.667-8.995 5.853-12.985 1.222-3.988 3.54-6.832 6.95-8.536 3.862-1.95 9.612-3.758 17.254-5.425 20.525-3.618 36.62-6.523 48.286-8.72 21.42-4.064 33.165-7.58 35.238-10.546M89.865 381.646c-4.105-.487-12.193-1.707-24.265-3.658-24.387-4.023-38.267-6.036-41.64-6.036h-2.866c1.3 1.543 6.95 3.11 16.95 4.694 5.567.895 13.96 2.053 25.178 3.476 5.813.854 16.665 2.5 32.557 4.938 14.306 2.03 24.772 3.048 31.397 3.048 1.016 0 1.545-.12 1.585-.365-.284-1.017-.51-1.667-.67-1.952-.285-.445-.793-.81-1.525-1.096-16.177-1.057-28.41-2.073-36.702-3.048M72.672 390.547c-12.315-2.52-21.847-4.37-28.594-5.548-12.355-2.154-19.205-2.662-20.546-1.525.528.122 7.255 1.382 20.18 3.78 14.184 2.642 23.737 4.45 28.655 5.426 6.544 1.342 16.745 3.253 30.605 5.732 15.242 2.683 23.716 4.023 25.423 4.023 1.91 0 3.05-.406 3.414-1.22l-.306-.914c-5.242-1.298-24.852-4.55-58.832-9.753M37.616 383.23h-.366c-.366 2.195-.55 4.167-.55 5.914 0 .447.407 6.118 1.22 17.01.772 10.893 1.16 17.803 1.16 20.73 0 .894-.083 1.87-.245 2.927.04.936.63 2.276 1.77 4.024.526-.448.83-.67.913-.67l.06-2.135c0-2.562-1.32-18.495-3.962-47.8M50.054 386.28c-.813.568-1.22 1.463-1.22 2.682 0 3.862.488 12.6 1.464 26.216.488 6.95 1.016 14.287 1.585 22.01l1.524-.062.305-.55c.204-2.193.305-3.8.305-4.815 0-4.307-.59-12.152-1.768-23.532-1.383-12.763-2.116-20.08-2.196-21.95M62.247 389.023c-.77-.04-1.24.326-1.402 1.098-.078.282.165 2.517.73 6.707.6 4.196 1.27 12.264 2.013 24.203.787 11.937 1.253 18.44 1.402 19.51.448-.204.77-.427.975-.67v-4.208c-.366-10.363-.67-18.146-.915-23.35-.446-9.145-1.38-16.91-2.803-23.29M74.136 391.706c-1.14.854-1.808 1.625-2.012 2.315-.082.247-.122 1.1-.122 2.563 0 2.562.71 9.308 2.134 20.242 1.423 10.93 2.134 17.903 2.134 20.91 0 .936-.082 1.973-.244 3.11.083.933.772 2.152 2.073 3.657.365-.527.548-.813.548-.853.082-.206.122-.653.122-1.343 0-3.983-.61-9.654-1.83-17.01-1.258-7.397-1.89-16.93-1.89-28.593 0-1.263-.02-2.095-.06-2.5-.122-1.097-.407-1.93-.854-2.498M89.073 394.205c-1.22.447-1.79 1.524-1.707 3.23.04.895.204 1.87.487 2.927 0 1.952.326 6.097.976 12.438.323 3.332.71 7.072 1.157 11.22.244 2.355.448 6.3.61 11.826.366 4.96 1.28 8.76 2.744 11.4.61-.893.916-2.032.916-3.414 0-3.17-.834-11.97-2.5-26.398-1.668-14.267-2.56-22.01-2.683-23.23M102.485 397.56h-.854c-.202.974-.304 2.642-.304 4.997 0 6.504 1.91 22.925 5.73 49.262l.366-.67c.163-.124.244-.69.244-1.708 0-1.585-.813-9.896-2.438-24.936-1.706-15.608-2.62-24.59-2.743-26.947M115.044 400.85h-.61c-.04.855-.162 2.34-.366 4.45 0 1.18.61 6.402 1.83 15.67 0 2.073.466 7.134 1.4 15.18 1.018 8.982 1.89 14.41 2.622 16.28.61-.897.915-2.275.915-4.147 0-4.55-.854-13.21-2.56-25.97-1.463-10.936-2.54-18.088-3.23-21.462M171.988 405.18c-.936.04-1.503.61-1.707 1.707-.08.365-.12 1.34-.12 2.926 0 8.373.304 17.823.914 28.35.65 11.706 1.463 20.424 2.44 26.155.405-.04.73-.244.974-.61v-16.46c-.69-5.366-1.22-12.458-1.584-21.278-.49-11.87-.794-18.8-.916-20.79M207.043 406.703c-.77 1.382-1.158 4.31-1.158 8.78 0 15.28.02 23.532.062 24.752.243 9.674 1.016 17.904 2.316 24.69.448-.203.77-.426.975-.67v-20.668c-.122-1.828-.426-8.006-.915-18.533-.365-7.6-.79-13.717-1.28-18.35M243.502 406.094c-.813.57-1.22 2.845-1.22 6.828 0 4.756.346 13.047 1.038 24.875.894 15.607 1.97 25.748 3.23 30.422l1.098-.55c.082-.61.122-1.382.122-2.316 0-3.25-.528-12.762-1.585-28.532-1.138-16.706-2.033-26.95-2.683-30.728M388.543 423.53c-.284-11.828-.67-20.077-1.158-24.753-.53.325-.854 1.18-.977 2.56-.04.407-.06 1.385-.06 2.928 0 .853.325 8.82.975 23.898.69 15.77 1.077 25.79 1.16 30.058.81-.04 1.358-.243 1.644-.608v-9.146c-.813-5.772-1.34-14.085-1.584-24.936M72.672 407.15c-12.315-2.867-21.847-4.984-28.594-6.353-12.355-2.502-19.205-3.203-20.546-2.103.528.137 7.255 1.586 20.18 4.35 14.184 3.04 23.737 5.117 28.655 6.23 6.544 1.527 16.745 3.724 30.605 6.593 15.242 3.113 23.716 4.69 25.423 4.742 1.91.05 3.05-.324 3.414-1.125l-.306-.925c-5.242-1.447-24.852-5.25-58.832-11.41M72.672 424.89c-12.315-3.5-21.847-6.105-28.594-7.82-12.355-3.135-19.205-4.186-20.546-3.155.528.165 7.255 1.958 20.18 5.383 14.184 3.768 23.737 6.335 28.655 7.7 6.544 1.86 16.745 4.58 30.605 8.16 15.242 3.895 23.716 5.908 25.423 6.042 1.91.152 3.05-.164 3.414-.946l-.306-.94c-5.242-1.717-24.852-6.526-58.832-14.425M158.087 288.854c17.798-1.17 27.206-1.738 28.228-1.706h71.088c12.39.723 19.198.377 20.424-1.037 1.22-1.378 1.83-3.268 1.83-5.668 0-6.99-4.737-10.324-14.207-10l-17.07-.304c-.408-.08-1.73-.224-3.964-.426-2.236-.204-3.557-.367-3.963-.488h-21.826c0 .162-.712.346-2.134.55l-32.617.06c-32.922 2.56-52.776 4.613-59.565 6.16-4.226.973-7.01 2.232-8.35 3.778-1.017 1.18-1.525 3.13-1.525 5.853 0 .04-.02.51-.06 1.4 0 1.1.222 2.075.67 2.928 1.42 2.81 4.51 3.62 9.267 2.44 4.76-1.146 16.017-2.325 33.775-3.54"/><path d="M428.842 280.746c2.62-.895 4.492-1.892 5.61-2.988.265-7.065.142-10.886-.368-11.462-1.762-1.97-3.264-2.48-4.51-1.524-2.57-.687-14.297-.503-35.18.55 1.345-.113 2.623-.235 3.842-.367l-17.56.305c-27.138 1.017-43.985 1.932-50.54 2.744-6.51.807-10.21 1.763-11.096 2.865-.854 1.102-1.28 2.85-1.28 5.243-.003 2.435.182 4.467.548 6.097.367 1.678 2.42 2.53 6.158 2.56 3.736.03 10.28-.458 19.63-1.462 9.39-1.012 17.987-1.764 25.79-2.256l23.594-.305c1.342-.325 2.765-.325 4.268 0h31.094zM404.64 290.927c0-4.836-1.06-9.063-3.173-12.68-1.91-3.375-4.207-5.407-6.89-6.098-2.763-.733-5.06.223-6.888 2.864-1.655 2.353-2.265 5.95-1.83 10.79l6.89 3.902-6.83 5.854c-.504 1.998-.3 4.377.61 7.132 1.382 4.254 4.126 6.204 8.23 5.854 4.11-.313 6.77-2.69 7.987-7.133 1.256-4.395 1.886-7.892 1.892-10.486M244.904 294.585c0-4.836-1.057-9.063-3.17-12.68-1.91-3.376-4.207-5.407-6.89-6.098-2.764-.732-5.06.224-6.89 2.865-1.652 2.353-2.262 5.95-1.828 10.79l6.89 3.902-6.83 5.853c-.504 1.998-.3 4.378.61 7.133 1.383 4.253 4.126 6.204 8.23 5.854 4.11-.313 6.77-2.69 7.987-7.133 1.257-4.394 1.887-7.89 1.89-10.485M76.682 336.077c1.074-8.673.474-11.948-1.804-9.827-2.224 2.006-10.846 22.443-25.865 61.315-.273.474-.44 10.004-.5 28.585 2.934 12.084 5.197 14.928 6.79 8.536 1.622-6.343 2.1-18.353 1.44-36.028 4.167-8.905 7.588-15.665 10.262-20.278 5.253-9.114 8.03-15.045 8.33-17.792.067-.606.05-.996-.055-1.172-.14-.22.328-4.666 1.402-13.34"/><path fill="#fff" d="M74.096 418.994c-1.02-3.89-2.826-6.695-5.418-8.41-4.42-2.918-11.28-3.367-20.584-1.35-5.42.96-8.975 3.907-10.664 8.846-1.175 3.375-1.41 6.398-.71 9.07.37 1.418 1.245 2.826 2.62 4.23 1.327 1.375 1.995 2.082 2.006 2.122.454 1.73.547 8.26.282 19.59-.314 11.298-.015 18.698.902 22.198.99 3.775 3 8.962 6.034 15.56.444.894 1.03 2.167 1.758 3.824.667 1.42 1.346 2.652 2.037 3.69.15.254.768 1.646 1.852 4.178 1.367 2.332 2.935 3.264 4.704 2.8.51-.134 1.78-.74 3.81-1.817 2.225-1.13 3.84-1.7 4.844-1.71.928.01 2.606-.642 5.036-1.952 1.254-.664 2.932-1.88 5.03-3.65 1.44-.922 2.703-2.115 3.79-3.574.98-1.394 1.517-2.627 1.613-3.702.234-1.826.207-3.94-.087-6.344-.1-1.025-.404-2.98-.91-5.873-1.01-6.415-1.713-10.704-2.113-12.87-.618-3.157-1.493-6.898-2.626-11.223-.927-3.537-2.05-7.025-3.37-10.46l-1.98-5.154c-.455-1.73.028-4.292 1.45-7.69 1.367-3.426 1.6-6.87.692-10.33"/><path d="M66.5 420.545c-.354.26-.586.488-.703.688-.163.337-.158.84.017 1.507.134.513.66 1.634 1.577 3.367.89 1.784 1.395 2.914 1.518 3.385.26.983 1.628 7.41 4.108 19.278.778 3.453 1.938 6.91 3.474 10.372 1.68 3.678 2.812 6.637 3.398 8.878.433 1.65.142 4.543-.877 8.675-.235.96-.496 1.893-.78 2.79-5.693 1.233-10.586-.846-14.68-6.237-2.74-3.566-4.814-8.023-6.215-13.37-.124-.473-.398-2.563-.825-6.275-.455-3.663-.75-5.75-.884-6.26-.154-.59-.342-.982-.56-1.175-.2-.118-.383-.26-.554-.423-1.467 2.736-2.064 6.066-1.794 9.984.194 2.342.854 5.658 1.977 9.944.042.157 2.04 3.772 5.993 10.845 4.72 6.787 9.046 9.664 12.978 8.633 2.146-.562 3.748-1.107 4.802-1.634.205-.036.447-.077.724-.13 4.855-4.718 6.463-10.2 4.826-16.453-.6-2.28-1.802-5.514-3.616-9.703-1.812-4.188-3.022-7.442-3.63-9.762-1.057-6.277-1.925-10.713-2.605-13.308-1.096-4.334-3.652-8.873-7.668-13.62M43.262 431.676l-.82-.73c-1.878 1.333-2.92 8.897-3.13 22.69-.216 12.954.164 21.3 1.143 25.035.01.04 1.944 5.016 5.804 14.928 4.486 9.748 8.184 14.24 11.094 13.478 1.702.563 3.693.545 5.974-.053 4.285-1.122 7.073-4.27 8.364-9.44.896-3.638.988-6.813.277-9.523-.2-1.084-.543-2.15-1.028-3.198-.96-2.06-2.16-3.194-3.602-3.403-.292 1.292-.026 5.026.792 11.197-.073 5.817-2.624 9.386-7.656 10.704-.945.25-1.772.38-2.48.4-7.29-11.14-11.775-19.923-13.46-26.347-.175-.668-.376-7.127-.604-19.377-.27-14.174-.493-22.96-.67-26.36M74.63 480.427l-.49 1.01c-.18.595-.19 1.206-.023 1.835.257.984.833 2.218 1.728 3.707.587 1.44.473 3.088-.344 4.94-1.353 3.005-3.196 5.355-5.522 7.058-1.125.84-2.083 1.513-2.875 2.014.257.982.334 1.194.23.634.45-.035 1.213.228 2.285.787.96.462 2.05.533 3.27.215 2.712-.71 4.78-3.25 6.198-7.61 1.19-3.634 1.55-6.353 1.076-8.163-.454-1.727-.892-2.916-1.313-3.56-.906-1.53-2.31-2.485-4.22-2.868M80.46 476.693c-.854.434-1.167 1.084-.94 1.95.392 1.49 1.062 3.647 2.01 6.464.475 2.61-.077 5.316-1.652 8.124-1.532.403-2.645.968-3.336 1.695-.264.28-.622.835-1.076 1.668.277.096.615.344 1.013.743.456.3 1.02.362 1.688.187 4.48-1.175 6.966-3.716 7.453-7.625.2-1.65-.118-4.065-.953-7.25-.628-2.397-1.13-3.988-1.504-4.773-.91-1.232-1.812-1.624-2.704-1.182M70.38 425.01c.294.234.504.476.628.717.19-3.332-1.125-5.382-3.945-6.148-3.807-1.063-7.917-1.52-12.332-1.37-4.877.145-8.637 1.024-11.28 2.642-3.152 1.92-4.26 4.667-3.323 8.245.257.982.423 1.212.497.69.312-.25 1.26-1.445 2.842-3.583 1.3-1.77 2.58-2.817 3.84-3.148 7.424-1.95 12.845-2.344 16.266-1.175 3.442 1.216 5.712 2.26 6.807 3.13M77.108 419.906c-1.195-4.56-4.435-8.102-9.716-10.624-4.868-2.38-10.152-3.306-15.854-2.778-5.998.523-10.544 2.492-13.64 5.908-3.603 3.885-4.56 9.052-2.87 15.5.01.04.4 1.448 1.172 4.23 1.174 2.718 2.704 3.827 4.592 3.334.59-.154.907-.386.954-.69-.044-.326-.05-.598-.023-.814-.092-.187-.56-.778-1.41-1.772-.622-.763-1.008-1.438-1.163-2.028-1.267-4.836-1.247-8.686.06-11.55 1.5-3.416 4.903-5.822 10.21-7.212 7.273-1.907 13.31-1.157 18.11 2.248 3.15 2.24 5.065 4.66 5.746 7.255.423 1.61.11 3.625-.937 6.043-1.088 2.428-1.57 3.877-1.445 4.35.03.116.853.447 2.465.992 2.386-1.635 3.793-3.727 4.217-6.274.305-1.72.15-3.757-.47-6.118"/></svg>