<svg xmlns="http://www.w3.org/2000/svg" xmlns:xlink="http://www.w3.org/1999/xlink" width="496.645" height="433.372" viewBox="0 0 496.645 433.372"><g opacity=".102"><defs><path id="a" d="M142.623 392.98H476.62v34H142.624z"/></defs><clipPath id="b"><use xlink:href="#a" overflow="visible"/></clipPath><path clip-path="url(#b)" fill="#010101" d="M191.558 397.928c-32.623 3.334-48.936 7.352-48.936 12.05 0 4.7 16.312 8.7 48.936 12 32.59 3.335 71.945 5 118.064 5 46.12 0 85.49-1.665 118.114-5 32.59-3.3 48.885-7.3 48.885-12 0-4.698-16.294-8.716-48.884-12.05-32.623-3.3-71.994-4.95-118.114-4.95-46.12 0-85.474 1.65-118.064 4.95"/></g><path fill="#010101" d="M373.037 402.88c-3.758-1.1-11.25-2.17-22.477-3.2-6.272-.58-12.084-.814-17.432-.7 3.585-3.96 7.072-7.978 10.46-12.05 9.41-8.686 13.713-14.92 12.906-18.7-1.614-2.1-5.272-5.03-10.98-8.8-5.706-3.74-13.273-5.026-22.696-3.852-9.465 1.174-12.233 3.123-8.31 5.85 3.874 2.73 12.875 6.197 27.002 10.4-1.442 1.688-3.346 4.637-5.712 8.852-4.1 7.3-6.746 12.45-7.938 15.45-1.254 3.028-2.96 5.61-5.117 7.75-2.145 2.18.28 4.044 7.27 5.6 6.978 1.583 14.568 2.93 22.772 4.05 10.8.686 20.493 1.334 29.077 1.95h12.314c1.98-.435 3.264-.935 3.858-1.5.396-.368.593-.95.593-1.75 0-1.233-2.572-2.667-7.715-4.3-3.163-.967-9.122-2.65-17.875-5.05M239.19 398.98c-5.58-.103-11.654.132-18.22.698-11.732 1.033-19.564 2.1-23.492 3.2-9.15 2.4-15.38 4.083-18.688 5.05-5.376 1.635-8.064 3.068-8.064 4.3 0 .802.207 1.384.62 1.75.62.565 1.966 1.065 4.032 1.5h12.95c8.94-.6 19.047-1.25 30.316-1.948 8.58-1.137 16.517-2.467 23.806-4 7.288-1.602 9.82-3.467 7.598-5.602-2.272-2.166-4.03-4.75-5.27-7.75-1.294-3.033-4.085-8.2-8.376-15.5-2.48-4.2-4.446-7.15-5.894-8.85 13.93-6.455 23.338-11.586 28.224-15.4 4.842-3.81 1.25-6.26-10.777-7.35-12.077-1.096-20.348 1.188-24.812 6.85-4.465 5.7-7.256 9.816-8.375 12.35-.826 3.734 3.67 9.95 13.49 18.65 3.515 4.07 7.162 8.084 10.933 12.05M99.114 290.28c10.745 2.19 18.512 3.723 23.3 4.602 4.792.906 7.91 1.074 9.35.5 1.4-.536 6.735-3.32 16-8.35 9.238-5.037 13.503-10.22 12.8-15.55-.697-5.294-1.38-7.877-2.05-7.75.267-.707.4-1.325.4-1.853 0-2.732-1.483-2.218-4.45 1.55-4.5 5.768-7.184 8.982-8.05 9.65-6.667 6.066-12.117 11.316-16.352 15.75h-7.5c-3.904-.78-10.588-2.147-20.05-4.1-9.46-1.92-13.858-2.57-13.2-1.95.627.622 1.077 1.087 1.352 1.4.27.335.103.467-.5.397l-.102.25c-4.748 1.477-1.73 3.295 9.052 5.452"/><path fill="#fff" d="M67.314 256.08c-.435 1.265-.65 2.966-.65 5.1.476 2.946.943 5.395 1.398 7.35-1.812-.838-3.996-1.72-6.55-2.65-4.468-1.632-9.483-3.265-15.05-4.9-10.933-4.465-18.566-5.567-22.9-3.3-2.666 1.367-4 3.968-4 7.8 0 .472.066.955.2 1.45-3.173.062-5.237.73-6.2 2-.433.568-.647 1.75-.647 3.55 0 .063.298 1.263.897 3.6-.312.335-.598.687-.85 1.052-1.266 1.9-1.982 3.135-2.15 3.7-.166.466-.25 1.483-.25 3.05 0 1.5.603 3.117 1.802 4.85 1.967 2.834 5 4.25 9.1 4.25 1.5 0 2.65-.166 3.45-.5.058-.027.126-.06.2-.1 3.722.467 8.04.7 12.948.7 2.732 0 5.7-.132 8.9-.4 2.666-.3 4.082-.45 4.25-.45 3.566 0 7.566.65 12 1.95 3.934 1.366 6.217 2.1 6.85 2.2l10 .75c3.834.166 6.316.634 7.45 1.4 1.032.698 1.884 1.05 2.55 1.05 5.802 0 10.584-3.534 14.353-10.602 1.166-2.2 2.166-4.615 3-7.25l.897-3.35c0-.3-.065-.634-.198-1-.088-.19-.188-.356-.302-.5-.017-1.02-.167-1.954-.448-2.8-.5-1.634-1.435-2.45-2.802-2.45-.965 0-1.683.184-2.147.55-.468.367-1 .55-1.603.55-.066 0-1.268-1.132-3.6-3.4-2.933-2.8-5.733-5.25-8.4-7.35-.732-.565-2-1.465-3.8-2.7-1.5-1.1-2.315-1.95-2.45-2.55-.065-.267-.3-1.134-.698-2.6-.334-1.2-.518-2.083-.552-2.65-.032-1.166-.082-2.065-.147-2.7-.168-1.164-.65-1.982-1.45-2.45-2.234-1.232-5.284.15-9.15 4.15-1.667 2.267-2.75 4.134-3.25 5.6"/><path fill="#010101" d="M58.264 278.678c-.438 2.265-.056 3.382 1.15 3.35 1.234-2.47 2.833-5.438 4.8-8.9 1.97-3.426 6.054-5.594 12.25-6.5 1.588-.21 2.986-.276 4.2-.2-4.44-1.716-8.44-2.032-12-.948-.868.133-2.7 1.8-5.5 5-2.83 3.233-4.463 5.968-4.9 8.198M57.164 279.08c0-1.102-3.367-2.417-10.103-3.952-6.53-1.5-14.083-2.715-22.647-3.65-6.833.436-11.284 1.936-13.352 4.5-1.03 1.27-1.548 3.436-1.548 6.5 0 1.47.033 2.367.1 2.7.064.304.132 1.27.2 2.9.69 1.84 2.538 3.323 5.55 4.45 3.007 1.124 8.69 1.874 17.05 2.25l19-.05c1.034-.1 2.85-.45 5.45-1.05 2.365-.566 3.884-.967 4.55-1.2-.7-.6-1.85-.966-3.45-1.1-1.532-.1-3.716.017-6.55.35l-14.5-.2c-12.564-.434-20.2-1.566-22.898-3.4-.6-.4-1.1-1.065-1.5-2-.158-.332-.392-.6-.7-.8.02-.258.034-.56.05-.898.134-1.835.334-3.25.6-4.25 1.136-3.802 4.136-5.7 9-5.7 5.735 0 13.102 1.05 22.102 3.148 7.9 2.068 11.934 3.1 12.1 3.1.534 0 .834-.032.9-.1l-.05-.15c.232-.165.384-.297.45-.398.133-.134.198-.466.198-1M61.164 275.23c0-2.103-3.917-4.25-11.75-6.45-4.436-1.267-11.268-2.767-20.5-4.5-6.733-1.533-11.65-.95-14.75 1.75-1.833 1.633-2.75 3.367-2.75 5.2 0 .465.167 1.017.5 1.65.4.73.85 1.2 1.35 1.398.367-.366.585-1 .65-1.9.1-1.1.25-1.85.45-2.25.865-1.732 3.9-2.6 9.1-2.6 7.433 0 15.25 1.15 23.45 3.45 2.467.7 7.083 2.3 13.85 4.8.266.47.4.284.4-.55M56.564 262.428c-2.166-1-6.884-2.717-14.147-5.15-10.135-3.432-17.068-3.5-20.8-.2-1.2 1.07-2.152 2.585-2.853 4.552-.866 2.367-1.316 3.584-1.35 3.65l.35.7.65.25c.7-.433 1.333-1.15 1.9-2.15.564-1.233 1.05-2.15 1.448-2.75 1.434-2.235 4.084-3.35 7.95-3.35 3.2 0 7.8.916 13.8 2.75 1.928.576 3.762 1.095 5.5 1.55 4.696 1.603 7.63 2.637 8.8 3.1 3.135 1.267 6.085 1.9 8.853 1.9.305 0 .623-.02.95-.05-2.16-1.657-3.878-2.708-5.15-3.15-2.378-.772-4.312-1.304-5.8-1.6-.03-.02-.064-.032-.1-.052M74.314 245.28c-2.6 1.2-4.784 2.848-6.55 4.95-2 2.3-3 4.667-3 7.1 0 1.3.102 2.534.3 3.7.195 1.033 1.264 2.9 3.2 5.6-.06-.205-.11-.422-.148-.648-.355-2.247-.438-4.146-.25-5.7.232-2.167.482-3.7.75-4.6 1.065-3.567 4.116-6.283 9.148-8.15h2.65c.067.867.083 2.433.05 4.7.053.85.188 1.633.4 2.35.163 1.496.663 2.963 1.5 4.4 1.233 2.066 2.916 3.482 5.05 4.25 3.333 1.2 5.95 2.833 7.85 4.898 2.233 2.5 3.9 4.05 5 4.65.267.467.4.283.4-.55 0-1.5-1.333-3.667-4-6.5-2.667-2.9-5.083-4.733-7.25-5.5-2.9-1.032-4.685-2.933-5.35-5.7l-.4-2.35c.167-1.383.25-2.666.25-3.852 0-2.332-1-3.732-3-4.2-1.8-.4-3.998-.016-6.6 1.15M102.764 278.48c0-2.233-.25-4-.748-5.302-.767-2-2.217-3.467-4.35-4.4 0 .4.417 1.65 1.25 3.75.833 2.133 1.25 3.316 1.25 3.55 0 1-.2 1.952-.602 2.852l-.448 1c-.692-1.38-1.976-2.347-3.852-2.9.033.1.367.983 1 2.65.6 1.467.9 2.4.9 2.8 0 2.366-.8 4.55-2.4 6.55-2.933 3.666-7.95 5.5-15.05 5.5-6.3 0-12.816-.517-19.55-1.55-1.167 0-2.133.083-2.9.25l-.25.2c-.2.1-.315.217-.35.35 1.065 1.367 2.233 2.283 3.5 2.75 3.667 1.333 10.25 2 19.75 2 7.833 0 13.482-2.315 16.95-6.948 1.1-1.47 1.916-3.084 2.448-4.852.302-1.467.45-2.217.45-2.25v-1.05c1.4-.085 2.315-.902 2.75-2.45.17-1.636.252-2.468.252-2.5"/><path fill="#010101" d="M106.015 272.28c.732.434 1.2 1.266 1.4 2.5.064.467.1 1.282.1 2.45 0 .332-.334 1.48-1 3.45-.864 2.53-2.515 6.13-4.95 10.8-2.474 4.705-5.423 7.14-8.85 7.3-3.428.16-5.295-.19-5.6-1.05-.337-.833-.736-1.25-1.2-1.25-.834 0-1.134.1-.9.3-.035.065-.116.133-.25.2-.067 0-.1.25-.1.75 0 .933.563 1.767 1.7 2.5 1.332.832 3.016 1.25 5.05 1.25 5.666 0 10.533-3.65 14.6-10.95 1.267-2.3 2.384-4.818 3.35-7.55.7-2.3 1.05-3.468 1.05-3.5 0-3.603-.45-6.27-1.35-8-1.768-3.4-5.033-2.983-9.8 1.25.032.1.1.382.2.85.134.433.466.65 1 .65.666 0 1.332-.27 2-.8.666-.6 1.15-1 1.45-1.2l2.1.05z"/><path fill="#EFEEEE" d="M247.863 378.127h-4.4c3.66.42 7.01.772 10.05 1.052-1.793-.33-3.676-.68-5.65-1.053m138.7-16.046c-.34.804-.59 1.688-.75 2.65-.1.532-.132 1.282-.1 2.25.033 1.067.033 1.817 0 2.25-.038.278-.12.63-.25 1.05.32-.425.587-.908.8-1.45v-4.3c0-.537.033-1.152.1-1.85.053-.2.12-.4.2-.6m-110.55-219.2c-.49.143-.938.292-1.35.45-.154.08-.304.146-.45.2-.475.236-.89.486-1.25.75 1.903-.328 3.92.155 6.05 1.45.785.48 1.568.962 2.35 1.45.26.155.525.305.802.45 19.186 11.69 38.085 22.64 56.7 32.85.046.024.096.04.15.05.263.167.546.317.85.45 8.41 4.565 15.862 8.598 22.35 12.1.11.075.228.14.35.2.306.164.622.33.95.5.193.104.393.204.6.3 1.906 1.035 3.723 2.02 5.45 2.95 15.634 8.5 23.45 12.915 23.45 13.25-.007.053-.022.103-.05.15.052.032.1.05.15.05.672 0 1.222-.184 1.65-.55.378-.324.66-.79.85-1.4.116-.913.2-1.53.25-1.85v-.55c.437-1.055.887-2.32 1.35-3.8 1.033-3.368 2-7.284 2.9-11.75.905-3.402 1.757-6.535 2.55-9.4.01-.088.027-.17.05-.25.485-1.815.902-3.398 1.25-4.75.083-.123.183-.256.3-.4.346-.535.695-1.118 1.05-1.75.73-1.295 1.446-2.795 2.15-4.5.07-.22.138-.437.2-.65 2.133-6.636 3.2-9.986 3.2-10.05 0-1.427-.2-2.427-.6-3-.077-.093-.16-.176-.25-.25-.635-.5-2.35-.9-5.15-1.2-.27-.03-.536-.062-.8-.1-17.16-1.754-29.81-3.27-37.95-4.55-.067 0-6.367-.55-18.9-1.65-13.032-1.135-21.233-1.918-24.6-2.35-2.567-.334-6.617-1.1-12.15-2.3-3.067-.668-9.017-1.2-17.85-1.6-4.816-.433-9.033-.383-12.65.15l-.3.05-.55.1c-.04.005-.074.005-.1 0-.26.057-.493.107-.7.15-.045.004-.078.004-.1 0-.03.022-.066.038-.102.05-.627.124-1.21.257-1.75.4-.033.025-.067.042-.1.05-.03.007-.045.007-.05 0-.086.036-.152.07-.2.1m-118.95 77.4c-.096.944-.18 1.91-.256 2.893.013-.232.03-.467.052-.7 1.58.04 5.78.423 12.6 1.148 7.233.735 15.35 1.102 24.35 1.102 3.3 0 6.8-.285 10.5-.85 3.733-.6 6.915-.9 9.55-.9 1 0 3.184.168 6.55.5 3.534.367 5.55.65 6.05.852 1.402-3.434 2.917-3.968 4.552-1.602 1.4 2.035 2.1 3.984 2.1 5.852 0 1.232-.066 3.282-.2 6.148-.2 3.834-.434 6.785-.7 8.852-.132.832-.315 2.184-.55 4.05-.332 1.565-.982 2.716-1.95 3.45-.966.732-4.065 1.75-9.3 3.05-4.266 1.032-7.366 1.632-9.3 1.8v.05c0 .3-1.232.235-3.7-.2-4.032-.766-6.967-1.25-8.8-1.448-1.9-.135-4.65-.282-8.25-.45-5.1-.267-8.684-.4-10.75-.4-2.635 0-5.9.234-9.8.7-3.412.095-7.462-.673-12.15-2.3-.95 1.116-1.783 1.682-2.5 1.7-.17 1.73-.354 3.48-.55 5.25-1.166 10.6-1.75 22.2-1.75 34.8 0 2.723-.15 7.29-.45 13.7.754-.4 2.22-.35 4.4.15.172.038.355.07.55.1 15.07 3.377 24.288 5.51 27.65 6.4 5.934 1.532 15.716 3.75 29.35 6.647 3.434.733 9.718 1.885 18.85 3.45 9.267 1.6 14.368 2.4 15.302 2.4.832-.068 1.366-.083 1.6-.05.334.033.5.316.5.85 0 .36-.95.727-2.85 1.1 2.863.502 5.396.786 7.6.852 2.367.033 3.984.117 4.85.25h3.352c.332-.5.6-.75.8-.75.433 0 .733 1.283.9 3.85.1 1.333.167 2.717.2 4.15l-.25 4.648c-.068 1-.283 1.816-.65 2.45-.467.7-1.033 1.05-1.7 1.05-4 .202-10.3.317-18.9.352-1.532 0-3.1-.25-4.698-.75-.77-.233-1.435-.483-2-.75-1.3.066-2.184-.05-2.65-.352-.334-.2-.5-.566-.5-1.1 0-.3.15-1.217.45-2.75.333-1.534.5-2.483.5-2.85-.335-2.1-.5-3.35-.5-3.75 0-1.77.132-2.884.398-3.35.18-.33.413-.613.7-.852-5.555-.33-13.587-.91-24.102-1.75l-5.6-.45c.266.26.4.66.4 1.2 0 .6-.135 1.567-.4 2.9-.234 1.366-.35 2.866-.35 4.5 0 .3-.035.95-.1 1.95-.068.768-.068 1.365 0 1.8.365 1.4-.035 2.333-1.2 2.8-1.036.432-3.068.65-6.102.65-2.767 0-5.65-.434-8.65-1.3-2.965-.868-5.532-1.302-7.698-1.302-1.367 0-2.217-.25-2.552-.75-.133-.166-.198-.6-.198-1.3 0-.833.1-2.6.3-5.3.166-2.333.216-4.05.148-5.15 0-1.465.036-2.266.102-2.398.125-.164.29-.312.5-.45-2.297-.167-4.663-.35-7.102-.55-2.666-.168-6.267-.55-10.8-1.15-2.51-.31-4.56-.61-6.148-.9l-3.85-1.1c-.093-.022-.16-.055-.202-.1l-.148-.15c-.067-.088-.136-.188-.2-.3-.235 4.903-.35 8.27-.35 10.1 0 3.767.083 8.75.25 14.95V338.072c.333-1 .933-1.55 1.8-1.65.666-.066 1.814.134 3.45.6.083.026.167.04.25.052 5.022 1.432 9.257 2.148 12.698 2.148 4.435 0 7.2.133 8.302.4.833.167 1.25.633 1.25 1.4 0 .632-.15 2.165-.45 4.6-.3 2.4-.45 3.982-.45 4.75 0 1.768.05 3.532.15 5.3-.334.867-2 1.3-5 1.3-.2 0-2.284-.35-6.25-1.05-3.695-.665-6.847-1.066-9.45-1.2-.28.006-.548.006-.8 0-1.6-.033-2.935-.516-4-1.45-.77-.666-1.185-1.298-1.25-1.9-.06-.58-.11-1.278-.15-2.1.1 4.53.15 8.547.15 12.052 0 1.632.166 3.1.5 4.398.633 2.367 1.716 3.55 3.25 3.55.782 0 1.433-.23 1.948-.698 1.553.574 3.57 1.125 6.052 1.648 2.05.422 7 1.072 14.85 1.95-.165-.083-.298-.216-.4-.4l-.3-.55c-.098-.285-.165-.635-.2-1.05.005-.042.005-.09 0-.15.002-.056.002-.123 0-.198v-.2c.12-1.43.222-2.696.302-3.8.096-1.31.162-2.377.198-3.2-.1-1.8.135-3.317.7-4.55.8-1.768 2.085-2.05 3.852-.852l8.75.102.5.148 6.25.102c2.965.332 4.85.666 5.65 1 .565.2.85.582.85 1.148 0 .2-.085.6-.25 1.2-.167.6-.25 1-.25 1.2 0 .232.083 1.148.25 2.75.133 1.7.133 2.95 0 3.75-.007.035-.007.067 0 .1-.24 1.518-.29 2.934-.15 4.25-.006.074-.006.142 0 .2.006.09.022.173.052.25.004.192.02.376.05.55-.005.025-.005.043 0 .05 6.723.36 15.755 1.243 27.1 2.65.792.1 1.576.2 2.35.3-.467-.77-.7-1.172-.7-1.2 0-.3.05-.532.15-.698v-13.352c.6-1.033 1.967-1.6 4.1-1.7 1.968-.1 4.734.185 8.302.85h9.75c4.3.067 7.016.233 8.15.5.865.203 1.3.65 1.3 1.353 0 2.7.033 4.817.1 6.35.1 1.533.15 2.932.15 4.2l-.25 3.6c-.033.267.082.968.35 2.1-.034.5-.284.868-.75 1.103 2.05.133 3.784.2 5.2.2l19-.5c1.636-.353 3.336-.668 5.1-.95-.083-.037-.15-.087-.2-.15-.134-.2-.2-.55-.2-1.05.505-2.243.923-4.208 1.25-5.9.176-.872.325-1.673.45-2.398-.066-2.334.05-4.133.35-5.4.6-2.4 2.184-3.35 4.75-2.85l6.75-.1.5-.15h10.5v.15c.867.03 1.918.132 3.15.3 1.133.132 1.768.2 1.9.2 1.5-.134 2.466-.183 2.9-.15.633.065.95.565.95 1.5 0 .032-.2.718-.6 2.05-.4 1.4-.6 2.266-.6 2.6 0 .144.016.46.05.95.074 1.044.225 2.827.45 5.35 0 .034-.02.77-.052 2.2l-.05.2c-.028.098-.044.182-.05.25l4.45-.1c.155.075.32.142.5.2 1.39.44 4.306.675 8.75.7h.7c-.276.005-.477.056-.6.147.38.332 2.062.38 5.05.15 2.59-.223 5.757-.656 9.5-1.3-.2-.23-.3-.563-.3-1 0-1.134.148-2.85.45-5.15.022-.187.058-.37.1-.55.232-2.036.35-3.637.35-4.8 0-2.4.333-3.85 1-4.35.866-.634 3.083-.768 6.65-.4 9.816-.634 16.183-1.035 19.1-1.2.056.02.122.02.2 0 .195.008.38.008.55 0 1.77-.074 3.054.042 3.85.35l.45.25c-.012-.035-.012-.084 0-.148.12-1.027.27-2.16.45-3.4.05-.413.118-.848.2-1.3.18-1.667.412-3.732.7-6.2.368-3.17.602-5.9.7-8.2-.132.146-.28.262-.45.35v.05c-.097.052-.196.103-.3.15l-.102.05c-.336.17-1.836.335-4.5.5-.154.01-.305.01-.45 0-.394.044-.81.078-1.25.102-3.23.2-5.466.3-6.7.3-3.766.167-9.55.702-17.35 1.6-.733 0-1.166-.75-1.3-2.25v-2.45c-.167-4.03-.25-7.03-.25-9 0-.898.566-1.447 1.7-1.648 3.168-.332 6.783-.8 10.85-1.4l9.5-.148c.968 0 2.05-.066 3.25-.2h-12.15c-1.333.2-4.982.616-10.95 1.25-6.698.733-10.75 1.1-12.15 1.1l-9.998-.147c-.3-.034-3.134.165-8.5.6-2.21.173-4.025.323-5.45.448.952.066 2.002.1 3.15.1.2 0 .5-.082.9-.25.366-.166.665-.25.898-.25.2 0 .45.285.75.852.267.533.4.9.4 1.1 0 .468-.134 1.55-.4 3.25-.233 1.7-.35 2.934-.35 3.7 0 .733-.066 1.934-.2 3.6 0 .767-.066 1.317-.2 1.65-.233.468-1.166.817-2.8 1.05-2 .232-4.482.117-7.45-.35h-7c-.133.033-1.133.182-3 .45-2.133.3-4.05.45-5.75.45-2.2 0-3.516-.133-3.95-.4-.23-.1-.35-.5-.35-1.2 0-.9.083-2.083.25-3.55.233-1.7.4-2.983.5-3.85-.232-2.068-.267-3.668-.1-4.8.046-.315.113-.6.2-.85h-6.05c-.333.064-.667-.052-1-.353-.333-.266-.5-.583-.5-.95 0-.054.016-.122.05-.198-4.896.59-9.164 1.09-12.8 1.5-.333-.07-.634-.27-.9-.603-.233-.3-.35-.55-.35-.75 0-.766 3.032-1.5 9.1-2.2 13.8-1.6 21.1-2.448 21.9-2.55 2.833-.4 8.817-1.184 17.95-2.352 7.732-1 13.416-1.797 17.05-2.398 2.233-.4 6.782-1.102 13.65-2.102 7.966-1.166 14.417-2.047 19.35-2.648 3.765-.592 6.882-1.025 9.35-1.3.067-.007.15-.022.25-.052.103.014.22.014.35 0 .368-.037.734-.07 1.1-.1 2-.162 3.418-.18 4.25-.05.368.047.685.147.95.3.13.102.246.202.35.3.032-.32.064-.655.102-1 .732-11.167 1.25-18.6 1.55-22.3.5-5.867.95-11.35 1.35-16.45.767-9.933 1.15-16.45 1.15-19.55-.027-.597-.044-1.197-.05-1.8-.533-5.035-.8-7.918-.8-8.65 0-1.103.083-2.403.25-3.898-.35-7.95-.6-14.218-.75-18.802-.1-3.428-.15-5.895-.15-7.398 0-.704-.083-1.27-.25-1.7-.222-.53-.59-.812-1.1-.85-.16-.016-.376-.033-.65-.05-.57.025-1.386.075-2.45.15h-.05c-.565.063-1.198.13-1.9.2-3.433 0-10.317-.417-20.65-1.25-10.532-.833-17.1-1.5-19.7-2l-26.35-.25c-6.8-.3-27.35-1.634-61.65-4-9.566-.333-15.733-.05-18.5.85-2.733.866-8.733 1.133-18 .8h-16l-1 .25-24.5.25c-5.4 1.833-8.583 2.733-9.55 2.7-.796 0-2.678-.2-5.65-.6h-.7c-.153.01-.286.01-.398 0-1.723.134-3.04.534-3.95 1.2-.028-.075-.044-.158-.05-.25l-.7-1.25c-.245-.233-.478-.316-.7-.25-.728.287-1.41 2.437-2.05 6.45-.306 1.877-.572 3.927-.806 6.142m211.1 9.05c10.066-.5 15.133-.75 15.2-.75 2.9 0 4.782 1.05 5.65 3.15.333.8.5 2.167.5 4.1 0 4.567-.885 8.884-2.65 12.95-2.7 6.234-6.95 9.584-12.75 10.05h-34.5c-5-.5-16.3-.917-33.9-1.25-.233 0-2.532.15-6.9.45-3.8.233-6.95.283-9.45.15-7.967-.467-12.166-2.917-12.6-7.35-.332-3.668-.5-6.918-.5-9.75-.267-3.268-.066-6.15.6-8.65 1.367-4.934 4.45-6.3 9.25-4.1 30.334 1.166 48.918 1.75 55.75 1.75 6.2 0 14.967-.25 26.3-.75m-13.75 113.797c1.4.035 2.1.552 2.1 1.553 0 .667-.15 1.716-.45 3.15-.3 1.53-.482 3.082-.55 4.648-.033.768-.017 2.102.05 4-.132 1.7-.833 2.984-2.1 3.852h-8c-.8-.168-3.183.032-7.15.6-4.434.6-7.217.9-8.35.9-1.7 0-2.767-.418-3.2-1.25-.1-.2-.15-.72-.15-1.552 0-.866.15-1.967.45-3.3v-9.602c1.3-1.566 2.868-2.332 4.7-2.3 3.733.134 6.35.068 7.85-.2l8.35-.25c3.367-.165 5.516-.25 6.45-.25m-62.05.705c2 .2 3.383.517 4.15.95.566.332.85.816.85 1.45 0 .032-.2.567-.6 1.6-.368 1-.55 1.65-.55 1.95 0 .2-.068 1.116-.2 2.75-.135 1.73-.184 3.05-.15 3.95.133 2.698-.05 4.35-.55 4.948-.834 1-3 1.3-6.5.9l-6.95.05-1.15.1c-.4 0-.767-.034-1.1-.1l-12.5-.15c-.9-.832-1.417-2.017-1.55-3.55v-3.7c-.367-4.632-.55-7.15-.55-7.55 0-.566.05-.967.15-1.2.3-.63.948-1.015 1.948-1.147l7-.1c5.5-.9 8.584-1.317 9.25-1.25l9 .1m-85.948-2c.268-.135.9-.1 1.9.1 3.934.866 8.334 1.3 13.2 1.3 6.3 0 10.167.118 11.602.352.932.166 1.4.615 1.4 1.35 0 .266-.118 1.633-.352 4.1-.267 2.434-.384 3.833-.35 4.2-.036 3.867-.15 6.017-.352 6.45-.5 1.2-2.2 1.8-5.1 1.8-1.267 0-5.335-.4-12.2-1.2-7.268-.834-10.95-1.433-11.05-1.8-.233-.6-.367-1.483-.4-2.65.033-1.134.052-1.817.052-2.05 0-.467.116-1.667.35-3.6.266-1.967.4-3.068.4-3.3v-3.55c.334-.87.632-1.37.9-1.5m-30.5-176.703c-1.975 1.12-2.873 2.27-2.7 3.45.367 2.6-.433 5.85-2.4 9.75-1.1 2.166-2.8 5.3-5.1 9.4-.9 1.865-1.783 4.816-2.65 8.85-.877 4.025-1.326 7.19-1.35 9.5 1.928-1.39 5.346-3.523 10.25-6.4 8.233-4.7 12.533-7.184 12.9-7.45 4-3.035 8.2-5.75 12.6-8.15 2.67-1.47 4.886-2.47 6.65-3-.253.182-.485.366-.7.55.227-.18.46-.364.7-.55 1.2-.934 4.067-2.418 8.6-4.45l.9-.4c5.01-2.24 7.592-3.407 7.75-3.5 6.995-3.838 12.88-7.472 17.65-10.9 1.08-.79 2.128-1.506 3.148-2.15l7.4-3.9c.134-.026.267-.06.4-.1.038-.02.088-.038.15-.05.023-.022.057-.04.1-.05.093-.027.192-.06.3-.1 2.887-.78 5.72-2.013 8.5-3.7 2.736-1.697 5.07-3.014 7-3.95 2.066-1.4 3.782-2.4 5.15-3l.25-.1c.09-.04.19-.072.3-.1h-.05c-.94-.356-2.323-.506-4.15-.45-3.188.144-7.705.91-13.55 2.3-1.468.365-6.968 1.8-16.5 4.3-6.534 1.7-11.335 2.8-14.4 3.3-3.067.966-7.835 2.05-14.3 3.25-3.668.666-9.234 1.666-16.7 3-.06.01-.11.01-.15 0-.076.028-.143.044-.2.05-.058.01-.108.01-.148 0-.35.082-.68.15-1 .2-.155.048-.305.08-.45.1l-13.1 3.85c-.412.222-.778.42-1.1.6"/><path fill="#E22526" d="M263.514 361.377c-1.133-.266-3.85-.433-8.148-.498h-9.75c-3.568-.667-6.334-.95-8.3-.85-2.134.1-3.5.665-4.102 1.7v13.35c-.1.166-.15.4-.15.7 0 .027.233.427.7 1.2.092.15.19.318.3.5 1.302 1 3.568 1.215 6.802.648h7c1.972.373 3.854.722 5.648 1.05.278.077.562.144.85.2 4 .734 6.668 1.1 8 1.1.9 0 1.584-.132 2.05-.398.468-.234.718-.6.75-1.1-.267-1.135-.382-1.835-.35-2.102l.25-3.6c0-1.267-.05-2.668-.15-4.2-.065-1.534-.1-3.65-.1-6.35 0-.7-.433-1.15-1.3-1.35m43.35-.4l-6.75.103c-2.567-.5-4.15.45-4.75 2.85-.3 1.267-.417 3.067-.35 5.4-.126.726-.276 1.526-.45 2.4-.328 1.69-.746 3.657-1.25 5.897 0 .5.066.852.2 1.052.05.062.116.11.2.148.383.367 1.05.55 2 .55 3.1 0 6.532-.15 10.3-.45 5.966-.467 9-.7 9.1-.7 1.767-.1 2.982-.147 3.65-.147 1.132.032 2.582.05 4.35.05 1.42 0 2.353-.566 2.8-1.7.006-.067.023-.152.05-.25l.05-.2.05-2.2c-.224-2.522-.372-4.305-.45-5.35-.032-.49-.05-.806-.05-.95 0-.333.2-1.2.6-2.6.4-1.332.6-2.018.6-2.05 0-.934-.315-1.434-.948-1.5-.434-.034-1.4.017-2.9.15-.133 0-.768-.067-1.9-.2-1.232-.168-2.283-.268-3.15-.3v-.15h-10.5l-.503.15m75.5-2.2c-.17.008-.354.008-.55 0-.077.02-.144.02-.2 0-2.916.165-9.282.566-19.1 1.2-3.566-.368-5.783-.233-6.65.4-.666.5-1 1.95-1 4.35 0 1.164-.116 2.765-.35 4.8-.04.18-.076.363-.1.55-.3 2.3-.45 4.017-.45 5.15 0 .437.1.77.3 1 .266.333.698.5 1.3.5 12.468-1.966 19.9-3.017 22.3-3.15.78-.02 1.496-.034 2.15-.05 2.574-.064 4.008-.098 4.3-.1v-.05c.01-.167.026-.35.05-.55.193-1.293.428-2.793.7-4.5.8-5.136 1.2-7.802 1.2-8 0-.404-.017-.805-.05-1.2-.795-.31-2.078-.424-3.85-.35m-40.25-39.55c-3.633.6-9.316 1.397-17.05 2.4-9.132 1.167-15.116 1.952-17.95 2.35-.8.103-8.1.95-21.9 2.552-6.066.7-9.1 1.432-9.1 2.2 0 .2.117.45.35.75.268.332.568.533.9.6 3.638-.407 7.904-.907 12.8-1.5-.032.077-.05.145-.05.2 0 .366.168.683.5.95.334.3.668.416 1 .35h6.05c-.086.253-.153.536-.2.85-.166 1.134-.132 2.733.102 4.8-.1.87-.268 2.15-.5 3.852-.168 1.468-.25 2.65-.25 3.55 0 .7.117 1.1.35 1.2.434.267 1.75.4 3.95.4 1.7 0 3.616-.15 5.75-.45 1.866-.267 2.866-.417 3-.45h7c2.967.468 5.45.582 7.45.35 1.633-.234 2.566-.582 2.8-1.05.133-.332.2-.882.2-1.65.133-1.666.2-2.866.2-3.6 0-.767.116-2 .35-3.7.267-1.7.4-2.78.4-3.25 0-.2-.134-.566-.4-1.1-.3-.567-.55-.85-.75-.85-.233 0-.533.082-.9.25-.4.166-.7.25-.9.25-1.147 0-2.197-.035-3.15-.102 1.426-.125 3.24-.275 5.45-.45 5.367-.433 8.2-.632 8.5-.6l10 .15c1.4 0 5.45-.368 12.15-1.103 5.967-.634 9.617-1.05 10.95-1.25h12.15c-1.2.134-2.283.2-3.25.2l-9.5.15c-4.067.6-7.683 1.066-10.85 1.398-1.134.2-1.7.75-1.7 1.65 0 1.967.082 4.967.25 9v2.45c.133 1.5.566 2.25 1.3 2.25 7.8-.9 13.583-1.435 17.35-1.603 1.233 0 3.468-.1 6.7-.3.44-.023.857-.057 1.25-.1.145.01.295.01.45 0 2.663-.166 4.163-.332 4.5-.5l.1-.05c.104-.05.204-.1.3-.15v-.05c.197-1.407.397-2.892.6-4.45.453-4.24.853-7.94 1.2-11.1-.128-.026-.262-.06-.4-.1.026-.03.06-.08.1-.15-.005-.006-.005-.02 0-.05.07-.128.136-.263.2-.4l.102-.2c.033-.12.084-.254.15-.4.533-4.985.916-8.436 1.148-10.35-.266-.152-.582-.253-.95-.3-.832-.13-2.25-.112-4.25.05-.365.03-.73.062-1.1.1-.13.014-.247.014-.35 0-.1.03-.183.045-.25.052-2.468.276-5.585.708-9.35 1.3-4.933.6-11.384 1.482-19.35 2.648-6.87 1.002-11.417 1.706-13.652 2.104m-164.25 46.6c-.08 1.105-.18 2.372-.3 3.8v.4c.004.06.004.107 0 .15.034.414.1.765.2 1.05l.3.55c.278.418.678.635 1.2.65 2.166.1 3.45.25 3.85.45.867.5 1.95.882 3.25 1.148 3.2.667 7.983 1 14.35 1 2.217 0 3.416-.333 3.602-1-.002-.008-.002-.026 0-.05-.03-.175-.045-.36-.05-.55-.03-.077-.046-.16-.05-.25-.007-.058-.007-.128 0-.2-.14-1.316-.09-2.732.148-4.25-.006-.034-.006-.066 0-.102.134-.8.134-2.05 0-3.75-.168-1.6-.25-2.517-.25-2.75 0-.198.082-.6.25-1.198.166-.6.25-1 .25-1.2 0-.566-.284-.95-.85-1.148-.8-.334-2.684-.668-5.65-1l-6.25-.102-.5-.148-8.75-.102c-1.767-1.2-3.05-.917-3.85.852-.567 1.232-.8 2.75-.7 4.55-.037.824-.102 1.89-.2 3.2m-8.05-26.6c-3.442 0-7.676-.718-12.698-2.15-.084-.01-.168-.026-.25-.05-1.634-.467-2.784-.667-3.45-.6-.867.1-1.468.65-1.8 1.65V345.178c.012 1.602.045 2.97.1 4.1.04.82.09 1.52.15 2.1.065.6.48 1.233 1.25 1.9 1.065.933 2.398 1.416 4 1.45.252.006.52.006.8 0 2.604.133 5.755.534 9.45 1.2 3.966.698 6.05 1.05 6.25 1.05 3 0 4.666-.434 5-1.3-.1-1.77-.15-3.533-.15-5.302 0-.767.15-2.35.45-4.75.3-2.434.45-3.967.45-4.6 0-.766-.418-1.232-1.25-1.4-1.1-.264-3.867-.397-8.3-.397m-18.65-21.05c.05.812.233 1.462.548 1.945.064.113.132.213.2.3l.148.15c.044.046.11.08.2.1l3.853 1.102c1.588.29 3.64.59 6.148.9 4.534.6 8.135.98 10.8 1.15 2.44.2 4.805.382 7.103.548-.21.14-.375.287-.5.45-.067.134-.102.933-.102 2.4.07 1.1.02 2.817-.147 5.15-.2 2.7-.3 4.466-.3 5.3 0 .7.065 1.133.198 1.3.335.5 1.186.75 2.553.75 2.166 0 4.732.433 7.698 1.3 3 .867 5.883 1.3 8.65 1.3 3.035 0 5.068-.216 6.102-.65 1.168-.466 1.566-1.4 1.2-2.8-.067-.434-.067-1.03 0-1.8.066-1 .1-1.65.1-1.95 0-1.633.118-3.133.35-4.5.27-1.332.4-2.297.4-2.898 0-.54-.132-.94-.4-1.2 1.98.16 3.847.308 5.6.45 10.516.838 18.548 1.42 24.103 1.75-.286.24-.52.523-.7.852-.267.466-.4 1.58-.4 3.35 0 .4.17 1.65.5 3.75 0 .366-.165 1.315-.5 2.85-.3 1.532-.448 2.45-.448 2.75 0 .533.166.9.5 1.1.466.3 1.35.417 2.648.35.567.27 1.233.52 2 .75 1.6.5 3.168.75 4.7.75 8.6-.034 14.9-.15 18.9-.35.667 0 1.233-.35 1.7-1.05.367-.635.582-1.45.65-2.45l.25-4.65c-.033-1.43-.102-2.815-.2-4.147-.167-2.568-.468-3.852-.9-3.852-.2 0-.468.25-.8.75h-3.35c-.868-.132-2.484-.216-4.852-.25-2.203-.065-4.736-.35-7.6-.85 1.9-.374 2.85-.74 2.85-1.1 0-.534-.166-.817-.5-.85-.232-.034-.767-.02-1.6.05-.933 0-6.03-.8-15.3-2.4-9.133-1.566-15.417-2.718-18.85-3.45-13.634-2.9-23.418-5.116-29.352-6.65-3.36-.888-12.576-3.02-27.647-6.397-.196-.03-.38-.063-.552-.102-2.178-.498-3.644-.548-4.397-.147-.38.207-.596.504-.65.898 0 .5-.083 1.3-.25 2.4 0 1.1-.083 2.782-.25 5.05 0 .466-.033 1.3-.1 2.5m51 8.05c-4.445.2-9.028-.185-13.75-1.15 5.048.425 9.664.81 13.85 1.15-.038-.002-.074-.002-.1 0m3.35 17.1v3.55c0 .234-.133 1.334-.4 3.302-.233 1.933-.35 3.133-.35 3.6 0 .234-.018.917-.05 2.052.032 1.166.166 2.047.398 2.648.102.367 3.784.966 11.052 1.8 6.865.802 10.932 1.2 12.2 1.2 2.9 0 4.6-.602 5.1-1.8.2-.433.317-2.583.35-6.45-.032-.367.085-1.766.352-4.2.233-2.467.35-3.834.35-4.1 0-.735-.466-1.185-1.4-1.35-1.433-.234-5.3-.352-11.6-.352-4.866 0-9.266-.433-13.2-1.3-1-.2-1.63-.235-1.898-.1-.266.133-.566.633-.9 1.5m77.847.4c-.666-.067-3.75.35-9.25 1.25l-7 .1c-1 .132-1.65.517-1.95 1.15-.1.23-.15.632-.15 1.2 0 .4.185 2.916.552 7.55v3.7c.133 1.53.65 2.716 1.55 3.55l12.5.147c.333.068.7.102 1.1.102l1.15-.103 6.95-.05c3.5.4 5.666.102 6.5-.898.5-.6.683-2.25.55-4.95-.033-.9.017-2.218.15-3.95.132-1.634.2-2.55.2-2.75 0-.3.182-.95.55-1.95.4-1.034.6-1.567.6-1.6 0-.634-.283-1.118-.85-1.45-.768-.433-2.15-.75-4.15-.95l-9.002-.1m56.25-.103c-1.5.267-4.116.334-7.85.2-1.832-.032-3.4.733-4.7 2.3v9.6c-.3 1.334-.45 2.434-.45 3.3 0 .834.05 1.35.15 1.552.434.83 1.5 1.25 3.2 1.25 1.134 0 3.917-.3 8.35-.9 3.968-.568 6.35-.77 7.15-.6h8c1.267-.868 1.968-2.15 2.1-3.852-.066-1.9-.083-3.233-.05-4 .067-1.567.25-3.117.55-4.65.3-1.432.45-2.48.45-3.148 0-1-.7-1.52-2.1-1.552-.934 0-3.083.084-6.45.25l-8.35.25z"/><path fill="#BF2026" d="M384.314 373.43v-.053.052m2.3-11.45c.333-.7.5-1.27.5-1.702 0-.357-.15-.656-.45-.9l-.45-.25c.033.397.05.8.05 1.2 0 .2-.4 2.866-1.2 8-.272 1.708-.507 3.208-.7 4.5.04-.056.092-.122.15-.2.233-.297.418-.682.55-1.148.16-.44.296-.84.4-1.2.13-.42.212-.77.25-1.05.033-.436.033-1.186 0-2.25-.032-.967 0-1.717.1-2.25.16-.96.41-1.844.75-2.648.02-.04.036-.07.05-.103m12.4-6.55c-.2.53-.35 1.216-.45 2.05-.066.166-.232 1.367-.5 3.6-.114.915-.198 1.698-.25 2.35-.132 1.1-.2 1.866-.2 2.3 0 1 .117 1.9.35 2.7.165.57.382 1.002.65 1.3.338.4.754.602 1.25.602.6 0 1.367-.268 2.3-.8.967-.634 1.584-1.017 1.85-1.15.2-.1 1.17-.3 2.9-.6 1.467-.3 2.27-.616 2.4-.95.124-.332.24-.7.35-1.1.01-.105.028-.223.05-.352l.352-5.5c.06-.627.143-1.328.25-2.1.267-2 .4-3.45.4-4.35 0-.936-.734-1.352-2.2-1.25-.635.03-3.1.466-7.4 1.3-1.035.366-1.736 1.015-2.102 1.95m-8.95-30.5c-.35 3.158-.748 6.86-1.2 11.1-.203 1.56-.403 3.043-.6 4.45.17-.088.318-.205.45-.35.455-.407.705-.94.75-1.602-.102-1.167-.102-2.017 0-2.55.832-5 1.25-8.316 1.25-9.95 0-.528-.217-.895-.65-1.1m43.45 24c0-1.098-.166-1.7-.5-1.8-.634-.167-2.617.165-5.95 1-2.267.165-3.882.732-4.85 1.7-.567.567-.933 1.332-1.1 2.3-.187.866-.437 2.25-.75 4.15-.04.145-.074.296-.1.45-.434 2.632-.65 4.3-.65 5 0 .213.032.414.1.6.04.127.09.244.15.35.233.365.567.55 1 .55 2.52-1.044 4.52-1.83 6-2.35 1.135-.376 1.95-.59 2.45-.65 2.065-.3 3.217-.832 3.45-1.6-.167-.9-.218-1.566-.15-2 .187-1.44.354-2.69.5-3.75.266-2.266.4-3.585.4-3.95m41-10.3c0-2.1-1.533-2.798-4.6-2.1-.055.01-.104.01-.15 0-1.25.323-2.267.74-3.05 1.25-.228-.157-.495-.24-.8-.25-1.034 0-1.55 1.15-1.55 3.45 0 .346.067.61.2.8-.133.634-.3 1.468-.5 2.5-.106.578-.19 1.113-.25 1.6-.06.39-.108.74-.15 1.05l-.05.95v.25c0 .733.016 1.184.05 1.35.167.668.566 1 1.2 1H465.313l3.1-.3c.295-.067.595-.15.9-.25l-.05.05c1.347-.378 2.397-.962 3.15-1.75.866-.935 1.3-2.05 1.3-3.35-.027-.624.055-1.472.25-2.55.042-.23.092-.48.148-.75.268-1.467.402-2.45.402-2.95m-30.3 4.85c-.067.103-.1.65-.1 1.65 0 .77-.283 2.47-.85 5.102-.018.065-.067.283-.15.65h.05c-.06.208-.107.44-.15.7l-.2.948c-.3 1.4-.45 2.267-.45 2.6 0 1.167.4 1.75 1.2 1.75l.7-.048c1.477-.072 3.227-.438 5.25-1.102 2.334-.768 3.584-1.436 3.75-2 .133-.5.15-1.268.05-2.3-.132-1-.2-1.618-.2-1.85.005-.04.02-.09.05-.15.003-.226.02-.462.05-.7.094-1.075.128-1.908.102-2.5.433-1.936.65-3.034.65-3.3 0-.734-.418-1.15-1.25-1.25-.934-.136-2.568.1-4.9.698-2.035.27-3.235.636-3.602 1.103m5.4-37.5c-1.7.397-8.117 1.397-19.25 2.998-6.1.9-14.85 2.15-26.25 3.75l-8.5.15c-1.367-.534-2.3-.068-2.8 1.398-.03.058-.18.943-.45 2.65v-1.25c-.02-.923-.235-1.623-.65-2.1-.104-.1-.22-.198-.35-.302-.233 1.914-.616 5.365-1.15 10.35-.065.145-.116.28-.15.4.1-.268.197-.568.3-.9.52-1.643.838-3.19.95-4.648.452-.062.77-.36.95-.898-.3 1.73-.45 3.3-.45 4.698 0 .5.066.882.2 1.15.094.15.227.267.4.35.26.188.626.288 1.1.302h.1c.686 0 4.152-.537 10.4-1.602-.453.188-.753.404-.9.648-.366 1.834-.467 3.334-.3 4.5.1.8-.066 2.268-.5 4.4-.466 2.266-.7 3.732-.7 4.4v.1c.007.333.04.6.1.8.004.1.022.18.05.25.2.433.6.65 1.2.65 4.97-1.067 7.917-2.117 8.852-3.15.666-.733 1-2.1 1-4.1.03-1.535.113-2.968.25-4.3l.25-1.8c.112-.79.263-1.54.45-2.25-.013-.05-.013-.1 0-.15-.963-.694-2.446-1.013-4.45-.95l7.9-1.4c.383-.058.783-.125 1.2-.2 5.23-.945 9.78-1.76 13.65-2.448 8.745-1.568 13.928-2.47 15.548-2.7 5.334-.866 9.718-1.584 13.15-2.15 2.635-.425 5.002-.792 7.1-1.1-.963.513-1.43 1.214-1.4 2.1V313.83l-.05 1.75c-.067 1.45-.2 3.268-.4 5.448v1.95c.134 1 .552 1.5 1.25 1.5.367 0 .784-.118 1.25-.352.367-.21.968-.34 1.802-.398H471.016c.12 0 .27.034.45.102.21-.072.427-.14.65-.2 1.665-.454 3-.67 4-.65h.05c.396-.354.613-.77.65-1.25l-.05-3c.167-3.567.25-5.55.25-5.95 0-1.033-.1-1.682-.3-1.95-.163-.227-.38-.41-.65-.55.56-.506.992-1.472 1.3-2.9.266-1.267.4-2.434.4-3.5 0-1.06-.184-1.76-.55-2.1-.078-.058-.145-.11-.2-.15h-.05c-.934-.4-2.9-.267-5.9.4-.752.166-1.568.367-2.45.6-5.134.47-9.1.984-11.9 1.552-1.702.363-4.07.966-7.103 1.8m-56.85 34.25c-.698.563-1.198 1.332-1.5 2.298l-.4 2.55c-.165.966-.415 2.8-.75 5.5-.33 2.602-.5 4.02-.5 4.25 0 1.267.42 1.9 1.25 1.9 2.18-.502 3.913-.968 5.202-1.4 1.45-.493 2.332-.944 2.65-1.35.5-.634.85-1.884 1.05-3.75.4-3.2.6-5.617.6-7.25 0-.3.1-.817.3-1.55.232-.734.35-1.234.35-1.5 0-.368-.082-.67-.25-.9-.508-.63-1.674-.764-3.5-.4-2.068.4-3.568.934-4.5 1.6m20.098-4.25c-.366.534-.616 1.27-.75 2.202-.066.5-.15 1.266-.25 2.3-.233 1.033-.532 2.7-.9 5-.398 2.4-.6 3.783-.6 4.15 0 1.065.418 1.6 1.25 1.6l7.5-1.6c.834-.167 1.418-.483 1.75-.95.134-.2.267-.6.4-1.2.3-1.5.45-3.05.45-4.65 0-.9.166-2.25.5-4.05.333-1.767.5-2.883.5-3.35 0-1.2-1.282-1.55-3.85-1.05-.067.032-1.25.182-3.55.45-1.232.167-2.05.547-2.45 1.15m31.1 5.1c.602-6.3.9-9.483.9-9.548 0-1.834-.782-2.484-2.35-1.95-.832.298-1.933.767-3.3 1.4-.233 0-.433-.084-.6-.25-.167-.168-.35-.25-.55-.25-.935 0-1.6 1.563-2 4.7-.233 1.6-.35 3.197-.35 4.8 0 .397-.15 1.2-.45 2.397-.034.232-.15.616-.35 1.15-.233.5-.35.832-.35 1 0 .966.415 1.45 1.25 1.45.632 0 1.75-.334 3.35-1 1.5-.702 2.3-1.068 2.4-1.102 1.165-.566 1.915-1.133 2.25-1.7.1-.2.15-.566.15-1.097m18.9-2c.7-.202 1.15-.817 1.35-1.853.102-1.102.15-2.352.15-3.75.568-3.867.85-6.35.85-7.45 0-.4-.066-.698-.2-.9-.266-.333-.73-.216-1.4.352-4.165-.3-6.882.814-8.148 3.35-.667 1.3-1 3.75-1 7.35v2.3c.134 1.235.567 1.853 1.3 1.853 3.532-.437 5.9-.854 7.098-1.252m-16.75-20.85l-.5 3.6c-.332 2.198-.5 3.58-.5 4.148 0 1 .017 1.618.05 1.85.168.866.584 1.3 1.25 1.3 1.5 0 3.134-.215 4.9-.648 2.468-.602 3.816-1.436 4.05-2.5.334-1.398.5-2.648.5-3.75 0-.667.117-1.95.35-3.852.055-.377.105-.728.15-1.05.168-1.274.25-2.124.25-2.55 0-.867-.5-1.25-1.5-1.15-.8.067-2.983.435-6.55 1.102-1.366.234-2.167.75-2.4 1.55-.132.43-.15 1.082-.05 1.95m-10.55-1c-5.9.632-9.466 1.647-10.7 3.05-.467.5-.7 1.133-.7 1.9 0 .467.02 1.15.05 2.05-.018.15-.102.617-.25 1.4-.11.607-.26 1.41-.45 2.398-.366 1.935-.55 3.267-.55 4 0 .533.018.85.05.95.1.266.384.482.85.648h1.5c1.868-.666 2.885-1.017 3.052-1.05.8-.1 1.934-.25 3.4-.45 2.767-.23 4.232-.698 4.4-1.398.1-.5.133-1.167.1-2-.067-.936-.1-1.633-.1-2.102.073-1.87.14-3.42.2-4.648.065-2.082.1-3.25.1-3.5 0-.435-.318-.85-.95-1.25"/><path fill="#CDCCCC" d="M425.764 319.03c-1.578.334-4.246.667-8 .997-.195.052-.38.085-.55.1l-7.9 1.4c2.005-.062 3.487.257 4.45.95-.012.05-.012.1 0 .148-.187.71-.337 1.46-.45 2.25l-.25 1.8c-.137 1.333-.22 2.768-.25 4.3 0 2-.333 3.37-1 4.102-.934 1.034-3.884 2.084-8.85 3.15-.6 0-1-.215-1.2-.65-.03-.068-.047-.152-.05-.25-.062-.2-.095-.466-.1-.8v-.1c0-.666.233-2.134.7-4.4.433-2.132.6-3.6.5-4.4-.168-1.167-.067-2.667.3-4.5.146-.243.446-.462.9-.65-6.25 1.07-9.716 1.603-10.4 1.603h-.1c-.475-.013-.842-.11-1.1-.3.088.972.255 1.79.5 2.448-.828 3.088-1.927 8.17-3.302 15.25-1.112 5.73-1.945 10.514-2.5 14.352-.18 1.24-.33 2.375-.45 3.398-.01.066-.01.117 0 .15.3.242.45.543.45.9 0 .432-.166 1-.5 1.698-.014.034-.03.065-.05.1-.08.204-.147.403-.2.603-.066.696-.1 1.31-.1 1.85v4.5c.366 2.234 1.566 3.35 3.6 3.35.867 0 3.783-.882 8.75-2.65-.27-.297-.485-.73-.65-1.3-.232-.8-.35-1.7-.35-2.7 0-.433.066-1.198.2-2.3.053-.65.136-1.434.25-2.35.267-2.234.434-3.434.5-3.602.1-.832.25-1.518.45-2.05.366-.933 1.066-1.583 2.1-1.95 4.3-.832 6.767-1.268 7.4-1.3 1.467-.1 2.2.317 2.2 1.25 0 .9-.134 2.35-.4 4.35-.106.775-.19 1.476-.25 2.1l-.35 5.5c-.022.13-.04.247-.05.352 5.672-2.054 8.705-3.12 9.1-3.198.312-.06.63-.125.95-.2-.067-.186-.1-.386-.1-.602 0-.7.216-2.364.648-5 .027-.15.06-.304.1-.45.315-1.898.565-3.28.75-4.148.17-.967.534-1.733 1.102-2.3.966-.966 2.583-1.534 4.85-1.7 3.333-.834 5.316-1.168 5.95-1 .334.1.5.7.5 1.8 0 .366-.134 1.683-.4 3.95-.146 1.06-.312 2.31-.5 3.75-.066.434-.016 1.1.15 2-.232.768-1.384 1.3-3.45 1.6-.5.06-1.315.275-2.45.65 4.04-.842 8.672-1.875 13.9-3.1 1.47-.347 2.87-.68 4.2-1-.248.04-.48.057-.7.05l-.7.05c-.8 0-1.2-.584-1.2-1.75 0-.334.15-1.2.45-2.6l.2-.95c.04-.26.092-.49.15-.7h-.05l.148-.65c.567-2.633.85-4.332.85-5.1 0-1 .034-1.55.102-1.65.366-.465 1.567-.832 3.6-1.1 2.333-.6 3.968-.834 4.9-.7.833.1 1.25.518 1.25 1.25 0 .268-.217 1.366-.65 3.3.027.593-.007 1.427-.1 2.5-.032.24-.05.473-.05.7-.03.06-.046.11-.05.15 0 .233.065.85.2 1.85.1 1.032.082 1.8-.05 2.3-.167.566-1.417 1.232-3.75 2-.048.018-.08.033-.1.05 5.756-1.346 9.655-2.23 11.698-2.65 3.394-.67 6.11-1.718 8.15-3.148l.05-.05c-.305.1-.604.183-.9.25l-3.1.3H464.86c-.633 0-1.033-.332-1.2-1-.033-.166-.05-.616-.05-1.35v-.25l.05-.95c.042-.31.093-.66.15-1.05.06-.487.144-1.02.25-1.6.2-1.032.366-1.866.5-2.5-.134-.19-.2-.454-.2-.802 0-2.3.517-3.45 1.55-3.45.306.01.573.095.8.25.783-.51 1.8-.925 3.05-1.25.046.013.097.013.15 0 3.067-.698 4.6 0 4.6 2.1 0 .5-.133 1.485-.4 2.952-.056.27-.105.52-.148.75.21-.695.427-1.46.65-2.3 1-3.767 1.5-8.517 1.5-14.25v-2.802c-1-.02-2.335.197-4 .65-.226.062-.44.13-.65.2-.183-.066-.33-.102-.45-.102H470.312c-.834.058-1.435.19-1.8.4-.468.234-.885.35-1.25.35-.7 0-1.118-.5-1.25-1.5v-1.95c.197-2.18.33-3.997.4-5.45l.05-1.75v-.197c-.03-.89.436-1.59 1.398-2.102-2.098.31-4.465.676-7.1 1.102-3.434.566-7.816 1.283-13.15 2.15-1.62.23-6.805 1.13-15.55 2.698-3.384.865-5.484 1.383-6.296 1.55m10.75-.552c0 .252-.033 1.418-.1 3.5-.06 1.228-.126 2.78-.2 4.65 0 .466.033 1.165.1 2.1.034.833 0 1.5-.1 2-.167.7-1.634 1.167-4.4 1.4-1.466.198-2.6.348-3.4.448-.166.034-1.183.383-3.05 1.05h-1.5c-.467-.167-.75-.382-.85-.65-.033-.1-.05-.415-.05-.948 0-.732.183-2.066.55-4 .19-.99.34-1.79.45-2.4.147-.782.23-1.25.25-1.4-.034-.898-.05-1.58-.05-2.048 0-.767.232-1.4.7-1.9 1.233-1.4 4.8-2.416 10.7-3.05.633.397.95.815.95 1.248m9.65-2.2c.234-.8 1.033-1.316 2.4-1.55 3.565-.665 5.75-1.032 6.55-1.1 1-.1 1.5.284 1.5 1.15 0 .427-.083 1.276-.25 2.55l-.15 1.05c-.233 1.9-.35 3.185-.35 3.85 0 1.103-.167 2.353-.5 3.75-.234 1.067-1.583 1.9-4.05 2.5-1.768.435-3.4.65-4.9.65-.667 0-1.084-.433-1.25-1.3-.034-.233-.05-.85-.05-1.85 0-.566.167-1.95.5-4.15l.5-3.6c-.1-.865-.083-1.515.05-1.95m9.6 24.05c-.732 0-1.166-.616-1.3-1.848v-2.3c0-3.6.333-6.05 1-7.35 1.267-2.535 3.983-3.65 8.15-3.352.667-.566 1.133-.684 1.4-.35.132.2.2.5.2.9 0 1.098-.285 3.583-.852 7.448 0 1.4-.05 2.65-.15 3.75-.2 1.036-.648 1.65-1.35 1.85-1.198.402-3.565.82-7.098 1.253m-11.95 1.85c-.334.566-1.084 1.132-2.25 1.695-.1.035-.9.4-2.4 1.1-1.6.67-2.717 1-3.35 1-.834 0-1.25-.48-1.25-1.448 0-.166.117-.5.35-1 .2-.532.316-.916.35-1.15.3-1.198.45-2 .45-2.4 0-1.6.117-3.198.35-4.798.4-3.136 1.067-4.702 2-4.702.2 0 .384.084.552.25.166.168.365.25.6.25 1.366-.633 2.467-1.1 3.3-1.398 1.566-.533 2.35.116 2.35 1.95 0 .065-.3 3.25-.9 9.55 0 .533-.05.898-.152 1.1m-28.5-7.35c2.3-.268 3.482-.417 3.55-.452 2.567-.5 3.85-.15 3.85 1.052 0 .467-.166 1.584-.5 3.35-.333 1.8-.5 3.15-.5 4.05 0 1.6-.15 3.15-.45 4.65-.133.6-.266 1-.398 1.2-.334.467-.918.782-1.75.948l-7.5 1.6c-.834 0-1.25-.532-1.25-1.6 0-.364.2-1.75.6-4.15.366-2.298.666-3.964.9-5 .1-1.03.183-1.798.25-2.298.133-.933.383-1.666.75-2.2.398-.6 1.215-.983 2.448-1.15m-18.05 3.797c1.826-.364 2.992-.23 3.5.4.166.232.25.532.25.9 0 .268-.117.768-.35 1.5-.2.734-.3 1.25-.3 1.55 0 1.635-.2 4.05-.6 7.25-.2 1.866-.55 3.116-1.05 3.75-.318.407-1.203.856-2.65 1.35-1.29.433-3.022.898-5.2 1.4-.833 0-1.25-.632-1.25-1.9 0-.23.167-1.647.5-4.25.333-2.698.583-4.532.75-5.5.233-1.5.366-2.35.4-2.55.3-.966.8-1.732 1.5-2.3.933-.665 2.433-1.2 4.5-1.6m3.75-126.398c-2.3-.467-3.8-.418-4.5.15-.666.567-1 1.984-1 4.25 0 .51.133 2.06.4 4.65.14 1.67.34 3.754.6 6.25 0 2.434-.25 5.25-.75 8.45-.225 1.448-.39 2.765-.5 3.95-.166 1.496-.25 2.795-.25 3.898 0 .73.268 3.615.8 8.65.053.717.118 1.467.2 2.25 0 11.066-.617 22.2-1.85 33.398-1.124 10.486-1.725 19.668-1.8 27.552v1.25c.27-1.707.42-2.59.45-2.65.5-1.466 1.433-1.933 2.8-1.4l8.5-.15c11.4-1.6 20.15-2.85 26.25-3.75 11.133-1.6 17.55-2.6 19.25-3 3.032-.83 5.4-1.433 7.1-1.798 2.8-.567 6.767-1.084 11.9-1.55.88-.236 1.698-.435 2.45-.602 3-.666 4.967-.8 5.9-.4h.05l.2.15c.307-2.062.54-4.562.7-7.5.165-12.032.465-20.165.9-24.4v-24c.23-1.865.466-4.316.698-7.35.2-2.733.3-4.467.3-5.2 0-.676-.066-1.242-.2-1.7-.172-.493-.422-.86-.75-1.1-.766-.6-2.383-.9-4.85-.9-.406 0-.873-.034-1.4-.1-2.155-.274-5.32-1.106-9.5-2.5-2.666-.866-5.434-1.833-8.3-2.9-3.2-.732-8.316-2-15.35-3.8-4.267-1.1-7.567-1.832-9.9-2.2-9.82-1.535-18.97-3.418-27.45-5.65-.203-.028-.387-.078-.55-.15l-.548-.1m46.4-46.3c.033.25.066.482.1.7.55-2.137.916-3.52 1.1-4.15.767-2.5 1.15-5.882 1.15-10.15v-2.8c-.267-.532-1.35-.966-3.25-1.3-9.166-.932-20.75-2.316-34.75-4.15-.127-.01-.593-.16-1.4-.45.002.233.002.483 0 .75l.1 4.25c0 1.49.016 3.19.05 5.1-.056.773-.14 1.473-.25 2.1.4.575.6 1.575.6 3 0 .066-1.065 3.416-3.198 10.05-.062.216-.13.432-.2.65-.704 1.708-1.42 3.208-2.15 4.5 1.734.59 3.917 1.323 6.55 2.2 2.134.7 7.75 1.885 16.85 3.55 9 1.634 14.217 2.45 15.65 2.45 1.6 0 2.6-2.465 3-7.4l.15-7.1c-.002-.617-.036-1.217-.102-1.8m-120.4-57.75l4.85.45c4.096.35 7.73.732 10.9 1.15 2.25-1.266 4.268-3.366 6.05-6.3-5.473-.644-13.24-1.044-23.3-1.2-.13.406-.23.756-.3 1.05-.056.306-.09.556-.1.75v.15c0 1.58.466 2.88 1.398 3.9.164.034.33.05.5.05m-167.098 99.5c.222-.065.454.02.7.25l.698 1.25c.007.093.024.176.052.25.908-.664 2.226-1.063 3.948-1.2.113.012.244.012.4 0h.7c2.97.4 4.854.6 5.648.6.968.035 4.15-.865 9.552-2.7l24.5-.25 1-.25h16c9.266.335 15.266.068 18-.8 2.766-.9 8.933-1.182 18.5-.85 34.3 2.368 54.85 3.7 61.648 4l26.352.25c2.6.5 9.166 1.168 19.7 2 10.333.834 17.216 1.25 20.65 1.25.7-.068 1.334-.135 1.9-.2h.05c1.062-.074 1.88-.123 2.45-.15.296-.29.495-.522.6-.7.024-.045.042-.095.048-.15 0-.332-7.816-4.75-23.45-13.25-1.727-.93-3.542-1.912-5.448-2.95-.207-.094-.407-.193-.602-.3-.326-.167-.644-.334-.95-.5-.122-.056-.24-.123-.35-.2-6.487-3.5-13.937-7.533-22.35-12.1-.302-.13-.585-.28-.85-.45-.054-.007-.105-.024-.15-.05-18.614-10.207-37.515-21.157-56.7-32.85-.276-.143-.542-.293-.8-.45-.782-.486-1.565-.97-2.35-1.45-2.13-1.293-4.15-1.776-6.05-1.45-.445.075-.88.192-1.3.35h.05c-.11.03-.21.063-.3.1l-.25.1c-1.367.6-3.084 1.6-5.15 3-1.93.94-4.263 2.255-7 3.95-2.778 1.69-5.612 2.923-8.5 3.7-.106.042-.207.076-.3.1-.042.014-.076.03-.1.05-.062.014-.11.032-.15.05-.133.043-.268.076-.4.1l-7.4 3.9c-1.02.646-2.068 1.363-3.15 2.15-4.77 3.43-10.652 7.064-17.648 10.9-.157.096-2.74 1.262-7.75 3.5l-.9.4c-4.533 2.034-7.4 3.518-8.6 4.45-.24.19-.473.372-.7.55.217-.182.448-.365.7-.55-1.762.534-3.978 1.534-6.65 3-4.4 2.4-8.6 5.118-12.6 8.15-.366.268-4.666 2.75-12.9 7.45-4.905 2.88-8.32 5.013-10.25 6.4-1 .74-1.602 1.273-1.798 1.6m15.45-74.6c-.2 3.268-.2 8.268 0 15v11.65c.108 2.085.293 3.885.55 5.4l1.1-.6 13.103-3.85c.144-.016.294-.05.45-.1.318-.05.65-.116 1-.2.04.013.09.013.148 0 .056-.004.123-.02.2-.05.04.013.088.013.15 0 7.466-1.332 13.032-2.332 16.698-3 6.467-1.2 11.234-2.282 14.3-3.25 3.066-.5 7.868-1.6 14.4-3.3 9.533-2.5 15.033-3.932 16.5-4.3 5.847-1.388 10.362-2.154 13.55-2.3 1.452-.232 2.485-.35 3.1-.35 1.938 0 3.14-2.166 3.6-6.5v-15.85c-.066-1.032-.316-3.6-.75-7.7-.398-3.632-.6-6.265-.6-7.9 0-1.853.884-3.02 2.65-3.5-.127-.02-.26-.036-.4-.05-1.366-.1-3.9.368-7.6 1.4-12.533 3.4-22.05 5.4-28.55 6-3.3 1.068-11.084 2.918-23.35 5.55-12.5 2.668-19.5 4.235-21 4.7-2.134.635-5.684 1.5-10.65 2.6-4.1 1-6.55 2-7.35 3-.603.734-.968 1.885-1.103 3.45-.063.868-.114 2.218-.146 4.05"/><path fill="#F4F4F4" d="M448.064 184.28c-2.7-1.3-8.133-2.534-16.3-3.7-3.5-.5-9.2-1.45-17.1-2.85-4.233-.78-7.7-1.43-10.4-1.95-.118.145-.218.278-.3.4-.35 1.353-.766 2.936-1.25 4.75-.023.08-.04.163-.05.25.065.014.15.032.25.05-.056.193-.106.393-.15.6-.9 3.533-1.7 7.533-2.4 12 0 .033-1.283 3.683-3.85 10.95-.235.668-.452 1.302-.65 1.9-.05.322-.134.94-.25 1.85-.188.61-.472 1.077-.85 1.4-.235.75-.452 1.45-.65 2.1.167.43.25.996.25 1.7 0 1.503.05 3.97.15 7.4.327.133.694.2 1.1.2.092 0 .192-.02.3-.052-.268-2.59-.4-4.14-.4-4.65 0-2.267.334-3.684 1-4.25.7-.567 2.2-.617 4.5-.15l.55.1c.163.07.347.12.55.15 8.48 2.23 17.63 4.114 27.45 5.648 2.333.367 5.634 1.1 9.9 2.2 7.033 1.8 12.15 3.068 15.35 3.8 2.868 1.066 5.634 2.033 8.3 2.9 4.18 1.393 7.346 2.227 9.5 2.5.527.066.994.1 1.4.1 2.467 0 4.084.3 4.85.9.328.242.578.61.75 1.1v-.5c0-.465-2.866-5.23-8.6-14.298-6.633-10.5-10.767-17.25-12.4-20.25-.366-.7-1.45-2.067-3.25-4.1-1.866-2.167-3.065-3.667-3.6-4.5-1.2-1.866-2.433-3.1-3.7-3.7m-175.2-78.4c0 1.634.2 4.268.6 7.9.433 4.1.683 6.667.75 7.7v22.05c.146-.052.295-.118.45-.2.41-.156.86-.305 1.35-.45.047-.028.114-.062.2-.1.005.01.022.01.05 0 .032-.006.066-.023.1-.05.54-.14 1.123-.274 1.75-.4.037-.01.07-.026.1-.05.023.006.057.006.102 0 .207-.04.44-.09.7-.15.026.007.06.007.1 0l.55-.1c.093-.013.19-.03.3-.05 3.618-.53 7.835-.58 12.65-.15 8.833.4 14.782.934 17.85 1.6 5.533 1.2 9.584 1.968 12.15 2.3 3.366.434 11.567 1.217 24.6 2.35 12.533 1.1 18.834 1.65 18.9 1.65 8.14 1.28 20.79 2.798 37.95 4.55.264.04.53.073.8.1 2.8.3 4.517.7 5.15 1.2.09.076.175.16.25.25.11-.628.193-1.327.25-2.1-.036-1.91-.052-3.61-.05-5.1l-.102-4.25c.002-.267.002-.517 0-.75v-.9c0-3.633.1-6.966.3-10 .233-3.033.35-5.65.35-7.85 0-.866-.6-1.45-1.8-1.75-1.066-.232-4.382-.95-9.95-2.15-.532-.133-2.565-.7-6.1-1.7-3.466-.933-5.65-1.45-6.55-1.55-1.5-.2-3.35-.816-5.55-1.85-1.933-.9-5.417-1.5-10.45-1.8-3.932-.2-11.182-1.316-21.75-3.35-1.793-.335-3.826-.652-6.1-.95-3.17-.418-6.804-.8-10.9-1.15l-4.85-.45c-.17 0-.338-.017-.5-.05-6.93-.563-18.363-1.496-34.3-2.8-1.133-.066-4.782-1-10.95-2.8-2.453-.466-4.37-.517-5.75-.15-1.767.48-2.65 1.647-2.65 3.5"/><path fill="#fff" d="M257.363 47.38c9.834 2.666 19 5.866 27.5 9.6 4.967 2.2 12.232 5.166 21.8 8.9 6.532 2.6 11 4.616 13.4 6.05 3.232 1.933 5.466 4.283 6.7 7.05 1.232 2.766 1.85 6.8 1.85 12.1 0 1.8-.584 4.216-1.75 7.25-.877 2.25-1.426 3.917-1.65 5 .07-.296.17-.646.3-1.05 10.062.154 17.827.553 23.3 1.2.623-1.05 1.225-2.217 1.8-3.5 2.333-5.168 3.5-9.3 3.5-12.4 0-.9-.083-1.518-.25-1.85-.532-.968-1.782-1.55-3.75-1.75.8-.267 1.616-.65 2.45-1.15.9-.534 1.416-.984 1.55-1.35-.6-1.034-1.5-2.034-2.7-3-.967-.767-1.65-1.184-2.05-1.25 1.233-1.234 2.233-2.418 3-3.55l.75-1.35c0-1.234-.433-2.068-1.3-2.5-1.1-.534-3-.484-5.7.15l-.15-.2c-.2-.167-.565-.35-1.1-.55.4-.334.718-.617.95-.85.367-.4.55-1.118.55-2.15 0-2.968-10.55-10.25-31.65-21.85-15.1-8.3-27.466-14.684-37.1-19.15-19-9-32.733-13.95-41.2-14.85-11.7-1.3-17.55 3.9-17.55 15.6 0 4.633 1.534 8.182 4.6 10.65 2.468 2.032 6.834 3.882 13.1 5.55 8.466 2 15.4 3.732 20.8 5.2m84.5 182.7c-6.832 0-25.416-.583-55.75-1.75-4.8-2.202-7.883-.835-9.25 4.1-.666 2.5-.866 5.382-.6 8.65 0 2.83.168 6.08.5 9.75.434 4.43 4.633 6.882 12.6 7.35 2.5.133 5.65.08 9.45-.15 4.368-.3 6.667-.45 6.9-.45 17.6.334 28.9.75 33.9 1.25h34.5c5.8-.466 10.05-3.818 12.75-10.05 1.766-4.065 2.65-8.383 2.65-12.95 0-1.933-.167-3.3-.5-4.1-.868-2.1-2.75-3.15-5.65-3.15-.067 0-5.134.25-15.2.75-11.332.5-20.1.75-26.3.75m-187.7-9.9c-2.366.164-4.366.966-5.996 2.4-1.8 1.633-2.7 3.767-2.7 6.4 0 1.532.034 2.95.1 4.25.134 2.967.434 5.667.9 8.1 1.366 7.6 3.917 11.4 7.65 11.4.39 0 .774-.018 1.15-.05-.056.3-.09.6-.102.9.716-.018 1.55-.585 2.5-1.702 4.688 1.627 8.737 2.396 12.148 2.302 3.9-.468 7.166-.7 9.802-.7 2.065 0 5.65.133 10.75.398 3.6.168 6.35.318 8.25.45 1.833.2 4.767.683 8.8 1.45 2.467.434 3.7.5 3.7.2v-.05c1.933-.168 5.032-.77 9.3-1.8 5.234-1.302 8.333-2.318 9.3-3.052.968-.732 1.617-1.883 1.95-3.45.234-1.866.417-3.216.55-4.05.265-2.068.5-5.017.7-8.85.133-2.865.2-4.917.2-6.15 0-1.867-.7-3.818-2.1-5.85-1.636-2.365-3.15-1.833-4.552 1.6-.5-.2-2.518-.484-6.05-.85-3.367-.333-5.55-.5-6.55-.5-2.635 0-5.818.3-9.55.898-3.7.568-7.2.852-10.502.852-9 0-17.115-.367-24.35-1.102-6.818-.725-11.017-1.107-12.6-1.148-.02.234-.038.47-.05.7.07-.988.153-1.955.25-2.9-.898-.152-1.865-.186-2.896-.097"/><path fill="#010101" d="M273.363 101.08c-.113 1.12 10.054 3.202 30.5 6.25 23.7 3.2 37.617 5.082 41.75 5.65 7.768 1 13.185 1.716 16.25 2.15 4.8.666 9.685 1.532 14.65 2.6 3.967 1.228 8.317 2.36 13.05 3.4 4.733 1.07 9.75 2.17 15.05 3.3 5.27 1.165 8.037.548 8.3-1.85-12.34-2.698-22.726-4.93-31.15-6.7-16.632-3.5-28.432-5.767-35.4-6.8-16.6-2.334-28.85-3.95-36.75-4.85-3.33-.367-9.75-1.134-19.25-2.3-8.1-.934-13.765-1.217-17-.85M273.363 140.615c-.113 1.126 10.054 2.695 30.5 4.71 23.7 2 37.617 3.18 41.75 3.54 7.768.606 13.185 1.05 16.25 1.328 4.8.424 9.685 1.044 14.65 1.86 3.967 1.028 8.317 1.94 13.05 2.74 4.733.832 9.75 1.678 15.05 2.54 5.27.9 8.037.142 8.3-2.27-12.34-2.074-22.726-3.782-31.15-5.126-16.632-2.66-28.432-4.33-35.4-5.01-16.6-1.496-28.85-2.493-36.75-2.994-3.33-.198-9.75-.64-19.25-1.327-8.1-.524-13.765-.52-17 .01M409.863 124.58c-.12-2.88-.403.553-.85 10.3-.44 9.742-.658 15.492-.65 17.25-.03 1.797.188 2.83.65 3.1.334.166.7.25 1.1.25.9 0 1.468-.55 1.7-1.65.034-1.134.05-1.734.05-1.8.002-2.102.453-7.72 1.35-16.85.895-9.13.01-12.664-2.648-10.6h-.702M271.214 116.08c.12 4.64.187 9.19.2 13.65-.026 4.463-.043 7.746-.05 9.85 0 .4.1.85.3 1.35.333.732.816 1.25 1.45 1.55.743-.595 1.36-1.296 1.85-2.1-.02-.433-.02-.883 0-1.35.08-19.535.263-30.802.55-33.8.254-3.005-.714-4.422-2.9-4.25-1.08 5.423-1.548 10.456-1.4 15.1M175.564 165.33c7.9 0 25.465-3.384 52.7-10.15 27.1-7.134 42.25-11.034 45.45-11.7l.25-1.5c0-.267-.084-.65-.25-1.15-8.7 1.033-16.334 2.45-22.9 4.25-10.8 2.966-18.467 4.933-23 5.9-1.2.3-4.6 1.216-10.2 2.75-6 1.533-11.35 2.733-16.05 3.6-2.2.433-7.518 1.3-15.95 2.6-7.567 1.366-11.9 2.716-13 4.05.7.6 1.167.95 1.4 1.05.366.2.884.3 1.55.3M175.564 125.33c7.9 0 25.465-3.384 52.7-10.15 27.1-7.134 42.25-11.034 45.45-11.7l.25-1.5c0-.267-.084-.65-.25-1.15-8.7 1.033-16.334 2.45-22.9 4.25-10.8 2.966-18.467 4.933-23 5.9-1.2.3-4.6 1.216-10.2 2.75-6 1.533-11.35 2.733-16.05 3.6-2.2.433-7.518 1.3-15.95 2.6-7.567 1.366-11.9 2.716-13 4.05.7.6 1.167.95 1.4 1.05.366.2.884.3 1.55.3"/><path fill="#010101" d="M174.315 126.23v20.6c-.666 2.1-1.117 4.515-1.35 7.25-.17 1.832-.25 4.3-.25 7.4 0 .565.15 1.065.45 1.5.365.5.832.75 1.398.75 1.23 0 2.15-4.518 2.75-13.55.334-9.068.5-13.635.5-13.7v-8.25c0-1.635-.617-3.185-1.85-4.65-1.233-1.434-1.782-.55-1.648 2.65zM409.613 155.98c-2.6 6-6.05 16.5-10.35 31.5-4 13.832-6 21.465-6 22.9 0 .532.2.95.6 1.25.334.232.75.35 1.25.35 1.4 0 4.45-8.918 9.15-26.75 4.4-17.9 6.6-26.885 6.6-26.95 0-1.2-.416-1.968-1.25-2.3M271.714 141.85c17.968 11.48 41.817 25.54 71.55 42.18 26.967 15.085 44.133 24.24 51.5 27.466l.15-.098c.133-.1.2-.4.2-.9 0-.433-9.167-5.724-27.5-15.87-22.968-12.687-35.384-19.57-37.25-20.653-6.033-3.516-15.583-9.31-28.65-17.382-11.833-7.096-21.75-12.51-29.75-16.24l-.25 1.497M158.064 209.33c6-4 14.65-9.268 25.95-15.8 13.6-7.767 24.05-13.784 31.35-18.05 1.833-1.068 13.366-7.184 34.6-18.35 17.834-9.334 26.75-14.367 26.75-15.1l-.1-.95c-28.566 14.166-50.183 25.25-64.85 33.25-21.067 11.533-39.334 22.75-54.8 33.65.202.666.567 1.116 1.1 1.35"/><path fill="#010101" d="M175.814 162.48c-1.9.033-3.183 1.182-3.85 3.45-.4 1.3-.984 3.232-1.75 5.8-.435 1.233-1.185 3.116-2.25 5.65-1 2.266-1.717 4.133-2.15 5.6-.802 2.633-2.084 6.366-3.85 11.2-1.933 5.233-3.066 8.583-3.4 10.05-.366 1.465-.766 2.532-1.2 3.2-.466.7.116.75 1.75.15 1.598-.568 3.397-3.685 5.398-9.35 2.035-6.734 3.386-11.15 4.052-13.25 1.433-3.8 2.75-7.284 3.948-10.45 2.302-6.2 3.45-9.85 3.45-10.95 0-.534-.033-.867-.1-1l-.048-.1zM157.964 209.68c25.866-1.834 50.283-2.967 73.25-3.4 24.567-.434 49.05.15 73.45 1.75 15.3.6 30.5 1.45 45.6 2.55 15.533.932 30.983 1.4 46.35 1.4l-2.7-2.05-51.15-3.2c-18.225-1.08-36.225-1.796-54-2.15-17.772-.322-34.007-.906-48.698-1.75-13.02.58-25.95 1.164-38.8 1.75-12.883.618-27.448 1.834-43.7 3.65l.398 1.45M155.064 250.627c-1.245 0-2.362-.05-3.352-.15-.32 4.165-.62 8.617-.9 13.352-1.4 23.898-2.1 46.884-2.1 68.95 0 9.866.083 16.8.25 20.8.467 11.167 1.5 17.232 3.1 18.2l1.65-.552c.067-.334.1-.916.1-1.75 0-2.033-.233-5.15-.698-9.35-.434-4.2-.65-7.25-.65-9.15v-18.1c0-25.53 1.083-52.962 3.25-82.3-.216.034-.43.05-.65.05m-.3-29.05c.072-.47.156-.937.25-1.4.314.018.663.133 1.05.352.815.478 1.498 1.146 2.052 2 .633-7.954.948-12.504.948-13.65 0-.5-.165-.783-.5-.85-.165-.033-.333-.05-.5-.05-1.2 2.67-2.303 7.203-3.3 13.6"/><path fill="#989898" d="M151.714 250.48c.99.1 2.106.15 3.35.15.22 0 .434-.017.65-.05.008-.352.026-.7.05-1.05 1-11.36 1.784-20.36 2.352-27-.554-.856-1.237-1.524-2.052-2-.387-.22-.736-.335-1.05-.35-.094.46-.178.926-.25 1.397l-3.05 28.903z"/><path fill="#010101" d="M394.113 210.23c-.502 4.12-.734 9.636-.7 16.548.003 6.913-.048 15.365-.15 25.35 0 27.27-.866 48.554-2.6 63.852-1.728 15.294-3.21 28.378-4.45 39.25-1.236 10.906-1.97 16.605-2.2 17.102-.264.53-.23.998.1 1.398.4.5.9.75 1.5.75 2.368 0 4.284-7.768 5.75-23.3 1.335-18.735 2.385-31.333 3.15-37.802.468-4.23 1-13.698 1.6-28.398.6-14.632.95-24.9 1.052-30.8.072-5.87.023-15.687-.15-29.45-.208-13.762-1.175-18.595-2.902-14.5"/><path fill="#010101" d="M153.014 368.68c-.036 2.094 16.998 5.06 51.102 8.9 11.47 1.112 24.986 2.178 40.55 3.2 15.53 1.056 30.347 1.406 44.448 1.05 14.102-.365 28.45-.93 43.052-1.7 15.433-1.067 30.866-2.335 46.3-3.8 3.033-.035 5.6-1.133 7.7-3.3l-.35-1.45c-13 2.133-26.384 3.383-40.15 3.75-14.134.4-28.2 1.117-42.2 2.15-11.2.937-24.084 1.27-38.65 1-14.6-.28-32.633-1.63-54.1-4.05-28.976-1.652-46.94-3.85-53.9-6.6-.8-.236-1.634-.27-2.5-.103l-1.302.954zM433.613 358.23c-3.366.965-12.082 3.332-26.15 7.1-9.932 2.667-18.165 5.048-24.7 7.15l-.25.75c1.368 1.032 2.484 1.55 3.35 1.55 4.102 0 12.635-1.984 25.602-5.95 13.167-4.268 20.718-6.718 22.65-7.35 10.032-2.8 17.9-5.035 23.6-6.7 10.5-3.033 16.7-5.617 18.6-7.75-2.866.5-9.167 2.066-18.9 4.7-5.435 1.465-13.367 3.632-23.802 6.5M478.363 229.877c-.166 5-.266 12.635-.3 22.902-.232 10.267-.45 17.95-.65 23.05-.365 8.533-.882 16.217-1.55 23.05v21.4c-2.032 12.8-3.05 21.3-3.05 25.5 0 1.8.6 2.7 1.8 2.7 1.2 0 2.185-3.036 2.95-9.102.534-6.1.8-9.185.8-9.25 0-.666.1-1.95.3-3.85.233-2 .468-3.717.7-5.15v-21.35c1.134-15.5 1.768-25.168 1.9-29 .067-2.267.1-10 .1-23.2-.166-4.968-.25-8.7-.25-11.2-.065-2.5-.082-4.367-.05-5.6.034-1.533-.417-2.55-1.35-3.05-.9-.5-1.35.216-1.35 2.15M391.363 210.43c-2.108.788 3.225 2.705 16 5.75 14.23 2.13 23.613 3.98 28.15 5.55 4.502 1.567 18.535 4.618 42.1 9.15 2.334 0 3.5-.602 3.5-1.802 0-.433-6.75-2.2-20.25-5.3-6.932-1.6-14.85-3.366-23.75-5.3-2.065-.47-9.932-2.283-23.6-5.45-12.663-2.495-20.046-3.362-22.15-2.6M452.464 191.13c4.496 6.33 8.463 11.78 11.9 16.348 1.733 2.633 4.233 6.667 7.5 12.1 3.3 5.533 5.717 9.468 7.25 11.8.967-.832 1.45-1.283 1.45-1.35 0-2.632-1.7-6.766-5.1-12.4-3.934-6.03-8.166-12.096-12.7-18.198-4.54-6.104-8.122-10.82-10.75-14.15-2.66-3.302-4.975-4.92-6.95-4.85 2.78 4.097 5.247 7.664 7.4 10.7M429.214 176.23c-14-3-21.95-3.45-23.85-1.35 2.333 1 16.75 3.915 43.25 8.75.433-.068.733-.15.9-.25.2-.134.3-.468.3-1 0-.4-2.117-1.234-6.35-2.5-4.3-1.3-9.05-2.518-14.25-3.65M451.814 158.88c.5-3.4.75-5.9.75-7.5 0-2.568-.685-3.3-2.05-2.2-1.267 1.002-2 3.47-2.2 7.4-.203 3.957-.535 8.156-1 12.6-.5 4.44-.783 7.724-.85 9.85-.102 2.13.45 3.196 1.648 3.2.834 0 1.568-2 2.2-6 .534-3.434.8-6.65.8-9.65 0-1.735.236-4.3.702-7.7M434.564 144.48c-4.1-.535-9.533-1.435-16.3-2.7-4.968-.634-8.1-.068-9.4 1.7 1.933 1.065 8.516 2.416 19.75 4.05 13.567 1.932 20.4 2.915 20.5 2.95l1.7-.4c0-.035.033-.1.1-.2.1-.1.15-.4.15-.9 0-1.268-1.317-2.185-3.95-2.75-.8-.168-4.984-.75-12.55-1.75"/><path fill="#010101" d="M221.214 39.98c1.033 1.032 5.583 2.432 13.65 4.2 9.233 1.9 15.267 3.2 18.1 3.9 7.833 1.932 13.1 3.25 15.8 3.95 5.9 1.562 12.415 3.58 19.55 6.05 7.14 2.475 19.07 8.31 35.8 17.5.533 0 .884-.05 1.05-.15.034-.034.1-.184.2-.45-13.066-10.9-32.282-20.035-57.65-27.4-9.632-2.8-19-4.985-28.1-6.55-8.2-1.4-14.25-2-18.15-1.8l-.25.75zM323.214 78.08c.067.266.134.45.2.55.066.088.234.138.5.15.29.296.64.513 1.05.65.302.078.6.162.9.25-.48.315-1.163.798-2.05 1.45l-.45-.05-.35.65c-.104.093-.204.176-.3.25.3.432.566.733.8.9.324.226.757.343 1.3.35.246.12.512.238.8.35-1.833.654-2.75 1.455-2.75 2.4 0 .266.683.9 2.05 1.9.62.44 1.186.79 1.7 1.05-.062.17-.11.353-.15.55-.3.766-.75 2.516-1.35 5.25-.033.166-.634 2-1.8 5.5-.968 3.033-1.45 4.816-1.45 5.35 0 1.433.583 2.4 1.75 2.9.9-.967 2.232-4.217 4-9.75 1.667-5.267 2.5-8.484 2.5-9.65 0-.977-.468-1.61-1.4-1.9-.485-.296-.853-.58-1.1-.85l-.4-.35c.92-.28 1.72-.63 2.4-1.05.08.033.165.05.25.05.532 0 .917-.017 1.15-.05l.2-.1h.1c.1-.034.15-.3.15-.8 0-.734-1.05-1.4-3.15-2-.27-.075-.535-.14-.8-.2.472-.46.905-.878 1.3-1.25.094.06.193.11.3.15.567-.2.866-.3.9-.3.232-.2.35-.567.35-1.1 0-.867-.85-1.567-2.55-2.1-.547-.173-1.063-.273-1.55-.3.066-.232.1-.432.1-.6v-.7c-.067.066-.117.05-.15-.05-.733.066-1.366.45-1.9 1.15l-.65.8c-.154.09-.304.19-.45.3.025.053.06.103.102.15l-.102.1M353.363 70.58c-1.666 1.566-3.217 3.482-4.65 5.75l.102.6-.85-.1-.25.75c.166.3.566.7 1.2 1.2.9.7 1.8 1.1 2.698 1.2h2.25c-.66.606-1.545 1.472-2.65 2.6-.254.01-.404.028-.45.05l-.65.2c0 .066-.048.15-.148.25-.067.1-.1.4-.1.9 0 .432.217.85.65 1.25.7.633 1.816 1.05 3.35 1.25-.19.16-.51.543-.95 1.15-.4.166-.9.8-1.5 1.9-1.434 2.632-2.283 4.7-2.55 6.2-.6 1.832-1.167 3.883-1.7 6.15-.7 2.833-1.05 4.833-1.05 6 0 .466.032.816.1 1.05.1.232.15.45.15.65l.25.35c.167.2.5.3 1 .3 1.133 0 2.517-3.2 4.15-9.6l2.1-9.6v-.8c1.253-.08 2.303-.746 3.15-2 .667-.967 1-1.717 1-2.25 0-.8-.583-1.55-1.75-2.25-.577-.34-1.194-.608-1.85-.8.163-.184.346-.384.55-.6 1.366-1.467 2.133-2.384 2.3-2.75-.23-.303-.48-.52-.75-.65-.065-.482-.733-.866-2-1.15-.598-.144-1.88-.344-3.85-.6.61-.497 1.56-1.296 2.85-2.4 2.333-2.034 3.5-3.267 3.5-3.7 0-1.383-.317-2.1-.95-2.15-.312-.4-.78-.65-1.4-.75-.93-.18-3.914-.23-8.95-.15.29-.35.608-.782.95-1.3.967-1.5 1.45-2.384 1.45-2.65 0-2.734-.85-2.984-2.55-.75-1.5 1.966-2.4 3.516-2.7 4.65.067.5.133.8.2.9.133.233.483.35 1.05.35.173 0 .374-.068.6-.2 1.21 1.29 2.776 1.757 4.7 1.4 1.62-.274 3.003-.29 4.15-.05l-.202.2M247.964 14.83c9.022 4.106 14.64 6.69 16.85 7.75 2.17 1.063 6.454 2.997 12.85 5.8 7.233 3.133 13.134 5.782 17.7 7.95 19.867 9.5 37.117 19.3 51.75 29.4.568-.2.867-.3.9-.3.233-.2.35-.567.35-1.1 0-2.034-5.032-6.1-15.1-12.2-8.867-5.4-20.232-11.55-34.1-18.45-13.27-6.566-25.67-12.183-37.2-16.85-11.562-4.637-18.344-6.887-20.35-6.75-2.01.136-2.81.086-2.4-.15.25-.117-.7.084-2.85.6 2.3.39 6.165 1.825 11.6 4.3M215.714 28.48c0 2.9.333 5.15 1 6.75 1.4 3.4 4.183 5.1 8.35 5.1 3.233 0 6.268-1.785 9.1-5.35 2.5-3.135 3.935-6.3 4.3-9.5.168-1.535.584-4.234 1.25-8.1.568-3.2.852-5.384.852-6.55 0-1.1-1.066-2.018-3.2-2.75-2.767-.968-6.2-.635-10.3 1-3.066 1.032-5.482 3.115-7.25 6.25-2.736 5.2-4.102 9.582-4.102 13.15m3.75 0c0-3.168 1.033-6.618 3.1-10.35 2.188-3.994 4.872-6.444 8.05-7.35 1.203-.322 2.486-.422 3.85-.3 1.5 1.166 2.25 2.416 2.25 3.75 0 2.432-.583 6.182-1.75 11.25-.5 2.065-1.9 4.35-4.2 6.85-2.4 2.666-4.467 4-6.2 4-1.438 0-2.57-.5-3.398-1.5-.512-.607-.913-1.39-1.2-2.35-.335-2.6-.502-3.935-.502-4"/><path fill="#989898" d="M234.464 10.48c-1.362-.122-2.647-.022-3.848.3 4.614-.85 5.663 2.1 3.15 8.85-2.52 6.75-6.72 11.816-12.602 15.2.827 1 1.96 1.5 3.4 1.5 1.73 0 3.8-1.334 6.198-4 2.3-2.5 3.7-4.785 4.2-6.85 1.167-5.068 1.75-8.818 1.75-11.25.002-1.334-.748-2.584-2.248-3.75"/><path fill="#CDCCCC" d="M219.964 32.48c.287.96.687 1.743 1.2 2.35 5.883-3.384 10.083-8.45 12.6-15.2 2.516-6.75 1.467-9.7-3.148-8.85-3.178.906-5.862 3.356-8.05 7.35-2.068 3.732-3.102 7.182-3.102 10.35 0 .065.167 1.4.5 4"/><path fill="#E22526" d="M336.064 72.88c.39.18.955.395 1.7.65.744.247 1.378.43 1.9.55-.412.31-.896.726-1.45 1.25-1.134 1.066-1.884 1.95-2.25 2.65.1.232.432.4 1 .5.24-.14.473-.29.7-.45.454.4 1.07.718 1.85.95.558.164 1.09.264 1.6.3l-.65.45c-.692.487-1.243.887-1.65 1.2-.124-.034-.24-.067-.35-.1l-.05-.2c-.034-.035-.05.215-.05.75 0 .043.016.077.05.1l-.05.1c-.308.127-.24.193.2.2.194.325.61.675 1.25 1.05.426.243.81.426 1.15.55-.32.68-1.354 4.013-3.102 10-2 6.8-3 10.95-3 12.45 0 .832.033 1.082.1.75h.4l3.25-9.95c2.068-6.5 3.1-10.368 3.1-11.6 0-.748-.1-1.248-.3-1.5.166.043.315.06.45.05-.266-.534-.782-1.084-1.55-1.65-.095-.078-.178-.16-.25-.25 1.066-.264 1.667-1.048 1.8-2.35h.1l-.1-.15v-.35c-.023 0-.09.032-.2.1l-1.05-1.1c-.947-.19-1.715-.34-2.3-.45.292-.335.542-.72.75-1.15.458-.86.907-1.512 1.35-1.95.222.032.405.05.55.05-.096-.107-.195-.207-.3-.3.016-.02.032-.036.05-.05l-.1-.4c-.098.025-.198.058-.3.1-.65-.453-1.417-.786-2.3-1-.512-.134-.98-.217-1.4-.25l.25-.2c-12.733-10.934-30.616-21.385-53.65-31.35-20.132-8.734-34.55-13.418-43.25-14.05 22.534 8.265 40.917 15.632 55.15 22.1 19.55 8.843 33.016 16.71 40.4 23.6-.058.02-.107.037-.15.05.05.048.183.114.4.2l.2.2.102-.1"/><path fill="#010101" d="M150.034 320.82c-.036 1.44 17.508 3.585 52.635 6.44 11.812.837 25.736 1.657 41.768 2.458 15.998.824 31.26 1.16 45.785 1.006 14.524-.16 29.305-.455 44.342-.89 15.897-.632 31.795-1.403 47.69-2.31 3.125-.005 5.77-.743 7.933-2.217l-.36-.998c-13.392 1.38-27.177 2.15-41.356 2.315-14.558.183-29.047.584-43.468 1.203-11.536.573-24.806.717-39.81.438-15.04-.284-33.613-1.327-55.725-3.128-29.847-1.318-48.353-2.943-55.52-4.878-.824-.165-1.682-.192-2.575-.084l-1.34.645zM369.764 313.53c-18.867 2.832-29.183 4.332-30.95 4.498-9.103.936-22.036 2.7-38.8 5.3-16.756 2.597-27.006 4.13-30.75 4.602-2 .248-3.4.414-4.2.5v.05c-.667.7.468 1.05 3.4 1.05 1.6 0 11.75-1.333 30.45-4 20.033-2.866 31.518-4.45 34.45-4.75 12.667-1.268 23.75-2.717 33.25-4.35 9.4-1.6 18.483-2.834 27.25-3.7-6.2-.933-14.233-.668-24.1.8M263.714 329.377c0-1.266-6.866-3.115-20.6-5.55-7.7-1.366-19.55-3.317-35.55-5.85-1.934-.333-10.1-2.2-24.5-5.6-14.634-3.234-25.718-5.27-33.25-6.102 18.9 5.968 37.282 10.5 55.15 13.6 28.768 5 48.016 8.534 57.75 10.602.366-.067.6-.117.7-.15.2-.098.3-.416.3-.95M264.714 328.98c-.866 4.397-1.333 12.85-1.4 25.35-.032 6.333.018 12.585.15 18.75 0 3.766.033 6.65.1 8.65.434.2.817.365 1.15.5 1.367-3.534 2.033-7.968 2-13.3-.267-6.1-.4-10.584-.4-13.45 0-3.067-.15-7.718-.45-13.95-.367-7.367-.75-11.55-1.15-12.55M234.564 329.73c-1.035 5.2-1.62 11.782-1.75 19.75-.067 4.5-.1 11.166-.1 20v7.5c.332.2.665.365 1 .5.398-1.9.648-4.135.75-6.7.066-1.334.1-3.518.1-6.55l1-27.2c.1-1.234.133-2.384.1-3.45-.1-2.1-.467-3.385-1.1-3.85M205.714 326.03c-.634 3.133-1.05 7.45-1.25 12.95-.3 7.433-.517 11.95-.65 13.55v22.2c.17.2.466.383.9.55.4-.167.685-.35.85-.55v-21.75c.233-2.667.483-6.118.75-10.35.267-3.968.4-6.302.4-7 .065-1.7.065-3.234 0-4.602-.1-2.666-.435-4.332-1-5"/><path fill="#010101" d="M150.034 336.32c-.036 1.44 17.508 3.585 52.635 6.44 11.812.837 25.736 1.657 41.768 2.458 15.998.824 31.26 1.16 45.785 1.006 14.524-.16 29.305-.455 44.342-.89 15.897-.632 31.795-1.403 47.69-2.31 3.125-.005 5.77-.743 7.933-2.217l-.36-.998c-13.392 1.38-27.177 2.15-41.356 2.315-14.558.183-29.047.584-43.468 1.203-11.536.573-24.806.717-39.81.438-15.04-.284-33.613-1.327-55.725-3.128-29.847-1.318-48.353-2.943-55.52-4.878-.824-.165-1.682-.192-2.575-.084l-1.34.645zM150.034 353.32c-.036 1.44 17.508 3.585 52.635 6.44 11.812.837 25.736 1.657 41.768 2.458 15.998.824 31.26 1.16 45.785 1.006 14.524-.16 29.305-.455 44.342-.89 15.897-.632 31.795-1.403 47.69-2.31 3.125-.005 5.77-.743 7.933-2.217l-.36-.997c-13.392 1.38-27.177 2.15-41.356 2.315-14.558.183-29.047.584-43.468 1.203-11.536.573-24.806.717-39.81.438-15.04-.284-33.613-1.327-55.725-3.128-29.847-1.318-48.353-2.943-55.52-4.878-.824-.165-1.682-.192-2.575-.084l-1.34.645zM388.064 233.78c-.533 2.532-.717 6.5-.55 11.9-.5 4.633-2.733 8.082-6.7 10.35-3.133.133-5.533.3-7.2.5l-59.55-.25-.95-.25-20.3-.05c-6.1-.278-10.3-.96-12.6-2.05-2.334-1.055-3-4.322-2-9.8v-8.802c0-.867-.2-2.15-.602-3.85-.532-2.232-1.166-3.566-1.9-4-.8.867-1.132 2.318-1 4.35.102 1.033.268 2.2.5 3.5 0 .836-.083 2.97-.25 6.4-.165 3.428-.13 6.395.102 8.898.23 2.506 1.582 4.523 4.05 6.052 2.434 1.565 7 2.33 13.7 2.3 3.332 0 6.7.018 10.1.05 6.833.065 10.4.15 10.7.25h60c6.9 1.23 11.616-1.2 14.15-7.3 1.232-2.932 1.85-6.566 1.85-10.9 0-.933-.083-2.1-.25-3.5-.234-2.068-.567-3.332-1-3.8h-.3M146.964 221.28c-1.105-.467-2.09 1.166-2.952 4.898-.862 3.734-1.146 7.468-.85 11.2.264 3.765.498 6.464.7 8.1.166 1.667.868 3.1 2.1 4.3.8.8 6.233 1.816 16.3 3.05 10.733 1.367 23.72 2.583 38.95 3.65h17c5.7-.5 9.567-1.784 11.6-3.85 1.067-1.1 1.784-2.983 2.15-5.65.367-2.4.634-4.283.8-5.65.367-2.5.55-4.267.55-5.3l-.1-8.55c-.034 0-.15-.083-.35-.25-.233-.134-.45-.218-.65-.25-.7 1.8-1.233 4.05-1.6 6.75-.367 2.433-.552 4.866-.552 7.3.033 4.768-1.533 8.2-4.7 10.3-2.63 1.733-6.18 2.45-10.648 2.15l-13.15-.25c-12.266-.433-20.416-.9-24.448-1.4-1.27-.13-4.604-.43-10-.898-5.424-.472-9.908-1.037-13.45-1.7-3.578-.667-5.562-1.434-5.95-2.3-.426-.83-.676-1.63-.75-2.4-.103-.735-.152-2.418-.15-5.05.003-1.5.036-6.27.102-14.3.01-1.527.027-2.827.048-3.9"/><path fill="#010101" d="M237.764 218.18c-1.892.662-3.592 1.28-5.1 1.85v8.75c1.906-.566 3.792-1.266 5.648-2.1 1.854-.8 5.05-1.467 9.602-2 4.555-.512 8.038-.38 10.45.398 2.384.772 5.65 2.055 9.8 3.85v-.7c-.14-.162-.14-.21 0-.15l2-5.8c-3.73-2.324-7.128-3.824-10.2-4.5-3.073-.672-7.155-1.172-12.25-1.5l-9.95 1.9zM238.564 245.08c0 .167.065 1.7.2 4.6.167 2.77.233 4.8.2 6.1 0 .37-.117 1.236-.35 2.6.066 1.27.766 1.97 2.1 2.102 1.232.1 4.35.65 9.35 1.65 4.733.933 7.45 1.4 8.15 1.4.533 0 1.018-.1 1.45-.302.466-.232.817-.398 1.05-.5-.566-1.53-2.533-2.85-5.9-3.95-1.934-.6-4.883-1.35-8.85-2.25-2.533-.632-3.883-1.716-4.05-3.25.3-1.698.433-2.866.4-3.5-.5-8-.75-12.85-.75-14.55 0-1.7.814-3.666 2.45-5.898 1.8-2.434 3.948-4.217 6.448-5.352-3.167-1.266-5.834-.55-8 2.15-1.065 1.3-2.116 3.433-3.15 6.4-.498 3.5-.748 7.683-.748 12.55"/><path fill="#010101" d="M330.564 292.78l-.95-.25c-19.7-.167-29.833-.333-30.4-.5l-48-.05c-1.02-.128-1.754-.694-2.2-1.7.758-.885 1.39-2.15 1.9-3.8l1.05-5.5c0-5.968-1.583-8.8-4.75-8.5 0 .032-.05.1-.15.2-.066.1-.1.398-.1.898 0 .035.25.984.75 2.852.5 2.066.75 3.533.75 4.398 0 1.334-.466 2.785-1.4 4.352-1.5 2.566-2.45 4.332-2.85 5.3-1.073 1.542-.157 3.076 2.75 4.6 1.077.58 2.493.878 4.25.9 7.933 0 15.9.017 23.9.05 16.032.066 24.233.15 24.6.25 5 .033 10.05.083 15.15.15 10.167.133 15.417.25 15.75.35h18c4.866-1.133 8-3.066 9.4-5.8.8-3.134 1.732-5.417 2.8-6.85l-.2-1.102c-1.767.1-3.4 1.5-4.9 4.2-1.666 3-4.032 4.934-7.1 5.8l-18.05-.248zM358.613 280.78c-.2.098-.45.148-.75.148-.2.068-.3.35-.3.85 0 .436.734 1.436 2.2 3 1.367 1.47 2.233 2.284 2.6 2.45.1-.134.15-.233.15-.3.034-.066.05-.366.05-.9 0-2.7-1.316-4.45-3.95-5.25M262.113 299.18c-2.8-4.534-5.35-6.17-7.65-4.9l-.25.75c2.335 1.467 4.434 3.9 6.3 7.3 2.068 3.765 3.718 6.167 4.95 7.2.2-.167.3-.27.3-.3.035-.067.052-.4.052-1 0-2.07-1.234-5.084-3.702-9.05M391.613 228.48c1.7 2.433 11.334 5.313 28.9 8.65 9.567 1.798 22.768 4.182 39.6 7.148 6.268 1.367 10.984 2.85 14.15 4.45 2.8 1.396 4.698 3.73 5.7 7 .974 3.27 2.573 6.824 4.8 10.648 2.227 3.86 3.81 4.51 4.75 1.95.936-2.53 1.536-4.38 1.8-5.55.034-1.2.05-1.834.05-1.9 0-1.365-.95-3.35-2.85-5.948-2.3-2.867-3.85-4.85-4.65-5.95-.532-1.367-1-2.417-1.4-3.148-.766-1.334-2.232-2.287-4.398-2.852-5.7-1.667-10.517-2.982-14.45-3.95-3.867-.933-9.833-2.167-17.9-3.698-10.366-2-18.333-3.287-23.9-3.852-4.766-.5-11.85-1.8-21.25-3.898-4.5-1-7.484-.703-8.952.9M423.214 308.98c-6.8.8-16.833 1.632-30.1 2.5-.6.233-1.017.533-1.25.9-.134.232-.317.767-.55 1.6.033.2.467.3 1.3.3 5.433 0 14.017-.834 25.75-2.5 13.032-2 21.933-3.35 26.7-4.05 9.2-1.167 16.082-2.118 20.65-2.85 8.2-1.3 12.832-2.585 13.898-3.852h-2.35c-2.767 0-14.15 1.65-34.15 4.95-9.898 1.603-16.53 2.603-19.898 3M437.314 316.28c-27.867 4.266-43.95 6.932-48.25 8l-.25.75c.3.666 1.232 1 2.8 1 1.4 0 8.35-1.1 20.85-3.3 11.367-2.034 19.733-3.6 25.1-4.7 4.034-.8 11.868-2.283 23.5-4.45 10.6-1.968 16.118-3 16.55-3.1-1.1-.935-6.717-.52-16.85 1.25-5.534.966-13.35 2.483-23.45 4.55M466.064 310.28c-2.168 24.032-3.25 37.098-3.25 39.2l.05 1.75c.067 0 .317.183.75.55.933-1.435 1.417-2.533 1.45-3.3-.133-.868-.2-1.668-.2-2.4 0-2.4.317-8.067.95-17 .666-8.933 1-13.583 1-13.95 0-1.434-.15-3.05-.45-4.85h-.3M455.863 312.78c-.065 1.532-.666 7.532-1.8 18-.966 9.332-1.45 15.768-1.45 19.3 0 .833.084 2.15.25 3.95l.25.45 1.25.05c.468-6.334.9-12.35 1.3-18.05.8-11.168 1.2-18.334 1.2-21.5 0-1-.332-1.733-1-2.2M445.863 315.03c-1.166 5.23-1.932 11.598-2.3 19.1-.2 4.267-.45 10.65-.75 19.15v3.45c.167.2.434.382.8.55.123-.878.506-6.212 1.15-16 .61-9.793 1.16-16.41 1.65-19.85.464-3.438.664-5.272.6-5.5-.132-.633-.516-.933-1.15-.9M436.113 317.23c-.366.465-.6 1.147-.7 2.05-.032.332-.05 1.016-.05 2.05 0 9.566-.516 17.384-1.55 23.45-1 6.032-1.5 10.682-1.5 13.95 0 .565.034.933.1 1.1 0 .032.15.267.45.7 1.068-1.234 1.634-2.234 1.7-3-.132-.934-.2-1.783-.2-2.55 0-2.467.584-8.185 1.75-17.15 1.168-8.968 1.75-14.5 1.75-16.6 0-1.202-.032-1.9-.1-2.103-.165-.565-.715-1.198-1.65-1.898M423.863 319.28c-.1 1-.832 7.348-2.2 19.05-1.365 11.83-2.05 19.048-2.05 21.648 0 1.133.25 2.067.75 2.8 1.2-2.167 1.95-5.283 2.25-9.35.134-4.533.3-7.768.5-9.7.367-3.4.685-6.468.95-9.2.534-5.2.8-8.6.8-10.2.234-.866.367-1.667.4-2.398.068-1.4-.4-2.284-1.4-2.65M412.863 322.03c-.1 1.932-.85 9.3-2.25 22.1-1.332 12.334-2 19.15-2 20.45 0 .833.068 1.298.2 1.4l.3.55c3.134-21.6 4.7-35.066 4.7-40.4 0-1.934-.083-3.3-.25-4.1h-.7M402.564 324.73c-.567 2.767-1.45 8.632-2.65 17.6-1.4 10.466-2.1 17.567-2.1 21.3 0 1.535.25 2.666.75 3.4.6-1.535 1.315-5.986 2.15-13.35.766-6.6 1.148-10.75 1.148-12.45 1-7.603 1.5-11.884 1.5-12.853-.166-1.73-.266-2.948-.3-3.648h-.498M355.863 328.28c-.1 1.633-.35 7.315-.75 17.05-.3 7.23-.732 13.048-1.3 17.448v13.5c.2.3.468.467.8.5.8-4.7 1.468-11.85 2-21.45.5-8.633.75-16.383.75-23.25 0-1.3-.032-2.1-.1-2.398-.165-.9-.632-1.368-1.4-1.4M327.113 329.53c-.4 3.8-.75 8.815-1.05 15.05-.4 8.634-.65 13.7-.75 15.2v16.95c.167.2.434.382.8.55 1.068-5.566 1.7-12.316 1.9-20.25.034-1 .05-7.77.05-20.3 0-3.668-.316-6.067-.95-7.2M297.214 329.03c-.532 3.098-1.267 11.5-2.2 25.2-.867 12.933-1.3 20.733-1.3 23.4 0 .765.033 1.398.1 1.898l.9.45c1.033-3.834 1.917-12.15 2.65-24.95.567-9.7.85-16.5.85-20.4 0-3.266-.333-5.13-1-5.6M178.264 343.33c-.2 8.898-.633 15.716-1.3 20.45v7.5c.235.3.685.467 1.35.5.067-3.5.386-11.717.95-24.65.533-12.366.8-18.9.8-19.6 0-1.266-.017-2.068-.05-2.4-.1-1.133-.365-1.834-.8-2.1-.4 3.833-.717 10.6-.95 20.3M437.314 329.896c-27.867 5.05-43.95 8.17-48.25 9.356l-.25.758c.3.656 1.232.965 2.8.922 1.4-.04 8.35-1.336 20.85-3.89 11.367-2.353 19.733-4.153 25.1-5.405 4.034-.914 11.868-2.617 23.5-5.11 10.6-2.267 16.118-3.455 16.55-3.567-1.1-.9-6.717-.326-16.85 1.726-5.534 1.122-13.35 2.857-23.45 5.21M437.314 344.443c-27.867 6.478-43.95 10.423-48.25 11.83l-.25.77c.3.64 1.232.9 2.8.775 1.4-.11 8.35-1.762 20.85-4.955 11.367-2.935 19.733-5.166 25.1-6.69 4.034-1.122 11.868-3.227 23.5-6.316 10.6-2.81 16.118-4.278 16.55-4.414-1.1-.846-6.717.017-16.85 2.59-5.534 1.404-13.35 3.542-23.45 6.41M367.264 232.877c14.564.998 23.797 1.963 27.7 2.9 3.9.97 6.435.305 7.6-2 .368-.697.55-1.5.55-2.398-.032-.733-.05-1.117-.05-1.15 0-2.233-.417-3.833-1.25-4.8-1.1-1.268-3.382-2.3-6.85-3.1-5.567-1.27-21.85-2.95-48.85-5.052l-26.75-.05c-1.167-.167-1.75-.317-1.75-.45h-17.9c-.333.1-1.416.233-3.25.4-1.833.165-2.916.282-3.25.35l-14 .25c-7.767-.267-11.65 2.468-11.65 8.2 0 1.97.5 3.518 1.5 4.648 1.005 1.162 6.59 1.445 16.75.852h58.3c.838-.026 8.554.44 23.15 1.4"/><path fill="#010101" d="M145.214 226.23h25.5c1.232-.267 2.4-.267 3.5 0l19.35.25c6.4.403 13.45 1.02 21.15 1.85 7.668.824 13.036 1.225 16.1 1.2 3.066-.023 4.75-.724 5.052-2.1.3-1.338.45-3.004.45-5 0-1.963-.353-3.396-1.052-4.3-.728-.905-3.762-1.69-9.1-2.352-5.376-.666-19.193-1.416-41.45-2.25l-14.4-.25c1 .108 2.05.208 3.15.3-17.126-.864-26.744-1.014-28.85-.45-1.022-.784-2.256-.367-3.7 1.25-.418.472-.52 3.605-.3 9.4.916.9 2.45 1.72 4.6 2.452zM165.064 234.58c.003 2.128.52 4.995 1.55 8.602.998 3.644 3.18 5.593 6.552 5.85 3.365.287 5.615-1.313 6.75-4.8.746-2.262.912-4.212.5-5.852l-5.602-4.8 5.65-3.2c.355-3.97-.145-6.92-1.5-8.85-1.5-2.166-3.383-2.95-5.65-2.35-2.2.566-4.084 2.232-5.648 5-1.735 2.966-2.602 6.433-2.602 10.4M296.064 237.58c.002 2.128.52 4.995 1.55 8.602.997 3.644 3.18 5.593 6.55 5.85 3.365.287 5.615-1.313 6.75-4.8.747-2.262.913-4.212.5-5.852l-5.6-4.8 5.65-3.2c.355-3.97-.145-6.92-1.5-8.85-1.5-2.166-3.384-2.95-5.65-2.35-2.2.566-4.084 2.232-5.65 5-1.732 2.966-2.6 6.433-2.6 10.4M434.025 271.607c.88 7.112 1.266 10.76 1.15 10.938-.086.145-.1.463-.046.96.246 2.253 2.523 7.118 6.83 14.593 2.193 3.783 5 9.326 8.416 16.63-.54 14.497-.148 24.347 1.182 29.548 1.307 5.242 3.162 2.91 5.57-7-.052-15.238-.188-23.054-.412-23.443-12.318-31.88-19.39-48.64-21.213-50.285-1.866-1.74-2.358.947-1.478 8.06"/><path fill="#fff" d="M436.146 339.61c-.744 2.836-.554 5.66.57 8.47 1.165 2.786 1.56 4.89 1.19 6.308l-1.626 4.227c-1.082 2.817-2.004 5.678-2.764 8.58-.93 3.545-1.648 6.613-2.154 9.202-.328 1.776-.905 5.294-1.733 10.556-.416 2.373-.665 3.977-.747 4.817-.24 1.97-.264 3.704-.07 5.202.08.88.52 1.893 1.322 3.035.892 1.197 1.93 2.176 3.108 2.932 1.72 1.45 3.097 2.448 4.125 2.993 1.992 1.074 3.37 1.607 4.13 1.6.823.01 2.147.477 3.974 1.402 1.663.885 2.704 1.38 3.123 1.49 1.45.38 2.737-.383 3.858-2.295.89-2.076 1.396-3.22 1.52-3.428.566-.85 1.124-1.86 1.67-3.025.6-1.36 1.08-2.404 1.442-3.135 2.486-5.412 4.137-9.666 4.948-12.763.752-2.87.997-8.94.74-18.207-.218-9.29-.142-14.646.23-16.064.01-.033.558-.613 1.646-1.74 1.126-1.153 1.844-2.308 2.147-3.47.575-2.19.38-4.672-.582-7.44-1.385-4.05-4.3-6.467-8.746-7.253-7.63-1.656-13.257-1.288-16.882 1.105-2.124 1.406-3.606 3.706-4.442 6.897"/><path fill="#010101" d="M442.377 340.88c-3.294 3.893-5.39 7.616-6.287 11.17-.56 2.126-1.27 5.765-2.137 10.913-.5 1.902-1.49 4.57-2.977 8.006-1.488 3.435-2.475 6.087-2.966 7.956-1.343 5.128-.024 9.625 3.958 13.494.227.043.426.076.594.104.864.433 2.178.88 3.938 1.34 3.225.847 6.77-1.514 10.643-7.08 3.243-5.8 4.88-8.766 4.916-8.895.92-3.516 1.46-6.234 1.62-8.157.22-3.212-.27-5.944-1.472-8.188-.14.136-.29.25-.453.348-.18.158-.333.48-.46.965-.11.418-.352 2.13-.725 5.133-.35 3.044-.576 4.76-.678 5.147-1.148 4.385-2.85 8.04-5.097 10.965-3.356 4.422-7.37 6.127-12.04 5.113-.232-.734-.445-1.498-.64-2.286-.835-3.39-1.074-5.762-.72-7.115.48-1.838 1.41-4.264 2.787-7.28 1.26-2.84 2.21-5.675 2.85-8.507 2.033-9.734 3.156-15.004 3.37-15.81.1-.386.515-1.313 1.243-2.776.752-1.422 1.183-2.342 1.293-2.762.144-.55.147-.96.014-1.236-.095-.164-.286-.352-.575-.565M461.434 350.008c-.145 2.79-.328 9.994-.55 21.617-.187 10.047-.35 15.344-.495 15.892-1.382 5.27-5.06 12.472-11.038 21.606-.582-.014-1.26-.123-2.035-.326-4.127-1.082-6.22-4.008-6.278-8.78.67-5.06.888-8.122.648-9.183-1.182.172-2.166 1.103-2.953 2.79-.398.86-.678 1.734-.842 2.624-.584 2.223-.51 4.826.227 7.81 1.06 4.24 3.346 6.823 6.86 7.743 1.87.49 3.503.505 4.898.044 2.386.625 5.42-3.06 9.1-11.053 3.165-8.128 4.75-12.208 4.76-12.24.802-3.063 1.114-9.908.936-20.533-.17-11.312-1.026-17.515-2.565-18.606l-.676.598M435.707 389.99c-1.564.314-2.717 1.097-3.458 2.353-.348.527-.706 1.504-1.078 2.92-.388 1.484-.094 3.715.882 6.693 1.164 3.578 2.86 5.658 5.083 6.242 1 .262 1.895.203 2.682-.176.878-.457 1.503-.674 1.874-.646-.086.46-.022.287.188-.52-.65-.41-1.437-.96-2.358-1.65-1.908-1.396-3.418-3.324-4.53-5.79-.67-1.52-.763-2.868-.28-4.052.732-1.222 1.205-2.232 1.416-3.04.137-.516.13-1.018-.02-1.504l-.403-.83M430.928 386.928c-.73-.362-1.47-.04-2.218.97-.306.644-.718 1.948-1.233 3.915-.685 2.61-.945 4.592-.783 5.945.4 3.205 2.438 5.29 6.113 6.252.55.146 1.01.096 1.385-.15.328-.328.604-.53.832-.61-.373-.683-.666-1.138-.883-1.368-.565-.596-1.478-1.06-2.735-1.39-1.29-2.302-1.743-4.52-1.355-6.66.778-2.313 1.328-4.08 1.648-5.305.186-.71-.07-1.243-.77-1.6M439.193 344.542c.9-.713 2.762-1.57 5.584-2.567 2.805-.958 7.25-.638 13.34.964 1.033.27 2.082 1.13 3.148 2.58 1.3 1.754 2.075 2.733 2.332 2.94.06.43.195.24.406-.565.77-2.936-.14-5.19-2.725-6.762-2.168-1.326-5.252-2.05-9.252-2.166-3.62-.123-6.992.252-10.114 1.12-2.313.63-3.392 2.312-3.235 5.044.102-.198.275-.396.516-.588M433.676 340.357c-.507 1.935-.635 3.604-.384 5.015.35 2.09 1.5 3.807 3.458 5.146 1.322-.446 1.997-.717 2.02-.812.104-.388-.292-1.576-1.183-3.568-.86-1.98-1.115-3.633-.768-4.955.557-2.13 2.126-4.11 4.71-5.95 3.937-2.792 8.888-3.407 14.853-1.843 4.353 1.14 7.144 3.113 8.373 5.914 1.072 2.35 1.09 5.507.05 9.473-.127.484-.443 1.038-.953 1.663-.697.815-1.082 1.3-1.156 1.454.022.178.017.4-.02.667.038.252.3.44.782.568 1.547.404 2.803-.506 3.766-2.735.63-2.282.95-3.437.96-3.47 1.386-5.287.602-9.524-2.353-12.71-2.54-2.804-6.267-4.417-11.187-4.847-4.676-.433-9.01.326-13.002 2.278-4.332 2.067-6.988 4.974-7.968 8.713"/></svg>